<svg width="581" height="579" viewBox="0 0 581 579" fill="none" xmlns="http://www.w3.org/2000/svg">
<path d="M162.098 166.472C162.098 166.472 223.501 66.4794 346.242 105.611C468.787 144.75 439.829 293.323 439.751 293.713C440.287 290.991 461.516 288.397 463.763 288.078C526.388 279.025 572.97 335.994 577.588 392.14C583.323 461.779 528.25 511.101 465.527 532.338" stroke="url(#paint0_linear_183_875)" stroke-width="5.5" stroke-miterlimit="10"/>
<path d="M457.441 565.01C455.586 571.392 454.24 575.04 454.24 575.04H453.273C454.802 571.786 456.191 568.443 457.441 565.01Z" fill="#353642"/>
<path d="M286.575 313.104C286.575 313.104 284.367 326.214 282.081 338.085C275.549 338.155 269.016 338.206 262.556 338.257C259.29 320.279 262.837 306.198 267.05 296.812C272.361 308.657 280.383 312.261 286.575 313.104Z" fill="url(#paint1_linear_183_875)"/>
<path d="M393.939 360.409C380.657 353.414 366.5 348.141 351.825 344.724L347.018 343.913C347.018 343.913 343.438 335.952 343.418 335.926C341.74 331.755 338.957 326.215 338.095 321.82C337.044 316.628 336.789 311.311 337.337 306.046C338.278 298.226 342.001 281.685 348.729 276.472C354.34 272.153 356.653 273.06 359.834 266.307C362.12 261.49 363.048 253.395 358.606 249.843C353.681 245.945 351.577 247.926 345.685 248.527C323.293 250.699 310.496 234.937 302.265 216.723C300.959 213.765 299.6 210.64 297.464 208.123C295.015 205.223 291.624 204.571 288.848 202.226C287.666 201.217 286.856 199.569 287.424 198.137C287.759 197.453 288.246 196.851 288.848 196.374C294.095 191.647 300.395 188.18 307.249 186.248C318.092 183.182 329.548 182.832 340.564 185.232C352.061 188.957 362.395 196.01 369.351 206.788C378.947 221.68 381.26 237.129 375.884 252.526C370.377 268.294 364.23 286.815 374.577 301.989C388.354 322.146 396.656 336.323 393.939 360.409Z" fill="url(#paint2_linear_183_875)"/>
<path d="M282.106 338.083C275.574 338.153 269.042 338.204 262.581 338.256C213.354 338.505 166.237 337.834 116.854 346.497" stroke="black" stroke-width="5.5" stroke-miterlimit="10"/>
<path d="M346.242 343.443C348.117 343.846 349.972 344.268 351.827 344.721C359.059 346.431 366.179 348.564 373.149 351.11C380.299 353.712 387.248 356.817 393.941 360.399C393.948 360.393 393.957 360.39 393.967 360.39C393.977 360.39 393.986 360.393 393.993 360.399C404.522 365.979 414.255 372.892 422.937 380.959C430.197 387.877 436.474 395.718 441.6 404.272C441.644 404.305 441.678 404.349 441.698 404.4C445.856 411.227 449.466 418.359 452.496 425.732C461.536 447.512 466.664 472.588 467.448 497.543C468.16 521.112 464.985 544.578 457.473 565.01C456.224 568.443 454.834 571.787 453.306 575.04C453.208 575.29 453.077 575.513 452.979 575.762" stroke="black" stroke-width="5.5" stroke-miterlimit="10"/>
<path d="M374.625 575.443C374.625 575.443 374.625 575.391 374.625 575.366C374.667 575.26 374.699 575.151 374.723 575.04" stroke="black" stroke-width="5.5" stroke-miterlimit="10"/>
<path d="M357.387 431.771C357.387 431.771 371.601 438.524 380.942 459.607C385.639 470.206 389.12 484.46 388.918 503.307C388.918 503.307 388.918 503.307 388.918 503.358C388.813 515.375 387.193 529.252 383.431 545.243V545.333" stroke="black" stroke-width="5.5" stroke-miterlimit="10"/>
<path d="M88.3809 164.115C90.8892 154.832 94.9131 145.261 97.9375 141.236C102.693 134.975 108.899 129.008 116.881 129.544C122.009 129.87 127.045 132.643 127.274 138.137C127.489 144.098 121.062 150.717 118.998 156.32C117.038 161.725 116.143 168.018 117.175 173.704C118.207 179.39 123.426 183.831 129.057 185.051C131.193 185.601 133.464 185.3 135.374 184.214C140.887 180.802 139.731 171.717 139.509 166.357C139.247 160.345 139.254 153.547 144.499 149.433C148.353 146.411 154.2 148.417 157.041 151.739C161.98 157.489 162.221 166.146 162.47 173.225C163.208 194.551 159.334 214.996 146.635 232.948C140.103 242.219 133.375 250.537 130.729 261.909C122.499 297.253 121.584 321.754 116.855 357.647" stroke="black" stroke-width="5.5" stroke-miterlimit="10"/>
<path d="M216.563 576C191.323 505.837 203.277 429.184 203.277 429.184L67.6932 433.387C61.9207 433.566 56.1755 432.533 50.8459 430.357C45.5162 428.181 40.7255 424.912 36.7957 420.773C32.8665 416.633 29.8898 411.717 28.0665 406.357C26.2433 400.997 25.6159 395.317 26.2265 389.7L59.4364 271.25L66.6219 245.982C68.9134 238.031 68.3882 229.557 65.1326 221.935L61.7489 214.038C61.7489 214.038 55.6151 201.803 69.3655 202.953C76.76 203.592 84.0957 206.665 90.3013 210.524C95.1744 213.559 102.608 219.43 100.309 225.94C97.5913 233.607 86.9372 235.524 80.6793 231.211" stroke="black" stroke-width="5.5" stroke-miterlimit="10"/>
<path d="M64.7932 202.889C64.7932 202.889 53.1788 177.334 85.0432 183.946C116.907 190.559 124.537 224.612 100.218 220.778" stroke="black" stroke-width="5.5" stroke-miterlimit="10"/>
<path d="M75.2962 182.481C75.2962 182.481 65.1059 170.374 80.3391 164.592C95.5723 158.81 150.887 186.116 115.404 213.014" stroke="black" stroke-width="5.5" stroke-miterlimit="10"/>
<path d="M295.721 312.528C292.764 313.322 289.672 313.518 286.634 313.103C280.416 312.26 272.394 308.631 267.109 296.811C266.012 294.396 265.12 291.896 264.444 289.336C261.753 279.555 260.577 265.947 262.151 246.972C262.458 243.324 262.916 239.618 263.549 235.919C264.598 229.484 266.29 223.165 268.599 217.053C268.599 217.053 268.599 217.002 268.651 216.976C274.412 202.077 284.544 189.504 301.58 184.667C314.356 181.063 327.939 181.254 340.604 185.217C352.101 188.942 362.435 195.995 369.391 206.773C378.987 221.665 381.3 237.114 375.924 252.511C370.417 268.279 364.27 286.8 374.617 301.974C388.374 322.163 396.677 336.339 394.011 360.426" stroke="black" stroke-width="5.5" stroke-miterlimit="10"/>
<path d="M257.358 339.003C252.355 315.537 259.109 298.427 264.413 289.336" stroke="black" stroke-width="5.5" stroke-miterlimit="10"/>
<path d="M263.551 235.894C263.551 235.894 274.505 224.694 287.198 242.385" stroke="black" stroke-width="5.5" stroke-miterlimit="10"/>
<path d="M291.441 292.287C296.073 295.22 302.344 293.399 305.753 288.882C309.457 283.982 310.94 277.44 311.744 271.504C311.796 271.076 311.855 270.655 311.894 270.227C306.243 278.909 295.276 280.992 285.621 281.899C285.987 284.739 287.067 287.445 288.763 289.777C289.489 290.769 290.397 291.62 291.441 292.287Z" stroke="black" stroke-width="5.5" stroke-linecap="round" stroke-linejoin="round"/>
<path d="M341.75 331.377L341.723 331.351" stroke="black" stroke-width="5.5" stroke-miterlimit="10"/>
<path d="M298.652 232.449C298.652 232.449 302.376 226.552 315.101 230.897C327.825 235.241 327.976 242.339 327.976 242.339" stroke="black" stroke-width="5.5" stroke-miterlimit="10"/>
<path d="M269.73 247.113C269.73 247.113 275.61 244.206 280.215 247.113" stroke="black" stroke-width="5.5" stroke-miterlimit="10"/>
<path d="M301.41 249.788C301.41 249.788 307.289 246.881 311.862 249.788" stroke="black" stroke-width="5.5" stroke-miterlimit="10"/>
<path d="M286.576 313.104C286.576 313.104 284.369 326.215 282.082 338.085C281.749 339.772 281.429 341.433 281.142 343.075C279.646 351.067 278.45 358.172 278.398 360.325C278.019 378.214 295.31 388.532 312.013 388.359C335.451 388.11 349.155 366.784 346.947 345.426C345.504 341.529 344.028 337.631 342.584 333.734C340.729 328.738 338.318 323.876 337.273 318.612C336.35 313.425 336.249 308.131 336.973 302.914C337.913 295.12 339.462 283.498 346.19 278.285C351.801 273.966 357.66 271.13 360.861 264.377C363.147 259.559 363.043 253.356 358.601 249.803C353.676 245.906 345.883 246.379 339.991 246.948C301.986 250.749 295.663 213.125 285.381 207.841C276.954 203.49 270.631 213.253 268.652 216.875L268.574 217.028C268.57 217.065 268.554 217.099 268.528 217.124C268.169 217.763 267.992 218.191 267.992 218.191" stroke="black" stroke-width="5.5" stroke-miterlimit="10"/>
<path d="M285.603 251.444C285.603 251.444 281.632 264.158 281.939 266.062C282.246 267.966 286.877 266.637 286.877 266.637" stroke="black" stroke-width="5.5" stroke-miterlimit="10"/>
<path d="M316.725 264.861C322.809 258.921 322.698 249.163 316.476 243.067C310.255 236.972 300.279 236.846 294.195 242.787C288.11 248.727 288.222 258.484 294.443 264.58C300.664 270.676 310.64 270.802 316.725 264.861Z" stroke="black" stroke-width="5.5" stroke-miterlimit="10"/>
<path d="M277.018 260.142C283.102 254.201 282.991 244.444 276.77 238.349C270.548 232.253 260.572 232.127 254.487 238.068C248.403 244.008 248.514 253.765 254.736 259.861C260.958 265.956 270.934 266.082 277.018 260.142Z" stroke="black" stroke-width="5.5" stroke-miterlimit="10"/>
<path d="M265.405 237.267C267.14 237.26 268.856 237.607 270.445 238.288C272.033 238.969 273.458 239.969 274.628 241.221C275.797 242.474 276.685 243.953 277.234 245.561C277.783 247.17 277.982 248.874 277.817 250.563C277.541 253.402 276.19 256.038 274.029 257.953C271.868 259.868 269.053 260.923 266.137 260.913C264.403 260.92 262.686 260.572 261.097 259.891C259.509 259.211 258.084 258.211 256.915 256.958C255.745 255.706 254.858 254.227 254.308 252.618C253.759 251.009 253.56 249.306 253.726 247.617C254.001 244.778 255.352 242.142 257.513 240.227C259.674 238.312 262.489 237.256 265.405 237.267ZM265.405 235.504C262.045 235.496 258.803 236.716 256.314 238.925C253.826 241.134 252.272 244.172 251.955 247.445C251.619 251.056 252.731 254.655 255.059 257.478C257.386 260.302 260.745 262.129 264.426 262.574C264.989 262.639 265.556 262.673 266.124 262.676C269.488 262.689 272.735 261.471 275.227 259.261C277.72 257.052 279.277 254.011 279.593 250.735C279.93 247.123 278.817 243.525 276.49 240.701C274.162 237.878 270.804 236.051 267.123 235.606C266.56 235.54 265.993 235.507 265.425 235.504H265.405Z" fill="white"/>
<path d="M289.771 251.947L281.436 250.957" stroke="black" stroke-width="5.5" stroke-miterlimit="10"/>
<path d="M315.447 263.611C320.842 258.343 320.744 249.693 315.228 244.289C309.713 238.885 300.869 238.774 295.474 244.042C290.079 249.309 290.176 257.96 295.692 263.364C301.208 268.767 310.052 268.878 315.447 263.611Z" fill="url(#paint3_linear_183_875)"/>
<path d="M275.743 258.892C281.141 253.622 281.044 244.967 275.525 239.561C270.007 234.155 261.158 234.044 255.76 239.314C250.363 244.584 250.461 253.238 255.979 258.644C261.497 264.051 270.346 264.162 275.743 258.892Z" fill="url(#paint4_linear_183_875)"/>
<path d="M138.385 36.8804C119.442 37.8259 103.764 52.6737 102.255 71.1503C101.805 76.3055 102.458 81.4959 104.172 86.391C105.886 91.2855 108.624 95.7776 112.21 99.5809C114.855 102.426 117.941 104.848 121.356 106.756C122.247 107.258 123.088 107.84 123.871 108.493C128.983 111.018 134.628 112.337 140.355 112.346C146.082 112.355 151.731 111.053 156.852 108.544C157.597 107.868 158.424 107.285 159.315 106.807C162.869 104.819 166.081 102.296 168.832 99.3317C168.902 99.2352 168.978 99.1432 169.061 99.057C174.052 93.5312 177.264 86.6875 178.293 79.3837C179.323 72.0806 178.125 64.642 174.85 58.0014C171.575 51.3608 166.367 45.814 159.882 42.0566C153.396 38.2993 145.92 36.4983 138.392 36.8804H138.385ZM162.097 95.4089C162.025 95.462 161.965 95.5297 161.921 95.607C159.789 97.8872 157.305 99.8275 154.559 101.357C153.876 101.723 153.243 102.174 152.678 102.699C148.73 104.631 144.375 105.638 139.959 105.638C135.544 105.638 131.189 104.631 127.241 102.699C126.63 102.188 125.974 101.731 125.282 101.331C120.005 98.3631 115.797 93.8718 113.234 88.4719C110.671 83.0726 109.879 77.03 110.967 71.1727C112.054 65.3154 114.968 59.9308 119.308 55.757C123.648 51.5837 129.202 48.825 135.208 47.8609C141.214 46.8969 147.378 47.7734 152.855 50.3711C158.331 52.9689 162.852 57.16 165.796 62.3695C168.741 67.5796 169.966 73.5526 169.302 79.4706C168.639 85.388 166.12 90.9597 162.091 95.4217L162.097 95.4089Z" fill="url(#paint5_linear_183_875)"/>
<path d="M156.839 108.552C155.335 109.886 154.135 111.514 153.316 113.332C152.497 115.149 152.077 117.113 152.083 119.1V120.812C152.083 126.792 147.654 132.152 141.632 132.753C140.004 132.916 138.36 132.744 136.804 132.248C135.248 131.752 133.816 130.943 132.599 129.873C131.383 128.802 130.409 127.495 129.741 126.035C129.072 124.574 128.723 122.993 128.717 121.393V119.1C128.714 117.102 128.283 115.128 127.453 113.304C126.622 111.48 125.411 109.845 123.896 108.507C129.009 111.023 134.652 112.338 140.375 112.346C146.099 112.354 151.745 111.054 156.865 108.552H156.839Z" fill="#353642"/>
<path d="M156.839 108.552C155.335 109.886 154.135 111.514 153.316 113.332C152.497 115.149 152.077 117.113 152.083 119.1V120.812C152.083 126.792 147.654 132.152 141.632 132.753C140.004 132.916 138.36 132.744 136.804 132.248C135.248 131.752 133.816 130.943 132.599 129.873C131.383 128.802 130.409 127.495 129.741 126.035C129.072 124.574 128.723 122.993 128.717 121.393V119.1C128.714 117.102 128.283 115.128 127.453 113.304C126.622 111.48 125.411 109.845 123.896 108.507C129.009 111.023 134.652 112.338 140.375 112.346C146.099 112.354 151.745 111.054 156.865 108.552H156.839Z" stroke="black" stroke-width="5.5" stroke-miterlimit="10"/>
<path d="M178.651 74.2627C178.67 83.4039 175.253 92.2333 169.048 99.0707C168.97 99.1531 168.899 99.2407 168.833 99.3327C166.077 102.302 162.858 104.827 159.296 106.814C158.41 107.298 157.587 107.881 156.839 108.552C151.72 111.055 146.074 112.354 140.35 112.346C134.626 112.339 128.984 111.024 123.871 108.507C123.091 107.843 122.246 107.255 121.35 106.75C115.04 103.202 109.894 97.9712 106.513 91.6686C103.131 85.3653 101.655 78.2513 102.256 71.1577C103.052 61.5169 107.633 52.5526 115.038 46.1433C122.444 39.734 132.1 36.3785 141.98 36.7804C151.86 37.1816 161.198 41.3095 168.034 48.297C174.871 55.2852 178.675 64.5906 178.651 74.2627Z" stroke="black" stroke-width="5.5" stroke-miterlimit="10"/>
<path d="M129.572 112.346L120.806 83.9284L118.611 75.8784C118.611 75.6363 118.693 75.4012 118.843 75.2089C118.994 75.0172 119.205 74.8792 119.444 74.8166C119.683 74.754 119.937 74.7699 120.165 74.8626C120.394 74.9552 120.585 75.1194 120.708 75.329C122.668 78.7151 125.764 82.9637 128.847 82.8551C133.962 82.6762 129.762 67.4898 125.581 69.0806C121.401 70.6715 129.416 80.7084 137.672 81.9606C145.929 83.2129 143.669 69.6365 137.672 69.0998C131.676 68.5631 135.811 79.9992 146.589 81.9606C157.367 83.922 155.355 72.3134 152.435 69.9943C149.515 67.6751 150.423 81.0662 157.191 83.2129C159.333 83.8965 161.038 82.4334 161.874 80.6126C162.358 79.552 162.11 74.1854 161.117 75.8401C159.092 79.2326 158.693 83.4684 157.7 87.2123C155.59 95.1345 152.363 102.718 150.515 110.711" stroke="black" stroke-width="5.5" stroke-miterlimit="10"/>
<path d="M71.959 575.998C76.5838 573.877 503.087 575.998 503.087 575.998" stroke="black" stroke-width="5.5" stroke-miterlimit="10"/>
<path d="M140.357 23.508L139.979 1" stroke="black" stroke-width="7.34" stroke-miterlimit="10"/>
<path d="M96.4673 44.444L80.5352 28.1973" stroke="black" stroke-width="7.34" stroke-miterlimit="10"/>
<path d="M184.412 45.4534L200.697 29.5449" stroke="black" stroke-width="7.34" stroke-miterlimit="10"/>
<path d="M428.549 545.294L429.104 545.345C428.803 545.396 428.451 545.447 428.144 545.517H427.673L383.443 545.294H378.446L304.135 544.923C303.854 544.923 303.574 544.923 303.293 544.923C303.226 544.935 303.157 544.935 303.09 544.923C303.09 544.923 303.09 544.923 303.044 544.923C302.577 544.928 302.109 544.895 301.646 544.827C305.621 544.388 309.387 542.857 312.51 540.413C313 540.01 313.503 539.627 313.96 539.192L314.012 539.141C314.119 539.057 314.219 538.965 314.313 538.867C318.089 535.213 320.351 530.323 320.662 525.137C320.662 524.888 320.662 524.613 320.662 524.364V523.968C320.639 519.126 318.913 514.439 315.774 510.695C312.635 506.952 308.273 504.378 303.423 503.408C303.416 503.402 303.407 503.399 303.397 503.399C303.387 503.399 303.378 503.402 303.371 503.408C302.888 503.287 302.332 503.21 301.823 503.134L302.914 503.063C303.092 503.051 303.271 503.051 303.449 503.063C303.75 503.063 304.031 503.063 304.312 503.063L367.093 503.383L378.649 503.434L388.904 503.485H393.679H394.261C394.339 503.485 394.385 503.485 394.463 503.485C399.758 504.007 404.667 506.43 408.241 510.287C411.815 514.144 413.8 519.159 413.812 524.364C413.811 525.354 413.735 526.343 413.583 527.322C412.842 532.186 410.384 536.643 406.633 539.918C402.882 543.193 398.077 545.079 393.052 545.249C392.824 545.249 392.595 545.249 392.399 545.249H429.698C429.156 545.268 428.803 545.268 428.549 545.294Z" fill="white"/>
<path d="M328.66 570.684C330.071 572.071 331.749 573.172 333.596 573.922C335.444 574.672 337.425 575.057 339.425 575.054H302.989C296.012 575.054 292.223 573.393 289.46 570.684C286.606 567.891 284.999 564.105 284.992 560.156C284.992 551.991 291.845 545.282 302.989 545.282H339.425C336.414 545.278 333.469 546.147 330.964 547.781C328.459 549.415 326.506 551.74 325.353 554.461C324.2 557.181 323.899 560.175 324.487 563.064C325.077 565.952 326.529 568.604 328.66 570.684Z" fill="#D7E8F0"/>
<path d="M428.699 545.343C428.727 545.335 428.757 545.337 428.784 545.347C428.756 545.346 428.727 545.344 428.699 545.343C428.6 545.336 428.502 545.32 428.405 545.295H393.053C397.649 545.055 402.045 543.372 405.588 540.497C406.122 540.071 406.633 539.617 407.117 539.136C407.521 538.752 407.903 538.344 408.26 537.917C408.533 537.62 408.786 537.306 409.018 536.977C409.168 536.798 409.298 536.626 409.423 536.453C409.664 536.137 409.882 535.804 410.076 535.456C410.373 535.051 410.637 534.625 410.866 534.179C411.11 533.753 411.328 533.314 411.519 532.862C411.617 532.664 411.696 532.441 411.826 532.224C412.003 531.777 412.153 531.33 412.303 530.883C412.512 530.244 412.715 529.566 412.865 528.902C412.957 528.542 413.024 528.178 413.068 527.809C413.097 527.72 413.115 527.628 413.12 527.535C413.149 527.463 413.166 527.388 413.172 527.311C413.172 527.061 413.244 526.838 413.27 526.589V526.442C413.365 525.75 413.409 525.051 413.401 524.352C413.409 524.03 413.392 523.708 413.348 523.388V523.164C413.348 522.848 413.322 522.532 413.27 522.219C413.098 520.495 412.696 518.801 412.075 517.178C411.731 516.205 411.293 515.266 410.768 514.373C410.289 513.475 409.73 512.62 409.096 511.818C408.932 511.584 408.753 511.359 408.56 511.147C408.482 511.07 408.41 510.968 408.306 510.872C407.967 510.437 407.594 510.029 407.189 509.652C406.888 509.358 406.535 509.058 406.228 508.738C405.921 508.419 405.412 508.042 404.981 507.741C404.55 507.441 404.269 507.225 403.89 506.975C403.327 506.575 402.733 506.218 402.113 505.908C401.536 505.579 400.933 505.294 400.31 505.059C399.589 504.757 398.852 504.492 398.102 504.266C397.847 504.173 397.582 504.107 397.312 504.068C396.613 503.874 395.901 503.724 395.182 503.621C394.823 503.545 394.47 503.518 394.091 503.474H394.039C393.99 503.486 393.938 503.486 393.889 503.474H394.039H394.091C394.47 503.518 394.823 503.545 395.182 503.621C395.901 503.724 396.613 503.874 397.312 504.068C397.582 504.107 397.847 504.173 398.102 504.266C398.852 504.492 399.589 504.757 400.31 505.059C400.933 505.294 401.536 505.579 402.113 505.908C402.733 506.218 403.327 506.575 403.89 506.975C404.269 507.225 404.55 507.441 404.981 507.741C405.412 508.042 405.921 508.419 406.228 508.738C406.535 509.058 406.888 509.358 407.189 509.652C407.594 510.029 407.967 510.437 408.306 510.872C408.41 510.968 408.482 511.07 408.56 511.147C408.753 511.359 408.932 511.584 409.096 511.818C409.73 512.62 410.289 513.475 410.768 514.373C411.293 515.266 411.731 516.205 412.075 517.178C412.696 518.801 413.098 520.495 413.27 522.219C413.322 522.532 413.348 522.848 413.348 523.164V523.388C413.392 523.708 413.409 524.03 413.401 524.352C413.409 525.051 413.365 525.75 413.27 526.442V526.589C413.244 526.838 413.172 527.061 413.172 527.311C413.166 527.388 413.149 527.463 413.12 527.535C413.115 527.628 413.097 527.72 413.068 527.809C413.024 528.178 412.957 528.542 412.865 528.902C412.715 529.566 412.512 530.244 412.303 530.883C412.153 531.33 412.003 531.777 411.826 532.224C411.696 532.441 411.617 532.664 411.519 532.862C411.328 533.314 411.11 533.753 410.866 534.179C410.637 534.625 410.373 535.051 410.076 535.456C409.882 535.804 409.664 536.137 409.423 536.453C409.298 536.626 409.168 536.798 409.018 536.977C408.786 537.306 408.533 537.62 408.26 537.917C407.903 538.344 407.521 538.752 407.117 539.136C406.633 539.617 406.122 540.071 405.588 540.497C402.045 543.372 397.649 545.055 393.053 545.295H428.405C428.49 545.282 428.576 545.282 428.66 545.295H428.405C428.502 545.32 428.6 545.336 428.699 545.343Z" fill="#3FBDF1"/>
<path d="M449.11 524.665C449.11 525.062 449.11 525.483 449.057 525.879C449.005 526.55 448.933 527.195 448.829 527.841C448.777 528.186 448.705 528.537 448.626 528.882C448.476 529.521 448.3 530.224 448.097 530.869C447.869 531.581 447.596 532.278 447.281 532.958C447.179 533.225 447.053 533.481 446.902 533.725C446.902 533.802 446.85 533.853 446.797 533.923C446.647 534.249 446.471 534.562 446.294 534.869C446.013 535.367 445.706 535.859 445.38 536.332C444.994 536.907 444.563 537.424 444.132 537.948C443.694 538.468 443.227 538.965 442.734 539.437C442.218 539.951 441.668 540.433 441.088 540.88L440.435 541.398C439.692 541.947 438.91 542.444 438.096 542.887C437.717 543.085 437.312 543.289 436.907 543.487C436.87 543.515 436.824 543.53 436.777 543.532C436.32 543.755 435.862 543.934 435.405 544.107C434.948 544.279 434.491 544.452 434.014 544.599C433.53 544.727 433.047 544.874 432.564 544.976L432.165 545.046C431.786 545.129 431.407 545.199 431.022 545.257C430.339 545.372 429.649 545.45 428.958 545.493C428.537 545.536 428.114 545.553 427.69 545.544C427.69 545.544 427.612 545.544 427.586 545.544L383.428 545.334L373.022 545.282L303.663 544.937C303.407 544.933 303.152 544.916 302.898 544.886C302.317 544.886 301.755 544.835 301.174 544.79C306.199 544.205 310.854 541.913 314.329 538.315C317.804 534.716 319.878 530.04 320.189 525.1C320.189 524.851 320.189 524.576 320.189 524.301V524.033C320.196 519.165 318.479 514.446 315.333 510.675C312.185 506.904 307.801 504.315 302.925 503.346C302.415 503.244 301.905 503.173 301.376 503.097C301.882 503.039 302.389 503.007 302.898 503.001C303.077 502.988 303.256 502.988 303.434 503.001H303.865L373.225 503.346L388.902 503.422H394.03H394.461L427.775 503.595C428.869 503.599 429.96 503.682 431.042 503.844C433.801 504.287 436.448 505.248 438.835 506.674C439.142 506.847 439.416 507.045 439.697 507.217C440.543 507.784 441.349 508.408 442.107 509.083C442.362 509.307 442.591 509.53 442.845 509.779C444.781 511.697 446.332 513.953 447.418 516.43L447.803 517.401C447.932 517.716 448.041 518.038 448.13 518.366C448.781 520.405 449.112 522.529 449.11 524.665Z" stroke="black" stroke-width="5.5" stroke-linecap="square" stroke-linejoin="round"/>
<path d="M413.368 524.288C413.371 524.986 413.337 525.684 413.263 526.378C413.263 526.429 413.263 526.473 413.263 526.525C413.211 526.85 413.165 527.163 413.113 527.47C413.108 527.563 413.09 527.656 413.061 527.745C413.017 528.113 412.95 528.478 412.858 528.837C412.708 529.476 412.505 530.173 412.296 530.818C412.146 531.265 411.996 531.712 411.819 532.16C411.689 532.383 411.61 532.607 411.512 532.798C411.321 533.25 411.103 533.689 410.859 534.115C410.63 534.56 410.366 534.987 410.069 535.392C409.875 535.739 409.657 536.073 409.416 536.389C409.291 536.562 409.161 536.734 409.011 536.913C408.779 537.241 408.526 537.555 408.253 537.852C407.896 538.28 407.514 538.688 407.11 539.072C406.624 539.543 406.114 539.988 405.581 540.408C402.046 543.297 397.652 544.996 393.052 545.25C392.824 545.25 392.595 545.25 392.399 545.25H303.763C302.953 545.25 302.117 545.206 301.274 545.129C301.821 545.065 302.364 544.974 302.901 544.854C302.943 544.869 302.989 544.869 303.031 544.854H303.077C307.196 544.014 310.973 542.016 313.947 539.104L313.999 539.053C317.78 535.316 319.99 530.328 320.192 525.074C320.192 524.825 320.192 524.55 320.192 524.276V524.25C320.151 519.129 318.206 514.199 314.72 510.377C311.234 506.556 306.445 504.107 301.248 503.486C301.81 503.416 302.365 503.39 302.927 503.365C303.069 503.339 303.216 503.339 303.358 503.365C303.365 503.358 303.374 503.355 303.384 503.355C303.394 503.355 303.403 503.358 303.41 503.365C303.519 503.352 303.628 503.352 303.737 503.365H391.909C392.523 503.365 393.105 503.365 393.692 503.442H393.895C393.944 503.454 393.996 503.454 394.045 503.442H394.15L395.188 503.589C395.908 503.692 396.619 503.841 397.318 504.036C397.573 504.087 397.853 504.157 398.108 504.234C398.858 504.459 399.595 504.724 400.316 505.026C400.924 505.275 401.538 505.575 402.119 505.876C402.733 506.195 403.327 506.552 403.896 506.943C404.275 507.192 404.634 507.435 404.987 507.709C405.339 507.984 405.823 508.348 406.234 508.706C406.646 509.064 406.888 509.345 407.195 509.62C407.58 510.022 407.959 510.418 408.312 510.84C408.416 510.936 408.488 511.038 408.566 511.115L409.102 511.785C409.713 512.602 410.272 513.456 410.774 514.341C411.267 515.25 411.704 516.186 412.081 517.146C412.68 518.774 413.081 520.467 413.276 522.187C413.276 522.512 413.328 522.825 413.355 523.132V523.356C413.368 523.643 413.368 523.969 413.368 524.288Z" stroke="black" stroke-width="5.5" stroke-linecap="square" stroke-linejoin="round"/>
<path d="M429.665 575.041H302.979C300.156 575.115 297.34 574.722 294.65 573.878C294.115 573.68 293.612 573.482 293.128 573.239C292.645 572.99 292.214 572.741 291.783 572.492C291.351 572.243 290.973 571.923 290.587 571.623C290.208 571.297 289.856 570.984 289.522 570.652C287.784 568.953 286.495 566.865 285.766 564.57C285.304 563.14 285.073 561.648 285.08 560.148C285.076 559.568 285.111 558.987 285.185 558.411C285.281 557.601 285.459 556.803 285.714 556.028C286.068 554.801 286.617 553.637 287.341 552.578C287.754 551.886 288.247 551.243 288.81 550.661C289.157 550.284 289.522 549.926 289.908 549.588C293.004 546.885 297.498 545.218 303.057 545.218H429.665C429.156 545.218 428.803 545.218 428.548 545.218C428.464 545.205 428.378 545.205 428.294 545.218C428.039 545.218 428.091 545.218 428.215 545.218C428.222 545.224 428.231 545.227 428.241 545.227C428.251 545.227 428.26 545.224 428.267 545.218C428.326 545.229 428.386 545.229 428.444 545.218C428.496 545.218 428.522 545.218 428.574 545.218C428.294 545.269 428.013 545.294 427.732 545.365H427.673C427.673 545.365 427.595 545.365 427.568 545.365C424.106 546.038 420.989 547.863 418.744 550.528C416.5 553.193 415.267 556.535 415.255 559.989C415.275 563.63 416.649 567.14 419.12 569.863C421.591 572.587 424.991 574.339 428.685 574.792C428.065 575.022 427.484 575.041 429.665 575.041Z" stroke="black" stroke-width="5.5" stroke-linecap="square" stroke-linejoin="round"/>
<path d="M428.644 574.969C428.063 575.021 427.481 575.04 426.894 575.04H339.407C337.411 575.039 335.435 574.652 333.592 573.903C331.749 573.153 330.076 572.054 328.668 570.67C326.93 568.971 325.64 566.884 324.912 564.588C324.461 563.156 324.241 561.665 324.259 560.166C324.266 556.222 325.869 552.44 328.719 549.648C331.568 546.857 335.432 545.282 339.466 545.268H426.894C427.325 545.268 427.782 545.268 428.2 545.319C428.276 545.331 428.353 545.331 428.429 545.319C428.481 545.319 428.507 545.319 428.559 545.319C428.278 545.37 427.998 545.395 427.717 545.466H427.671C427.671 545.466 427.593 545.466 427.566 545.466C424.104 546.14 420.986 547.964 418.742 550.629C416.498 553.295 415.266 556.637 415.253 560.09C415.273 563.731 416.647 567.241 419.118 569.965C421.589 572.689 424.989 574.44 428.683 574.893L428.644 574.969Z" stroke="black" stroke-width="5.5" stroke-linecap="square" stroke-linejoin="round"/>
<path d="M324.202 560.166C324.202 564.112 325.804 567.894 328.656 570.684C331.508 573.473 335.376 575.04 339.409 575.04H302.979C296.022 575.04 292.214 573.379 289.444 570.67C288.032 569.292 286.913 567.654 286.151 565.852C285.389 564.05 284.998 562.118 285.002 560.166C285.002 551.976 291.835 545.268 302.979 545.268H339.409C335.375 545.282 331.512 546.857 328.662 549.648C325.812 552.44 324.209 556.222 324.202 560.166Z" stroke="black" stroke-width="5.5" stroke-linecap="square" stroke-linejoin="round"/>
<path d="M429.664 575.041H426.895C427.482 575.041 428.064 575.041 428.645 574.972C428.064 575.022 427.482 575.041 429.664 575.041Z" stroke="black" stroke-width="5.5" stroke-linecap="square" stroke-linejoin="round"/>
<path d="M428.443 545.331C427.94 545.331 427.404 545.255 426.895 545.255H429.664C427.731 545.268 427.959 545.331 428.443 545.331Z" stroke="black" stroke-width="5.5" stroke-linecap="square" stroke-linejoin="round"/>
<path opacity="0.54" d="M48.802 518.999L3.4551 405.379C2.89327 403.182 2.85107 400.887 3.33164 398.67C3.81222 396.453 4.80297 394.373 6.22856 392.588C7.65423 390.801 9.47725 389.357 11.5592 388.363C13.6412 387.369 15.9274 386.852 18.2441 386.852H198.391C202.435 386.851 206.361 388.182 209.538 390.629C212.715 393.077 214.958 396.499 215.903 400.345L265.549 513.952C266.087 516.145 266.11 518.428 265.616 520.63C265.122 522.833 264.123 524.896 262.696 526.667C261.269 528.438 259.449 529.868 257.375 530.852C255.301 531.836 253.026 532.346 250.72 532.346H66.2627C62.2473 532.346 58.3469 531.031 55.1827 528.613C52.0191 526.194 49.7727 522.811 48.802 518.999Z" fill="white"/>
<path d="M48.802 518.999L3.4551 405.379C2.89327 403.182 2.85107 400.887 3.33164 398.67C3.81222 396.453 4.80297 394.373 6.22857 392.588C7.65423 390.801 9.47725 389.357 11.5592 388.363C13.6412 387.369 15.9274 386.852 18.2441 386.852H198.391C202.435 386.851 206.361 388.182 209.538 390.629C212.715 393.077 214.958 396.499 215.903 400.345L265.549 513.952C266.087 516.145 266.11 518.428 265.616 520.63C265.122 522.833 264.123 524.896 262.696 526.667C261.269 528.438 259.449 529.868 257.375 530.852C255.301 531.836 253.026 532.346 250.72 532.346H66.2627C62.2473 532.346 58.3469 531.031 55.1827 528.613C52.0191 526.194 49.7727 522.811 48.802 518.999Z" fill="#3FBDF1"/>
<path d="M48.802 518.999L3.4551 405.379C2.89327 403.182 2.85107 400.887 3.33164 398.67C3.81222 396.453 4.80297 394.373 6.22856 392.588C7.65423 390.801 9.47725 389.357 11.5592 388.363C13.6412 387.369 15.9274 386.852 18.2441 386.852H198.391C202.435 386.851 206.361 388.182 209.538 390.629C212.715 393.077 214.958 396.499 215.903 400.345L265.549 513.952C266.087 516.145 266.11 518.428 265.616 520.63C265.122 522.833 264.123 524.896 262.696 526.667C261.269 528.438 259.449 529.868 257.375 530.852C255.301 531.836 253.026 532.346 250.72 532.346H66.2627C62.2473 532.346 58.3469 531.031 55.1827 528.613C52.0191 526.194 49.7727 522.811 48.802 518.999Z" stroke="black" stroke-width="5.5" stroke-linecap="square" stroke-linejoin="round"/>
<path d="M55.4249 514.398L13.6185 409.575C13.0996 407.549 13.0595 405.433 13.5015 403.388C13.9434 401.344 14.8558 399.425 16.1692 397.777C17.4826 396.129 19.1626 394.796 21.0817 393.878C23.0007 392.96 25.1085 392.481 27.2448 392.479H193.412C197.143 392.479 200.766 393.708 203.696 395.966C206.626 398.225 208.694 401.383 209.566 404.93L255.364 509.708C255.86 511.731 255.882 513.837 255.427 515.87C254.971 517.901 254.05 519.806 252.733 521.44C251.417 523.074 249.739 524.394 247.825 525.303C245.912 526.211 243.812 526.683 241.686 526.683H71.5465C67.844 526.685 64.2467 525.477 61.3261 523.251C58.4056 521.025 56.329 517.91 55.4249 514.398Z" fill="url(#paint6_linear_183_875)"/>
<path d="M181.408 411.752C179.207 408.513 175.608 407.076 173.361 408.558C171.114 410.04 171.081 413.829 173.282 417.068C173.629 417.561 174.018 418.025 174.445 418.454L158.114 452.168C155.501 450.469 152.647 450.047 150.596 451.389C149.933 451.86 149.385 452.467 148.989 453.168C148.592 453.87 148.358 454.646 148.303 455.446L137.146 451.759L127.393 448.565L124.205 447.543C123.806 446.372 123.25 445.257 122.553 444.227C119.457 439.678 114.401 437.659 111.245 439.71C108.09 441.761 108.058 447.006 111.069 451.523L92.511 476.331C88.461 473.079 83.6859 472.076 80.3806 474.223C75.8864 477.155 75.808 484.79 80.2304 491.281C80.4067 491.537 80.6092 491.754 80.7921 491.997L68.4004 508.557L68.2894 508.716C67.9406 509.177 67.6904 509.702 67.5558 510.26C67.4206 510.818 67.403 511.396 67.5042 511.961C67.6055 512.525 67.823 513.064 68.1437 513.544C68.4645 514.023 68.8812 514.434 69.3698 514.751C69.8578 515.068 70.4072 515.285 70.984 515.387C71.5601 515.49 72.1519 515.476 72.7235 515.349C73.2944 515.22 73.8333 514.979 74.3063 514.641C74.7792 514.303 75.177 513.874 75.4749 513.38L86.4948 497.159C89.9699 499.133 93.6803 499.51 96.3781 497.747C100.676 494.948 100.879 487.869 97.0313 481.583L114.832 455.305C117.445 457.049 120.358 457.497 122.435 456.149C123.597 455.348 124.388 454.131 124.637 452.762L125.943 453.127L135.866 455.778L148.564 459.126C148.95 460.613 149.59 462.026 150.459 463.304C153.548 467.847 158.611 469.872 161.766 467.821C164.921 465.77 164.96 460.423 161.87 455.88C161.414 455.22 160.903 454.599 160.342 454.021L175.882 419.655C177.757 420.933 179.801 421.221 181.31 420.256C183.59 418.831 183.623 414.998 181.408 411.752Z" fill="white"/>
<path d="M63.1709 413.613H39.0996C37.9924 413.618 36.908 413.305 35.9798 412.715C35.0509 412.125 34.3193 411.282 33.8738 410.291C33.7366 409.987 33.6634 409.658 33.6582 409.326C33.6654 408.684 33.9299 408.071 34.3957 407.619C34.8621 407.167 35.4912 406.912 36.147 406.911H61.7469C60.558 408.898 61.2112 411.658 63.1709 413.613Z" fill="#D7E8F0"/>
<path d="M78.7587 411.198C78.7555 411.839 78.4929 412.452 78.0297 412.905C77.566 413.357 76.9382 413.611 76.283 413.613H63.1728C61.1739 411.658 60.5599 408.898 61.7684 406.911H73.3304C74.4357 406.905 75.5188 407.215 76.4463 407.801C77.3746 408.388 78.1081 409.227 78.5562 410.214C78.6915 410.525 78.76 410.86 78.7587 411.198Z" fill="#3FBDF1"/>
<path d="M72.7366 413.612C72.6661 413.741 72.5877 413.864 72.5015 413.983C70.7769 416.276 67.0536 416.494 64.1598 414.424C63.8136 414.18 63.4876 413.908 63.1865 413.612C61.1876 411.657 60.5736 408.897 61.782 406.91C61.8474 406.779 61.9264 406.655 62.0172 406.54C63.7221 404.233 67.4455 404.035 70.3393 406.086C70.6907 406.333 71.0212 406.609 71.3256 406.91C73.3115 408.872 73.9255 411.606 72.7366 413.612Z" fill="white"/>
<path d="M84.8155 425.982C84.8103 426.624 84.5458 427.238 84.08 427.691C83.6136 428.143 82.9833 428.397 82.3268 428.397H57.0535C58.275 426.391 57.6675 423.657 55.6621 421.695H79.4003C80.5075 421.691 81.5919 422.003 82.5201 422.593C83.449 423.183 84.1806 424.026 84.6261 425.018C84.7541 425.323 84.8188 425.651 84.8155 425.982Z" fill="#3FBDF1"/>
<path d="M57.0528 428.418H45.1641C44.0588 428.424 42.9758 428.114 42.0482 427.528C41.12 426.941 40.3864 426.102 39.9383 425.115C39.8011 424.805 39.7279 424.473 39.7227 424.137C39.7207 423.819 39.7835 423.504 39.9069 423.21C40.0304 422.916 40.212 422.649 40.4419 422.423C40.6712 422.198 40.9442 422.02 41.2441 421.899C41.5445 421.777 41.8666 421.715 42.1919 421.716H55.6614C57.6668 423.658 58.2743 426.392 57.0528 428.418Z" fill="#D7E8F0"/>
<path d="M57.0504 428.417C56.9962 428.55 56.9237 428.674 56.8349 428.787C55.13 431.1 51.4 431.298 48.5062 429.247C48.1483 428.996 47.8099 428.718 47.4937 428.417C45.5341 426.462 44.8808 423.721 46.0893 421.715C46.1533 421.586 46.2324 421.463 46.3245 421.351C48.0425 419.051 51.7658 418.84 54.6662 420.903C55.0091 421.15 55.3325 421.421 55.6329 421.715C57.6645 423.657 58.272 426.392 57.0504 428.417Z" fill="white"/>
<path d="M65.4724 443.111H50.3437C49.2385 443.114 48.1561 442.803 47.2285 442.215C46.3009 441.627 45.5673 440.789 45.1179 439.801C44.9807 439.497 44.9076 439.169 44.9023 438.837C44.9043 438.191 45.1669 437.573 45.6333 437.117C46.0997 436.661 46.7314 436.404 47.3911 436.402H64.0353C62.8726 438.377 63.4866 441.117 65.4724 443.111Z" fill="#3FBDF1"/>
<path d="M89.9942 440.675C89.991 441.315 89.7284 441.927 89.2639 442.377C88.8001 442.828 88.1724 443.079 87.5185 443.077H65.4722C63.5125 441.116 62.8593 438.375 64.0612 436.369H84.579C85.681 436.369 86.7595 436.683 87.6825 437.273C88.6048 437.863 89.3312 438.704 89.7721 439.691C89.9139 440.001 89.9897 440.336 89.9942 440.675Z" fill="#D7E8F0"/>
<path d="M75.0158 443.11C74.9518 443.24 74.8727 443.362 74.7806 443.474C73.0757 445.787 69.3523 445.985 66.4585 443.934C66.111 443.681 65.7818 443.406 65.4722 443.11C63.5125 441.149 62.8593 438.408 64.0612 436.402C64.1298 436.275 64.2088 436.153 64.2964 436.038C66.0209 433.744 69.7443 433.54 72.6381 435.59C72.9817 435.838 73.307 436.109 73.6114 436.402C75.5841 438.331 76.2373 441.085 75.0158 443.11Z" fill="white"/>
<path d="M163.294 512.326H148.159C147.054 512.33 145.971 512.018 145.044 511.431C144.115 510.843 143.382 510.005 142.933 509.017C142.791 508.714 142.715 508.385 142.711 508.052C142.713 507.407 142.975 506.789 143.442 506.333C143.908 505.877 144.54 505.619 145.2 505.618H161.85C160.694 507.637 161.308 510.365 163.294 512.326Z" fill="#3FBDF1"/>
<path d="M223.357 509.924C223.356 510.241 223.291 510.554 223.166 510.846C223.042 511.137 222.86 511.403 222.631 511.626C222.402 511.849 222.129 512.025 221.83 512.146C221.531 512.266 221.211 512.327 220.887 512.326H163.292C161.333 510.365 160.68 507.624 161.882 505.618H217.941C219.043 505.618 220.122 505.931 221.045 506.522C221.967 507.112 222.694 507.952 223.134 508.94C223.276 509.25 223.352 509.585 223.357 509.924Z" fill="#D7E8F0"/>
<path d="M172.836 512.327C172.772 512.457 172.693 512.579 172.601 512.691C170.896 515.004 167.173 515.202 164.279 513.151C163.93 512.9 163.601 512.625 163.292 512.327C161.333 510.366 160.68 507.625 161.882 505.619C161.95 505.492 162.029 505.37 162.117 505.255C163.841 502.961 167.565 502.756 170.458 504.807C170.802 505.055 171.127 505.326 171.432 505.619C173.431 507.58 174.045 510.334 172.836 512.327Z" fill="white"/>
<defs>
<linearGradient id="paint0_linear_183_875" x1="161.802" y1="96.8337" x2="568.679" y2="540.95" gradientUnits="userSpaceOnUse">
<stop stop-color="#09F7E8"/>
<stop offset="0.479167" stop-color="#6DAAE7"/>
<stop offset="1" stop-color="#9D89E5"/>
</linearGradient>
<linearGradient id="paint1_linear_183_875" x1="260.911" y1="297.312" x2="285.994" y2="338.567" gradientUnits="userSpaceOnUse">
<stop stop-color="#09F7E8"/>
<stop offset="0.479167" stop-color="#6DAAE7"/>
<stop offset="1" stop-color="#9D89E5"/>
</linearGradient>
<linearGradient id="paint2_linear_183_875" x1="286.814" y1="183.855" x2="391.442" y2="362.149" gradientUnits="userSpaceOnUse">
<stop stop-color="#09F7E8"/>
<stop offset="0.5" stop-color="#6DAAE7"/>
<stop offset="1" stop-color="#9D89E5"/>
</linearGradient>
<linearGradient id="paint3_linear_183_875" x1="291.321" y1="240.033" x2="318.852" y2="268.182" gradientUnits="userSpaceOnUse">
<stop stop-color="#09F7E8"/>
<stop offset="0.494792" stop-color="#6DAAE7"/>
<stop offset="1" stop-color="#9D89E5"/>
</linearGradient>
<linearGradient id="paint4_linear_183_875" x1="251.901" y1="235.625" x2="279.432" y2="263.774" gradientUnits="userSpaceOnUse">
<stop stop-color="#09F7E8"/>
<stop offset="0.479167" stop-color="#6DAAE7"/>
<stop offset="1" stop-color="#9D89E5"/>
</linearGradient>
<linearGradient id="paint5_linear_183_875" x1="102.111" y1="37.3507" x2="176.996" y2="113.917" gradientUnits="userSpaceOnUse">
<stop stop-color="#09F7E8"/>
<stop offset="0.484375" stop-color="#6DAAE7"/>
<stop offset="1" stop-color="#9D89E5"/>
</linearGradient>
<linearGradient id="paint6_linear_183_875" x1="13.1357" y1="392.043" x2="252.632" y2="530.993" gradientUnits="userSpaceOnUse">
<stop stop-color="#09F7E8"/>
<stop offset="0.5" stop-color="#6DAAE7"/>
<stop offset="1" stop-color="#9D89E5"/>
</linearGradient>
</defs>
</svg>
