<svg width="461" height="461" viewBox="0 0 461 461" fill="none" xmlns="http://www.w3.org/2000/svg">
<path d="M346.627 112.331C344.71 107.011 342.575 101.728 340.238 96.5926C335.582 86.3722 334.512 76.6866 327.971 68.1396" stroke="#CCDDE2" stroke-width="7.24" stroke-miterlimit="10"/>
<path d="M312.807 58.3431C307.178 52.6175 301.914 46.4631 292.348 41.8669C272.133 32.1859 246.285 31.2039 213.291 44.8956" stroke="#CCDDE2" stroke-width="7.24" stroke-miterlimit="10"/>
<path d="M74.5821 433.561C42.6117 388.369 32.2715 337.277 37.6145 285.022" stroke="#CCDDE2" stroke-width="7.24" stroke-miterlimit="10"/>
<path d="M364.615 211.087V211.645C364.301 221.787 373.674 263.83 400.255 277.185C426.836 290.54 445.788 349.161 385.858 372.16C325.928 395.16 329.192 433.561 329.192 433.561" stroke="#CCDDE2" stroke-width="7.24" stroke-miterlimit="10"/>
<path d="M213.287 88.3037V38.6355C213.279 35.2233 211.919 31.9532 209.506 29.5404C207.094 27.1276 203.824 25.7683 200.411 25.7598H35.9265C32.5143 25.7683 29.2442 27.1276 26.8314 29.5404C24.4186 31.9532 23.0593 35.2233 23.0508 38.6355V272.178C23.0569 275.589 24.4163 278.857 26.8304 281.266C29.2445 283.675 32.5161 285.028 35.9265 285.026H200.411C202.007 285.036 203.589 284.732 205.067 284.132" stroke="black" stroke-width="7.24" stroke-linecap="round" stroke-linejoin="round"/>
<path d="M196.008 33.6289H40.3281C33.9758 33.6289 28.8262 38.7785 28.8262 45.1309V265.678C28.8262 272.03 33.9758 277.18 40.3281 277.18H196.008C202.36 277.18 207.51 272.03 207.51 265.678V45.1309C207.51 38.7785 202.36 33.6289 196.008 33.6289Z" fill="#3FBDF1"/>
<path d="M193.193 52.4746H45.1009C41.9235 52.4746 39.3477 55.0507 39.3477 58.2279V92.3235C39.3477 95.5011 41.9235 98.0767 45.1009 98.0767H193.193C196.37 98.0767 198.946 95.5011 198.946 92.3235V58.2279C198.946 55.0507 196.37 52.4746 193.193 52.4746Z" fill="#3FBDF1"/>
<path d="M118.169 71.6811C120.774 71.6811 122.885 69.5697 122.885 66.9651C122.885 64.3604 120.774 62.249 118.169 62.249C115.564 62.249 113.453 64.3604 113.453 66.9651C113.453 69.5697 115.564 71.6811 118.169 71.6811Z" fill="#D7E8F0"/>
<path d="M104.988 88.305C104.988 84.8092 106.377 81.4568 108.849 78.9854C111.32 76.5135 114.672 75.125 118.168 75.125C121.664 75.125 125.016 76.5135 127.488 78.9854C129.96 81.4568 131.348 84.8092 131.348 88.305H104.988Z" fill="#D7E8F0"/>
<path d="M55.3066 118.436H179.403" stroke="white" stroke-width="7.24" stroke-miterlimit="10"/>
<path d="M55.3066 130.646H179.403" stroke="white" stroke-width="7.24" stroke-miterlimit="10"/>
<path d="M55.3066 209.308H179.403" stroke="white" stroke-width="7.24" stroke-miterlimit="10"/>
<path d="M84.1328 220.86H150.577" stroke="white" stroke-width="7.24" stroke-miterlimit="10"/>
<path d="M68.4922 296.514C68.4922 296.514 90.5741 208.767 159.351 187.336L187.306 180.665C187.306 180.665 191.727 160.92 190.099 158.846C188.472 156.771 185.13 152.521 179.008 153.443C172.886 154.365 157.059 154.66 153.007 135.312C148.955 115.964 163.928 69.9742 202.841 63.096C241.754 56.2179 242.663 84.7907 242.663 84.7907L214.081 151.023L218.515 204.452L219.073 284.044L68.4922 296.514Z" fill="white"/>
<path d="M306.159 228.731C305.698 228.865 299.815 230.575 297.501 234.65C297.06 233.717 296.363 232.929 295.492 232.377C294.62 231.825 293.609 231.533 292.578 231.533H223.497C222.268 231.532 221.074 231.947 220.112 232.711C219.15 233.476 218.476 234.545 218.2 235.742L204.596 294.073C203.674 293.893 202.752 293.783 201.793 293.691L169.689 285.678C168.312 285.333 166.855 285.513 165.604 286.184C164.352 286.855 163.396 287.968 162.921 289.306C162.708 289.907 162.602 290.541 162.608 291.178C162.608 292.626 163.157 294.02 164.144 295.079C165.131 296.138 166.484 296.783 167.928 296.885L183.109 297.862C168.486 304.745 150.696 317.856 135.847 329.902C121.399 307.28 134.957 284.664 145.154 272.485C143.841 259.06 137.184 227.892 103.969 228.74C115.411 214.066 129.679 201.491 147.358 193.072C207.915 260.194 277.194 205.316 278.665 204.136C289.025 210.895 298.296 219.191 306.159 228.74" fill="#2E2E2E"/>
<path d="M299.867 421.28V432.879H99.8809V416.449C107.672 416.91 115.868 415.066 123.323 411.705C132.759 407.409 140.91 400.734 147.88 393.118C155.049 385.235 158.986 374.305 163.554 364.799C170.414 350.485 179.5 340.287 193.92 335.968L192.998 339.932C192.813 340.73 192.811 341.56 192.99 342.36C193.17 343.158 193.528 343.907 194.037 344.549C194.546 345.191 195.193 345.71 195.93 346.067C196.668 346.424 197.476 346.611 198.295 346.612H267.722C266.339 358.598 260.507 424.06 299.867 421.294" fill="#2E2E2E"/>
<path d="M267.755 116.232C267.699 122.433 266.891 128.605 265.348 134.612C264.645 137.46 263.134 140.044 260.998 142.055C258.862 144.065 256.192 145.417 253.307 145.948C253.192 141.762 251.412 138.088 248.697 135.806C248.945 132.262 248.909 128.704 248.591 125.166C248.411 122.829 248.13 120.648 247.835 118.689C247.659 117.574 247.405 116.472 247.074 115.393C246.147 114.397 245.056 113.569 243.847 112.945C239.574 110.538 230.778 107.98 214.481 111.741C211.82 112.351 209.317 113.511 207.133 115.148C207.085 115.179 207.041 115.216 207.004 115.259C205.533 116.614 203.662 118.329 201.725 119.219C199.72 120.141 197.627 120.178 195.871 117.997C195.825 117.951 195.802 117.91 195.76 117.864C194.838 116.66 193.958 115.098 192.33 114.789C188.9 114.143 187.232 117.555 186.798 120.422C186.42 123.073 187.199 125.41 188.338 127.637C189.292 129.447 190.538 131.087 192.026 132.491C192.408 132.861 192.758 133.261 193.073 133.69C192.93 133.715 192.789 133.754 192.653 133.805C192.338 133.911 192.03 134.037 191.731 134.183C187.582 136.05 184.627 140.729 184.562 146.206C184.562 146.376 177.606 146.275 176.725 146.206C173.332 145.892 169.99 144.915 167.602 142.356C160.826 135.096 160.858 124.322 163.642 115.895C166.279 107.897 169.635 100.087 174.033 92.8912C183.562 77.3186 198.346 65.8305 217.063 64.7979C221.552 64.5724 226.051 64.8352 230.483 65.5816C232.58 65.9121 234.654 66.374 236.692 66.9646C255.773 75.2902 267.884 94.1636 267.773 116.232" fill="#2E2E2E"/>
<path d="M256.703 293.764C254.449 299.549 249.083 302.859 244.717 301.14C240.351 299.42 238.637 293.372 240.886 287.586C243.136 281.801 248.507 278.486 252.872 280.21C257.238 281.934 258.957 287.983 256.703 293.768" fill="#3FBDF1"/>
<path d="M268.303 345.432C268.303 345.432 256.058 430.786 305.035 421.326C353.744 411.908 372.18 213.747 231.188 185.248" stroke="black" stroke-width="7.24" stroke-miterlimit="10"/>
<path d="M153.632 263.26C153.632 263.26 114.115 296.586 135.409 329.916" stroke="black" stroke-width="7.24" stroke-miterlimit="10"/>
<path d="M269.193 321.724C268.515 321.766 267.547 321.314 266.888 321.134C266.052 320.913 265.224 320.676 264.403 320.424C259.589 318.926 255.059 316.632 251.002 313.639C250.08 312.979 248.439 312.555 247.314 312.988C246.688 313.218 246.135 313.612 245.713 314.129C245.291 314.645 245.016 315.265 244.917 315.925C244.571 318.304 246.249 320.632 248.079 322.158C250.25 323.974 252.505 325.648 255.137 326.736C257.678 327.755 260.299 328.562 262.974 329.147C264.186 329.428 265.417 329.608 266.62 329.916" stroke="black" stroke-width="7.24" stroke-miterlimit="10"/>
<path d="M284.359 298.631C284.857 301.259 285.221 303.988 284.972 306.657C284.765 308.916 283.954 311.553 281.441 312.101C280.963 312.228 280.468 312.273 279.975 312.235C270.515 311.677 262.72 308.409 253.818 301.973C244.916 295.538 241.781 310.359 249.913 312.986" stroke="black" stroke-width="7.24" stroke-miterlimit="10"/>
<path d="M250.254 323.945C250.036 323.765 249.828 323.573 249.632 323.369C245.202 318.736 244.399 328.043 249.051 330.782L249.65 331.137C249.964 331.27 250.3 331.427 250.632 331.598C250.789 331.639 250.964 331.708 251.125 331.754M251.125 331.754C255.33 333.598 259.806 334.779 264.213 335.982C259.852 334.557 255.505 333.156 251.125 331.754ZM251.125 331.754C250.747 331.598 250.388 331.441 250.01 331.261C249.894 331.213 249.773 331.176 249.65 331.151C249.572 331.115 249.486 331.1 249.4 331.109C249.314 331.116 249.232 331.147 249.162 331.197C249.056 331.283 248.979 331.399 248.94 331.529C248.226 333.243 248.807 335.406 249.719 336.941C250.678 338.563 252.324 339.813 253.947 340.702C258.312 343.15 263.388 344.598 268.288 345.465C269.197 345.653 270.129 345.714 271.054 345.644" stroke="black" stroke-width="7.24" stroke-miterlimit="10"/>
<path d="M310.585 356.205C310.585 356.205 295.561 330.601 293.888 308.339C292.865 294.56 288.817 291.642 285.922 291.443" stroke="black" stroke-width="7.24" stroke-miterlimit="10"/>
<path d="M281.441 312.097L284.364 298.631L285.922 291.44L297.475 238.121C297.646 237.327 297.637 236.505 297.45 235.714C297.262 234.924 296.9 234.186 296.389 233.554C295.88 232.922 295.235 232.412 294.502 232.061C293.769 231.711 292.967 231.529 292.155 231.528H223.069C221.841 231.527 220.648 231.943 219.686 232.708C218.723 233.472 218.049 234.54 217.772 235.737L204.168 294.072L194.238 336.636L193.316 340.624C193.133 341.422 193.131 342.251 193.313 343.05C193.493 343.849 193.852 344.596 194.361 345.238C194.87 345.879 195.517 346.397 196.254 346.754C196.991 347.111 197.799 347.297 198.618 347.299H268.04" stroke="black" stroke-width="7.24" stroke-miterlimit="10"/>
<path d="M195.787 116.463C195.787 116.463 199.443 100.96 220.086 98.9035C240.73 96.8475 245.902 112.273 245.902 112.273L245.252 113.826C245.252 113.826 218.113 102.937 203.126 118.478C203.126 118.478 197.728 120.925 195.787 116.472" fill="#3FBDF1"/>
<path d="M201.356 293.689L169.247 285.668C168.482 285.478 167.685 285.45 166.907 285.585C166.13 285.72 165.389 286.015 164.732 286.451C164.075 286.888 163.516 287.457 163.09 288.121C162.664 288.785 162.382 289.531 162.26 290.31C162.138 291.09 162.179 291.886 162.382 292.649C162.584 293.411 162.943 294.124 163.435 294.74C163.928 295.356 164.543 295.864 165.242 296.23C165.941 296.596 166.709 296.812 167.496 296.865L182.676 297.866" stroke="black" stroke-width="7.24" stroke-miterlimit="10"/>
<path d="M278.251 204.114C278.251 204.114 208.119 260.927 146.926 193.072" stroke="black" stroke-width="7.24" stroke-miterlimit="10"/>
<path d="M144.726 272.474C143.413 259.05 136.76 227.859 103.518 228.73" stroke="black" stroke-width="7.24" stroke-miterlimit="10"/>
<path d="M305.741 228.721C305.741 228.721 299.476 230.445 297.074 234.658" stroke="black" stroke-width="7.24" stroke-miterlimit="10"/>
<path d="M51.2266 433.57H348.991" stroke="black" stroke-width="7.24" stroke-miterlimit="10"/>
<path d="M248.697 135.824C251.504 138.185 253.307 142.039 253.307 146.4C253.307 153.637 248.277 159.492 242.063 159.492C241.36 159.488 240.66 159.406 239.975 159.248C247.212 153.716 248.678 135.824 248.678 135.824" fill="#3FBDF1"/>
<path d="M207.755 165.04C211.244 166.776 215.062 167.751 218.956 167.902C222.85 168.052 226.732 167.373 230.344 165.911C250.711 157.406 249.932 132.336 247.816 118.709C247.648 117.604 247.407 116.51 247.097 115.436V115.413C244.76 107.622 238.661 101.274 230.626 99.4716C215.062 95.9542 200.831 104.778 194.926 116.658" stroke="black" stroke-width="7.24" stroke-miterlimit="10"/>
<path d="M247.289 115.679C247.289 115.679 247.224 115.587 247.091 115.435V115.412C245.708 113.853 237.7 106.417 214.521 111.76C211.862 112.369 209.359 113.529 207.177 115.167C207.126 115.197 207.079 115.234 207.039 115.278" stroke="black" stroke-width="7.24" stroke-miterlimit="10"/>
<path d="M185.506 153.444H174.041C165.766 153.444 159.206 145.866 156.352 138.752C152.342 128.749 154.91 118.51 158.519 108.787C161.543 100.651 165.388 92.7445 170.445 85.6681C181.767 69.8328 198.861 60.8617 218.509 62.5213C220.252 62.6689 221.986 62.8837 223.714 63.1667C250.097 67.4448 267.887 89.5037 267.753 116.219C267.698 122.425 266.89 128.601 265.347 134.613C264.637 137.458 263.125 140.04 260.989 142.05C258.853 144.06 256.184 145.413 253.301 145.949" stroke="black" stroke-width="7.24" stroke-miterlimit="10"/>
<path d="M193.082 133.69C192.766 133.261 192.416 132.859 192.035 132.487C190.546 131.085 189.3 129.447 188.347 127.637C187.208 125.411 186.429 123.073 186.807 120.423C187.231 117.574 188.9 114.144 192.339 114.789C193.967 115.103 194.833 116.661 195.769 117.864C199.328 122.474 204.229 117.841 207.234 115.056" stroke="black" stroke-width="7.24" stroke-miterlimit="10"/>
<path d="M248.697 135.824C251.504 138.185 253.307 142.039 253.307 146.4C253.307 153.637 248.277 159.492 242.063 159.492C241.36 159.488 240.66 159.406 239.975 159.248" stroke="black" stroke-width="7.24" stroke-miterlimit="10"/>
<path d="M224.637 144.709C227.154 146.4 233.234 147.788 232.013 142.772C230.547 136.83 228.574 124.134 240.656 123.166C240.656 123.166 245.976 123.392 248.604 125.199" stroke="black" stroke-width="7.24" stroke-miterlimit="10"/>
<path d="M229.186 154.642C229.186 154.642 223.101 157.869 220.086 151.438" stroke="black" stroke-width="7.24" stroke-miterlimit="10"/>
<path d="M216.846 131.846C216.611 133.888 217.408 135.654 218.63 135.797C219.851 135.94 221.032 134.414 221.271 132.358C221.511 130.302 220.704 128.555 219.487 128.412C218.27 128.269 217.081 129.795 216.846 131.846Z" fill="black"/>
<path d="M236.658 133.05C236.423 135.087 237.221 136.857 238.442 137C239.664 137.143 240.844 135.617 241.079 133.561C241.314 131.505 240.517 129.753 239.3 129.615C238.083 129.477 236.893 130.998 236.658 133.05Z" fill="black"/>
<path d="M224.636 124.471C224.636 124.471 220.912 118.727 212.471 124.176" stroke="black" stroke-width="7.24" stroke-miterlimit="10"/>
<path d="M231.182 165.531V197.396" stroke="black" stroke-width="7.24" stroke-miterlimit="10"/>
<path d="M105.209 356.206C105.209 356.206 118.343 343.759 135.4 329.929C150.249 317.883 168.057 304.749 182.685 297.871C184.556 296.999 186.373 296.22 188.138 295.566C192.351 293.96 196.873 293.329 201.364 293.722C202.305 293.799 203.24 293.925 204.167 294.1" stroke="black" stroke-width="7.24" stroke-miterlimit="10"/>
<path d="M194.239 336.636C179.814 340.956 170.728 351.153 163.873 365.467C159.313 374.973 155.367 385.903 148.199 393.786C141.233 401.397 133.082 408.077 123.646 412.374C106.524 420.165 85.4426 419.565 74.3187 402.624C66.7952 391.136 63.8355 376.863 62.3327 363.439C59.7511 340.108 67.9016 274.341 103.518 228.725C114.96 214.052 129.233 201.476 146.908 193.058C159.313 187.166 173.337 183.312 189.232 182.22L193.685 159.248" stroke="black" stroke-width="7.24" stroke-miterlimit="10"/>
<path d="M300.186 422.055V433.57" stroke="black" stroke-width="7.24" stroke-miterlimit="10"/>
<path d="M100.199 417.943V433.571" stroke="black" stroke-width="7.24" stroke-miterlimit="10"/>
<path d="M207.017 146.401C207.061 149.857 205.834 153.209 203.569 155.819C202.299 156.407 200.916 156.71 199.516 156.709C193.307 156.709 188.273 150.854 188.273 143.617C188.228 140.161 189.457 136.81 191.726 134.203C192.995 133.612 194.378 133.307 195.778 133.309C201.987 133.309 207.017 139.168 207.017 146.401Z" fill="#3FBDF1"/>
<path d="M195.787 159.493C201.989 159.493 207.017 153.632 207.017 146.401C207.017 139.17 201.989 133.309 195.787 133.309C189.584 133.309 184.557 139.17 184.557 146.401C184.557 153.632 189.584 159.493 195.787 159.493Z" stroke="black" stroke-width="7.24" stroke-miterlimit="10"/>
<path d="M281.211 191.172C286.356 199.931 286.12 206.169 284.784 216.278C284.249 220.128 288.393 222.732 291.754 220.796C321.447 203.739 349.162 217.228 384.567 208.865C397.567 205.814 413.776 199.489 424.886 189.319C428.573 183.845 430.542 177.396 430.542 170.796C430.542 143.136 392.74 120.681 346.12 120.681C316.242 120.681 289.993 129.901 274.987 143.791C274.987 143.791 274.987 143.791 274.946 143.832C271.138 149.535 269.045 155.767 269.045 162.272C269.022 172.197 276.403 182.957 281.211 191.172Z" fill="#D7E8F0"/>
<path d="M269.156 162.272C269.156 162.502 269.156 162.733 269.156 162.973C269.322 172.654 274.181 181.675 279.934 189.48C283.788 194.699 288.362 200.498 287.278 206.897C286.817 209.718 285.227 212.277 284.83 215.107C284.434 217.938 285.941 221.469 288.799 221.616C290.616 221.709 292.16 220.418 293.598 219.311C302.104 212.719 313.159 210.253 323.909 209.819C334.66 209.386 345.396 210.806 356.152 211.11C371.66 211.571 387.412 209.617 401.735 203.67C414.569 198.35 426.33 189.618 434.051 177.955C441.639 166.504 437.154 149.876 429.059 139.918C421.471 130.574 410.476 124.594 399.2 120.381C368.871 109.059 334.254 109.317 304.344 121.722C295.466 125.41 286.877 130.205 280.22 137.143C273.734 143.901 269.225 152.909 269.156 162.272Z" stroke="black" stroke-width="7.24" stroke-miterlimit="10"/>
<path d="M393.598 173.289C400.029 173.289 405.243 168.075 405.243 161.644C405.243 155.212 400.029 149.999 393.598 149.999C387.167 149.999 381.953 155.212 381.953 161.644C381.953 168.075 387.167 173.289 393.598 173.289Z" fill="white"/>
<path d="M355.934 173.289C362.365 173.289 367.579 168.075 367.579 161.644C367.579 155.212 362.365 149.999 355.934 149.999C349.503 149.999 344.289 155.212 344.289 161.644C344.289 168.075 349.503 173.289 355.934 173.289Z" fill="white"/>
<path d="M317.537 173.289C323.969 173.289 329.182 168.075 329.182 161.644C329.182 155.212 323.969 149.999 317.537 149.999C311.106 149.999 305.893 155.212 305.893 161.644C305.893 168.075 311.106 173.289 317.537 173.289Z" fill="white"/>
</svg>
