<svg width="376" height="580" viewBox="0 0 376 580" fill="none" xmlns="http://www.w3.org/2000/svg">
<path fill-rule="evenodd" clip-rule="evenodd" d="M349.925 372.831C348.346 368.496 350.65 364.171 351.929 359.977C356.47 345.435 361.43 330.891 368.444 317.329C371.102 312.79 366.73 307.227 361.666 308.506C352.992 309.721 344.05 308.753 335.362 308.216C332.185 299.994 323.704 296.582 317.03 291.846C309.457 287.119 302.091 281.686 294.214 277.542C293.777 273.623 289.029 272.653 286.125 275.454C278.151 270.492 268.588 271.415 260.04 268.162C253.545 257.66 253.057 246.616 251.338 236.485C250.587 232.067 251.383 227.806 248.368 223.869C238.233 209.61 198.191 203.426 183.425 211.876C175.479 206.919 175.287 215.899 174.027 221.441C172.621 224.214 171.863 227.354 172.098 230.662C163.563 248.499 144.033 256.561 126.542 263.095C124.348 260.981 121.212 261.25 119.124 262.998C103.964 266.293 89.2508 272.09 76.5492 281.139C62.1185 285.362 51.9555 297.103 44.6065 309.692C43.7969 311.019 43.606 312.372 43.8425 313.615C21.2437 346.755 10.458 386.428 8.94299 426.496C-5.58964 435.222 15.8503 513.604 20.8414 529.876C20.8464 529.874 20.8514 529.872 20.8564 529.869C24.0943 535.604 27.7708 551.969 35.8743 550.702C41.433 556.991 50.2914 555.755 57.8347 556.237C56.606 560.952 57.2099 566.347 58.6721 571.005C60.4014 576.55 68.8886 576.737 70.0922 570.691C145.212 585.292 222.286 573.644 298.249 575.834C320.214 575.991 342.174 576.671 364.086 578.235C367.17 578.456 370.299 575.301 370.087 572.229C365.377 522.092 360.955 456.136 355.686 406.491C354.438 395.169 353.448 383.723 349.925 372.831Z" fill="white"/>
<path fill-rule="evenodd" clip-rule="evenodd" d="M175.263 214.97C175.479 214.381 176.357 214.459 176.373 215.12C176.721 229.217 173.211 246.443 161.936 255.966C156.147 260.854 148.496 263.091 141.467 265.662L140.675 265.954L128.258 270.581C124.965 271.808 121.412 273.696 118.504 271.962C120.858 277.802 122.834 283.801 125.7 289.429C129.269 296.435 133.583 302.843 138.864 308.673C159.782 331.77 192.891 338.815 222.602 332.048C237.902 328.562 252.788 321.957 263.226 309.912C271.158 300.756 275.716 288.468 276.791 276.347C276.477 276.397 276.146 276.394 275.809 276.321C272.05 275.5 268.255 273.484 264.948 271.508L264.629 271.318C261.445 269.399 258.129 267.205 255.844 264.226C253.575 261.268 251.195 251.622 251.195 251.622C250.546 247.996 249.938 240.772 250.042 237.109C250.052 236.764 251.585 236.559 251.749 236.918C253.167 240.028 253.625 246.866 254.719 250.102L254.938 250.749C256.108 254.132 257.109 258.248 259.529 260.982C264.078 266.116 270.937 268.289 277.059 270.862C277.499 265.06 286.763 265.196 286.644 271.247C286.637 271.575 286.622 271.903 286.61 272.229C287.343 272.631 288.044 273.089 288.7 273.534L289.342 273.969C291.768 275.619 294.212 277.188 296.794 278.586C301.792 281.299 307.087 283.449 312.208 285.907C317.391 288.399 322.237 291.364 326.764 294.916C328.89 296.583 330.927 298.357 332.86 300.244L333.384 300.763C335.224 302.596 337.618 304.645 338.667 307.054C338.897 307.584 340.055 308.821 340.683 308.861C350.417 309.501 360.13 310.402 369.799 311.752C372.306 312.102 373.295 313.393 372.37 315.48C369.188 322.656 356.737 351.312 353.425 359.001C353.812 364.65 353.289 371.3 353.639 376.952C354.147 385.198 354.816 393.441 355.614 401.663C358.48 431.079 362.819 460.353 366.742 489.64C368.703 504.296 370.494 518.976 372.26 533.658C373.152 541.078 373.91 548.504 374.493 555.955C374.735 559.061 374.957 562.168 375.149 565.276L375.318 568.034C375.549 571.503 376.079 574.815 373.932 577.794C372.959 579.145 370.736 579.905 369.457 578.369C367.85 576.441 367.251 575 367.098 572.466C366.98 570.526 366.951 568.578 366.863 566.636C366.673 562.427 366.433 558.219 366.152 554.015C365.591 545.61 364.949 537.208 364.207 528.815C361.608 499.391 356.665 470.189 353.377 440.837C351.72 426.041 350.541 411.216 349.918 396.337C349.606 388.907 349.492 381.477 349.566 374.042C349.594 371.262 349.725 368.497 349.915 365.739C344.989 376.935 339.81 388.025 334.394 398.964L333.112 401.556C329.679 408.472 326.155 415.413 322.033 421.932L321.322 423.045C319.653 425.694 317.37 429.869 314.322 430.703C312.201 431.286 309.607 430.877 307.431 430.834C305.27 430.794 303.109 430.784 300.95 430.696C298.53 430.599 296.221 430.28 293.881 429.65C293.491 429.546 293.125 429.431 292.79 429.286C290.434 433.145 286.427 436.084 282.333 437.796C279.054 439.168 275.616 440.107 272.173 440.977L270.958 441.284C267.268 442.202 263.046 442.639 260.963 446.206L260.48 447.033C258.932 449.663 257.449 451.974 254.886 453.859C252.13 455.89 248.863 457.167 245.608 458.16C242.277 459.178 238.867 459.956 235.484 460.79L234.561 461.021C232.329 461.58 230.075 462.093 227.854 462.699C226.908 462.961 225.945 463.227 225.015 463.546C223.926 463.921 223.137 464.504 222.279 465.139C221.506 467.835 218.208 469.3 215.498 469.112C214.073 469.014 212.797 468.532 211.634 467.823C209.603 469.549 207.371 471.097 205.302 472.697C202.406 474.94 199.498 477.165 196.576 479.369C190.549 483.915 184.474 488.399 178.337 492.796C167.445 500.601 156.316 508.048 144.998 515.219C140.278 518.208 135.527 521.194 130.73 524.107L131.242 524.297L132.257 524.68C134.658 525.576 137.332 527.027 137.798 529.827C138.166 532.05 136.926 533.582 134.733 533.853C132.126 534.174 130.098 532.333 128.475 530.574C127.758 529.799 126.957 529.078 126.27 528.28C125.991 527.954 125.776 527.578 125.586 527.183C120.852 529.975 116.067 532.671 111.206 535.194L109.989 535.821C97.9347 541.987 86.202 548.742 74.0453 554.733C70.8742 556.298 67.0079 557.988 62.9778 559.141C64.0473 563.288 64.0307 567.841 64.0578 572.05C64.0834 576.151 57.5677 576.132 57.7054 572.05L57.7718 570.079C57.8904 566.762 58.0842 563.321 58.8702 560.097C46.9963 562.066 35.1342 557.786 32.9256 556.5C30.4878 555.08 28.2752 552.812 26.4334 550.708C22.493 546.2 19.7582 540.8 17.3321 535.367C12.135 523.731 8.45299 511.291 5.76102 498.851C-4.16326 452.989 0.105564 403.903 16.2224 359.94C20.249 348.955 25.0031 338.213 30.4507 327.861L31.1272 326.579C36.5632 316.341 42.605 306.141 50.2796 297.429C58.2737 288.354 68.1347 281.297 78.8712 275.819C84.1108 273.144 89.5021 270.828 95.0128 268.774C95.8978 268.443 96.7889 268.149 97.6819 267.866C103.424 264.204 110.394 260.699 117.366 260.837C117.839 260.847 118.223 261.025 118.509 261.296C118.845 261.356 119.181 261.427 119.518 261.525C120.261 261.741 121.045 262.556 120.939 263.393L120.903 263.672C120.883 263.807 120.858 263.938 120.816 264.066C121.065 264.104 121.31 264.164 121.549 264.245C128.219 262.359 134.782 259.477 141.291 257.154L142.773 256.629C148.224 254.72 153.819 252.846 158.291 249.063C162.74 245.299 166.085 240.425 168.503 235.156C171.483 228.665 172.816 221.635 175.263 214.97ZM308.811 557.344C310.13 556.362 311.692 557.501 312.187 558.718C313.808 562.71 313.007 568.914 310.72 572.444C308.352 576.101 302.679 574.658 302.541 570.228C302.398 565.609 305.082 560.121 308.811 557.344ZM322.453 447.097C322.57 446.579 323.376 446.584 323.497 447.097C324.596 451.784 324.572 456.829 324.893 461.632L324.931 462.164C325.319 467.462 325.644 472.773 325.877 478.078C326.331 488.518 326.876 498.958 327.487 509.392C327.789 514.563 328.115 519.737 328.459 524.906C329.544 524.302 330.661 523.772 331.819 523.303C333.552 522.602 335.24 522.521 337.104 522.54C339.373 522.564 341.08 524.561 340.78 526.784C340.452 529.204 338.322 530.243 336.108 529.899C333.657 529.514 331.196 528.919 328.721 528.672C328.997 532.671 329.282 536.668 329.582 540.662C329.983 545.953 330.504 551.233 330.873 556.526C330.906 557.03 330.944 557.534 330.984 558.043C332.459 557.275 334.025 556.88 335.802 556.398L336.265 556.267C338.843 555.527 341.603 554.503 343.99 556.236C345.593 557.403 345.914 559.322 344.585 560.86C342.571 563.195 339.589 562.743 336.805 562.622L335.307 562.568C333.895 562.513 332.594 562.423 331.289 562.066C331.529 565.513 331.655 568.973 331.232 572.371C331.003 574.206 328.588 574.686 327.948 572.813C326.279 567.92 325.932 562.641 325.321 557.515C324.75 552.729 324.403 547.905 324.03 543.097L323.916 541.654C323.076 531.076 322.404 520.488 321.911 509.888C321.419 499.287 321.124 488.689 321.008 478.078C320.953 473.261 321.034 468.425 321.222 463.608L321.281 462.164C321.5 457.209 321.348 451.952 322.453 447.097ZM101.722 558.124C101.786 557.448 102.328 556.607 103.134 556.711C103.877 556.809 104.643 556.761 105.378 556.885C106.347 557.044 107.128 557.62 108.03 557.979C109.497 558.566 111.095 558.868 112.6 559.348C115.422 560.249 116.96 563.221 115.791 565.999C114.562 568.916 111.473 569.579 108.804 568.355C106.701 567.389 105.133 565.846 103.718 564.061L103.317 563.552C102.708 562.784 102.016 561.928 101.76 561.001C101.512 560.095 101.634 559.046 101.722 558.124ZM238.853 544.407C242.37 543.91 245.373 545.113 248.625 546.247L248.889 546.338C252.199 547.481 257.03 548.273 258.728 551.664C259.75 553.706 258.956 556.421 256.548 557.028C252.731 557.983 249.31 555.194 246.155 553.316L245.991 553.219C242.945 551.433 239.802 549.933 237.857 546.856C237.339 546.036 237.788 544.557 238.853 544.407ZM116.127 264.711C114.718 265.024 113.31 265.305 111.903 265.571C106.551 268.441 101.356 271.42 95.8297 273.976C89.9667 276.689 84.1253 279.492 78.5562 282.774C67.3047 289.405 58.0293 298.026 50.3649 308.592C37.1257 326.848 27.2778 347.897 20.2297 369.258C18.4189 374.746 16.7985 380.295 15.3648 385.89C17.8996 383.545 20.9004 382.102 24.2655 380.868C25.6914 380.345 27.4668 381.232 28.1896 382.466C28.5146 383.02 28.6979 383.569 28.6642 384.22C28.5893 385.657 27.6551 387.288 26.1129 387.573C22.5179 388.236 19.0221 389.525 15.5557 390.662C15.0303 390.833 14.5788 390.768 14.2181 390.566C10.7767 405.148 8.62371 420.03 7.8612 435.002C7.21614 447.677 7.61393 460.453 9.01745 473.111C10.0959 472.626 11.1509 472.172 12.3333 471.896C13.8669 471.539 15.3753 471.104 16.8713 470.615C21.1881 469.197 23.1573 476.328 18.7449 477.415C17.1029 477.819 15.4506 478.154 13.7775 478.401C12.3193 478.615 11.0294 478.52 9.65442 478.297C10.7049 486.193 12.1395 494.032 13.9668 501.762L14.37 503.452C16.7438 513.322 19.5105 523.284 23.5113 532.614C25.4741 537.189 28.0724 541.535 31.2808 545.349C32.8571 547.225 34.6066 548.834 36.5144 550.358C38.1027 551.626 43.5018 554.377 49.8963 554.377C56.2905 554.377 58.0216 553.773 61.2476 552.662C67.6276 550.465 73.6851 546.958 79.6684 543.834L80.2871 543.513C82.9327 542.144 85.5686 540.753 88.197 539.352C87.8651 536.67 88.4462 534.419 89.8426 531.944C91.3522 529.264 95.0922 530.598 95.3704 533.339L95.3792 533.444C95.4215 534.06 95.5249 534.69 95.6536 535.317C113.23 525.686 130.434 515.378 147.366 504.639C158.27 497.722 169.06 490.596 179.693 483.264C185.009 479.597 190.278 475.864 195.494 472.06C198.226 470.068 200.946 468.059 203.654 466.03C204.781 465.186 205.887 464.3 207.016 463.451C206.743 463.108 206.474 462.766 206.215 462.426C201.995 456.898 199.258 450.309 197.893 443.512C197.068 439.41 196.671 435.152 196.55 430.97L196.498 429.151C196.415 426.088 196.391 422.881 196.957 419.914C196.189 420.335 195.404 420.751 194.622 421.193C191.814 422.784 189.006 424.369 186.193 425.951C180.558 429.11 174.909 432.237 169.186 435.235C158.964 440.592 148.643 445.687 138.042 450.255L132.884 452.478C123.932 456.332 114.907 460.112 105.6 462.978C100.35 464.592 95.0608 465.971 89.7356 467.203L91.889 469.728C93.3494 471.437 93.3751 473.893 91.5089 475.334C89.6745 476.749 87.2129 476.159 85.9908 474.279L83.7632 470.852C83.287 470.118 83.0166 469.433 82.8635 468.71C80.4105 469.224 77.951 469.716 75.4852 470.191L70.8231 471.083C64.1664 472.367 57.7121 474.913 51.762 478.171C49.6935 479.302 49.1171 477.103 51.3088 475.57C57.7171 471.088 65.1921 468.553 72.9047 466.423L73.2837 466.321C76.1134 465.545 78.9378 464.737 81.7562 463.9C81.4464 462.778 81.2676 461.613 81.3033 460.331C81.3827 457.471 81.6352 454.603 81.7869 451.746C82.1055 445.749 82.5118 439.772 82.9881 433.787C83.1709 431.483 83.3759 429.17 83.6103 426.861C82.0991 426.05 80.7954 424.973 79.1104 424.443L78.8258 424.362C77.0235 423.875 77.6317 421.552 79.2326 421.352C80.683 421.174 82.126 421.257 83.5556 421.564C83.7772 421.611 83.9867 421.666 84.1867 421.725C84.4492 419.586 84.7407 417.453 85.0716 415.33C85.9471 409.723 86.5664 403.815 88.3889 398.427C88.524 398.03 89.1162 397.887 89.3359 398.303C91.987 403.349 92.0793 409.54 92.3781 415.158L92.415 415.829C92.7671 421.958 92.7873 428.147 92.6737 434.287C92.5572 440.611 92.3408 446.921 92.0569 453.241C91.9428 455.788 91.9473 458.427 91.5138 460.861C107.291 455.73 122.789 449.589 137.644 442.316C148.122 437.187 158.51 431.852 168.782 426.317C173.927 423.544 179.096 420.817 184.236 418.033C186.039 417.058 187.838 416.079 189.636 415.099L192.335 413.627C194.86 412.248 196.966 410.876 199.907 410.781C200.782 410.753 201.569 411.162 202.128 411.785C203.707 410.662 205.535 409.975 207.452 409.992C210.336 406.004 213.265 402.05 216.313 398.182L218.562 395.317C222.457 390.376 226.582 385.359 231.549 381.598C233.767 379.922 236.204 378.662 238.749 377.623C238.149 377.475 237.564 377.18 237.041 376.698C234.614 374.444 234.279 370.259 233.786 367.116C233.273 363.856 233.47 360.939 233.977 357.688C234.174 356.426 236.264 356.164 236.775 357.325C237.85 359.769 238.989 362.113 239.966 364.586L240.256 365.332C241.307 368.117 243.544 371.044 243.394 374.063C243.356 374.893 243.078 375.613 242.65 376.194C244.785 375.485 246.949 374.853 249.082 374.192C255.791 372.118 262.525 370.102 269.365 368.495C271.184 368.067 273.015 367.667 274.851 367.304C275.814 362.734 277.216 358.247 278.869 353.841C277.304 353.038 276.291 351.692 274.943 350.496C273.681 349.376 272.813 348.011 271.736 346.725C270.756 345.555 271.308 343.439 273.07 343.508L273.567 343.529C275.393 343.615 277.159 343.803 278.814 344.654L279.404 344.958C280.212 345.379 281.097 345.86 281.884 346.428C282.916 344.057 283.986 341.708 285.07 339.383L286.473 336.378C290.117 328.55 293.751 320.428 298.323 313.141C300.356 309.902 303.064 307.879 306.946 307.568C310.946 307.244 315.104 307.66 319.108 307.803C323.752 307.969 328.393 308.167 333.032 308.412C331.843 307.166 330.759 305.78 329.565 304.584C327.582 302.601 325.487 300.72 323.286 298.984C318.93 295.546 314.139 292.714 309.165 290.275C304.188 287.836 299.065 285.708 294.393 282.693C291.437 280.786 288.796 278.387 286.385 275.79C284.868 292.165 276.962 307.382 265.086 318.814C252.75 330.685 235.705 337.207 219.031 339.982C202.021 342.811 184.27 341.772 167.999 335.859C159.611 332.809 151.565 328.453 144.389 322.987C144.311 323.462 144.216 323.933 144.028 324.375C143.778 324.967 143.474 325.474 143.122 325.994L142.497 326.91C142.102 327.485 141.7 328.056 141.253 328.588C140.168 329.882 138.631 330.448 136.976 330.441C133.807 330.431 131.407 327.321 132.26 324.247C132.795 322.316 133.942 321.153 135.733 320.395C136.298 320.157 136.875 319.958 137.455 319.76L137.891 319.613C138.477 319.411 139.058 319.22 139.662 319.109C136.264 316.108 133.111 312.846 130.288 309.325C121.434 298.285 112.701 282.821 115.661 268.158C115.712 267.909 115.939 267.749 116.183 267.709C116.355 266.679 116.902 265.685 117.652 265.015C117.147 264.882 116.638 264.78 116.127 264.711ZM208.072 518.227C209.824 517.25 211.636 519.568 210.212 520.999L208.084 523.13C206.108 525.115 204.187 527.122 202.497 529.383L202.088 529.937C199.805 533.042 197.373 536.639 193.635 537.8C189.113 539.205 184.766 533.693 187.384 529.668C189.674 526.152 194.077 524.825 197.874 523.37C201.467 521.993 204.713 520.093 208.072 518.227ZM62.1973 501.992C63.2275 500.644 65.9138 501.355 65.2102 503.264C62.9241 509.463 61.9923 517.918 56.2187 522.038C54.356 523.365 51.4299 522.756 49.8963 521.22C48.1539 519.478 48.084 517.024 49.0805 514.896C50.296 512.302 53.2856 510.421 55.381 508.445L55.5691 508.265C57.8236 506.075 60.2619 504.527 62.1973 501.992ZM303.504 509.13C305.344 508.336 310.137 506.795 311.557 508.619C311.623 508.685 311.68 508.759 311.726 508.84C312.073 509.446 312.125 510.3 311.726 510.899C310.071 513.388 308.347 515.245 305.993 517.017L305.729 517.214C303.168 519.097 300.76 521.311 297.64 522.159C293.313 523.339 290.291 517.918 293.33 514.756C295.779 512.204 299.514 510.882 302.759 509.46L303.504 509.13ZM129.761 473.703C129.037 472.393 130.516 470.788 131.855 471.606C135.675 473.943 140.125 475.696 144.415 476.953C146.154 477.462 147.72 479.224 147.59 481.124L147.571 481.411C147.518 482.082 147.426 482.75 147 483.306C145.504 485.263 143.367 486.017 141.084 484.859C135.997 482.279 132.514 478.68 129.761 473.703ZM241.414 469.74C241.321 469.188 241.723 468.765 242.284 468.869C245.511 469.483 248.494 471.043 251.264 472.835C252.753 473.798 254.187 474.854 255.67 475.824C257.503 477.025 258.188 478.014 258.459 480.215C258.637 481.668 257.282 482.995 256.039 483.394C252.651 484.488 248.768 480.903 246.473 478.57L246.369 478.466C243.967 476.017 241.984 473.118 241.414 469.74ZM338.379 465.933C337.642 463.945 340.179 462.295 341.836 463.272C343.398 464.193 345.093 464.953 346.565 466.007C347.92 466.977 349.154 468.123 350.453 469.174L351.095 469.68C353.475 471.597 357.405 476.33 354 479.079C350.762 481.692 346.465 478.354 344.29 475.912L344.138 475.741C342.887 474.293 341.344 472.724 340.438 471.033C339.582 469.445 339.002 467.621 338.379 465.933ZM306.426 312.038C302.367 312.827 300.712 317.837 299.005 321.104C294.97 328.812 291.261 336.663 287.538 344.523C286.389 346.939 285.274 349.376 284.147 351.808C284.078 351.999 283.99 352.186 283.886 352.372C281.577 357.344 279.199 362.282 276.422 366.999C278.964 366.524 281.52 366.117 284.085 365.798C283.957 363.383 285.609 360.149 286.427 358.114L286.496 357.943C287.516 355.334 288.586 351.228 291.211 349.875C292.086 349.426 293.023 349.99 293.09 350.955C293.289 353.822 290.484 357.108 289.112 359.543C288.282 361.017 287.476 362.496 286.687 363.992C286.392 364.553 286.144 365.102 285.842 365.596C287.164 365.451 288.489 365.325 289.818 365.233L290.683 365.173C295.607 364.847 300.836 364.755 305.284 367.185C309.412 369.436 311.523 374.246 309.255 378.626C306.431 384.083 300.211 384.805 294.74 385.248C287.906 385.797 281.059 386.793 274.275 387.763C267.256 388.769 260.649 391.356 253.737 392.687C253.093 392.811 252.693 391.969 253.283 391.61C258.735 388.289 265.364 386.463 271.46 384.601L271.955 384.449C275.262 383.433 278.493 382.273 281.915 381.695C285.234 381.137 288.577 380.685 291.924 380.34L292.25 380.309C295.938 380 305.346 380.105 304.949 374.643C304.685 371.027 298.813 370.404 296.131 370.361C283.836 370.164 271.455 373.428 259.772 376.926L257.163 377.708C252.38 379.149 247.589 380.63 242.893 382.318C237.574 384.23 233.382 387.212 229.509 391.294C225.213 395.821 221.052 400.448 216.596 404.823C213.786 407.578 210.94 410.287 208.072 412.973C207.423 413.813 206.905 414.726 206.546 415.91C205.939 417.912 206.08 419.771 206.308 421.825C206.886 427.016 207.014 432.261 207.737 437.435C208.407 442.228 209.347 447.2 211.337 451.646C212.124 453.405 213.148 455.136 214.318 456.682L215.26 457.908C215.671 458.441 216.13 459.024 216.613 459.57C217.321 458.707 218.346 458.144 219.537 458.286C222.067 458.584 224.057 458.512 226.539 457.93C228.463 457.48 230.37 456.953 232.281 456.465C236.04 455.507 239.83 454.634 243.549 453.534L244.189 453.341C246.961 452.49 249.733 451.425 252.04 449.634C254.719 447.556 255.544 444.556 257.53 441.959C261.766 436.419 270.928 436.536 277.128 435.019C282.4 433.73 287.471 431.695 291.119 427.869L291.33 427.641C291.168 426.959 291.43 426.188 292.065 425.834L292.203 425.758C292.45 425.62 292.716 425.563 292.978 425.568C293.315 425.071 293.644 424.557 293.941 424.01C294.183 423.559 294.794 423.891 294.713 424.336C294.666 424.602 294.599 424.862 294.538 425.121C298.071 424.212 301.951 424.386 305.537 424.388L310.192 424.372C310.998 424.362 312.199 424.322 312.306 424.272L312.415 424.224C312.705 424.098 312.294 424.305 312.496 424.037C312.719 423.739 312.938 423.44 313.154 423.135C313.927 422.056 314.657 420.943 315.37 419.821C307.577 421.809 299.5 423.045 291.542 424.075C283.001 425.183 274.349 425.951 265.735 425.958C263.359 425.96 263.381 422.372 265.735 422.284C274.858 421.935 283.933 421.452 292.994 420.282C297.681 419.676 302.348 418.917 306.987 418.028C308.78 417.686 310.565 417.322 312.348 416.939L313.685 416.647C314.524 416.461 316.892 416.195 318.048 415.42C318.276 415.03 318.502 414.64 318.728 414.25C318.616 412.881 315.137 413.064 314.322 413.061C312.008 413.057 309.695 413.076 307.379 413.083C302.752 413.095 298.128 413.054 293.499 413.019C284.254 412.942 274.974 412.619 265.737 413.014C263.495 413.111 262.318 409.514 264.534 408.568C274.318 404.388 285.179 403.479 295.627 402.195C301.121 401.52 306.618 400.74 311.987 399.373L313.316 399.036C316.69 398.17 320.416 397.114 323.257 395.053C318.987 393.324 313.678 393.522 309.253 393.277L308.913 393.258C302.714 392.877 296.506 392.683 290.296 392.673C277.59 392.656 264.881 393.106 252.189 393.71C251.871 393.724 251.804 393.22 252.116 393.153C265.159 390.307 278.417 388.935 291.768 388.724C297.983 388.624 304.205 388.712 310.415 388.988L312.696 389.092C317.991 389.321 323.868 389.382 328.3 392.583C328.975 393.07 329.332 393.693 329.387 394.352C335.331 382.501 340.818 370.402 346.33 358.383C350.614 349.038 354.74 339.616 359.179 330.343L360.617 327.345C362.543 323.341 364.514 319.339 366.704 315.48C358.515 314.387 350.281 313.626 342.043 313.043C334.534 312.513 310.04 311.339 306.426 312.038ZM302.8 440.48C303.732 439.96 305.163 440.383 305.394 441.536C305.565 442.392 305.857 443.345 305.857 444.223C305.857 445.274 305.482 446.415 305.282 447.444C304.821 449.81 304.253 451.731 303.052 453.838C302.301 455.155 300.781 456.049 299.255 456.016C298.047 455.987 296.975 455.664 296.147 454.727C295.153 453.605 294.471 451.957 295.015 450.447C296.442 446.493 299.067 442.554 302.8 440.48ZM104.737 436.533C106.922 432.705 112.101 429.284 116.621 429.622C123.408 430.13 124.793 439.272 118.222 441.453C114.294 442.758 108.891 441.419 105.455 439.272C104.529 438.695 104.189 437.494 104.737 436.533ZM34.9846 423.454C34.4884 422.731 35.3087 421.909 36.0479 422.07C37.688 422.429 39.4563 422.589 41.0626 423.076C42.7077 423.578 44.3003 424.407 45.9297 424.978C49.3435 426.174 52.9898 426.776 56.2936 428.219C57.6141 428.797 58.6529 430.711 58.5309 432.12L58.4998 432.451C58.4266 433.15 58.3053 433.761 57.9139 434.401C56.8625 436.12 54.7795 437.007 52.8134 436.476C49.1661 435.497 45.6023 432.979 42.4923 430.887L41.9176 430.506C40.559 429.61 39.098 428.673 38.0031 427.522C36.8604 426.317 35.921 424.816 34.9846 423.454ZM160.362 409.528C159.941 408.016 161.825 407.017 162.921 408.04C165.11 410.082 167.403 411.975 169.55 414.069L169.692 414.212C171.228 415.758 173.466 418.734 171.466 420.732C168.905 423.295 165.339 419.493 163.964 417.512C162.224 414.999 161.178 412.467 160.362 409.528ZM328.039 397.024C324.788 400.467 319.781 402.05 315.37 403.363C310.142 404.918 304.757 405.845 299.364 406.611C294.152 407.348 288.983 408.006 283.855 408.853C287.733 408.903 291.613 408.931 295.481 409C299.944 409.081 304.405 409.179 308.868 409.307C312.118 409.402 315.929 408.955 319.018 410.163C319.574 410.382 320.092 410.684 320.547 411.05C323.143 406.432 325.632 401.751 328.039 397.024ZM127.543 364.814C130.935 363.737 134.126 362.306 137.722 362.679C138.678 362.777 139.363 363.706 138.841 364.626C137.137 367.627 134.365 369.322 131.637 371.329L131.396 371.507C128.41 373.728 125.204 375.754 121.956 377.577C116.365 380.716 111.354 371.731 117.001 369.096C120.398 367.508 123.967 365.951 127.543 364.814ZM188.625 357.015C193.816 357.358 199.004 357.588 204.199 357.8C210.219 358.043 208.196 367.311 203.167 365.435C198.2 363.583 193.231 361.752 188.219 360.023C186.692 359.498 186.816 356.989 188.528 357.011L188.625 357.015ZM55.4971 340.529C56.8421 340.436 58.199 340.729 59.5462 340.859L60.9797 341C63.9348 341.292 66.7055 341.656 69.5237 342.859C74.7236 345.08 71.9309 353.442 66.7107 353.249C62.8525 353.107 59.5531 351.449 56.2952 349.521C53.4471 347.833 51.7009 345.722 49.7776 343.073C49.1407 342.196 50.0282 341.214 50.8958 341.126C52.4237 340.969 53.9685 340.636 55.4971 340.529ZM316.16 323.453C315.299 328.824 313.162 333.857 309.945 338.242C308.328 340.443 305.487 340.527 303.884 338.242C301.616 335.008 303.014 331.301 304.723 328.196L305.23 327.288C305.993 325.923 307.168 323.933 308.511 322.561L308.532 322.421C309.253 316.795 317.047 317.918 316.16 323.453ZM106.222 288.982C107.516 287.814 109.899 288.166 110.319 290.063C110.907 292.719 111.265 295.715 110.88 298.411C110.671 299.874 110.593 301.514 110.019 302.877C109.401 304.341 108.212 305.468 107.092 306.571C104.857 308.768 100.145 308.043 99.5463 304.577L99.4702 304.153C99.1689 302.513 98.7837 300.76 99.2298 299.136C99.5662 297.91 100.319 296.659 100.941 295.522L101.072 295.28C102.319 292.957 104.263 290.746 106.222 288.982ZM288.108 294.633L288.577 294.638C292.188 294.709 298.791 295.589 298.827 300.054C298.834 301.108 298.056 302.197 297.01 302.439C294.851 302.941 293.456 301.664 291.917 300.375C290.66 299.32 289.193 298.478 287.669 297.874C286.023 297.218 286.133 294.631 288.108 294.633Z" fill="black"/>
<path fill-rule="evenodd" clip-rule="evenodd" d="M294.345 120.637C292.481 105.752 286.624 89.9479 280.464 76.071C266.612 46.7311 234.904 42.6915 206.476 36.6423C178.425 32.5568 148.719 28.8679 121.091 37.0192C105.559 40.8258 99.4924 59.3312 101.944 73.9349C103.343 83.0349 107.483 91.6477 111.014 100.081C118.032 117.401 122.484 135.943 122.492 154.694C122.01 166.949 120.281 180.936 134.358 186.127C147.753 192.791 148.885 210.857 165.659 221.104C172.44 234.847 190.915 236.057 204.213 239.246C212.616 240.855 221.116 242.039 229.637 242.805C254.315 245.967 274.056 238.813 286.974 216.822C295.619 203.438 302.055 187.986 300.465 171.766C298.881 154.685 296.242 137.694 294.345 120.637Z" fill="white"/>
<path fill-rule="evenodd" clip-rule="evenodd" d="M206.688 0.984277C208.098 -0.612786 210.267 -0.0649728 211.584 1.19779C212.442 1.45054 213.272 1.82644 214.056 2.32384C215.83 2.0963 217.69 2.0963 219.43 2.16002C219.851 1.92344 220.303 1.71279 220.795 1.53185C224.311 0.246021 227.426 0.89916 229.994 2.62081C231.23 1.45006 232.792 0.715369 234.787 0.826405C236.568 0.925791 237.835 1.76415 238.924 2.86809C240.008 1.30384 241.761 0.187769 243.946 0.0325085C246.999 -0.18457 249.933 1.03992 252.365 2.93585C253.782 1.30978 255.713 0.375129 257.867 0.366094C259.284 0.108833 260.777 0.210354 262.13 0.618357C264.089 1.21087 265.813 2.32099 267.183 3.76161C269.353 1.68307 272.009 0.187772 275.072 0.405802C279.035 0.692308 282.319 3.6073 283.845 7.19516C286.529 8.2701 289.005 9.80344 291.076 11.9892C291.185 12.1043 291.289 12.2251 291.401 12.3461C292.516 12.7577 293.567 13.3411 294.49 14.1094C297.419 16.5472 298.073 20.0749 297.103 23.5315C297.238 24.0848 297.352 24.6475 297.459 25.2099C300.201 25.6271 302.693 27.2104 304.11 29.7885C306.05 33.3262 305.667 37.989 303.568 41.3664C302.664 42.8192 301.518 44.0432 300.232 45.1136C301.687 48.4202 300.988 52.3659 298.644 55.0403C298.071 55.9623 297.369 56.7945 296.58 57.548C297.45 60.9665 295.9 64.4935 292.806 66.3203L292.543 66.9829C292.497 67.093 292.452 67.2026 292.405 67.3113C292.371 67.452 292.329 67.588 292.288 67.7252C292.214 68.9383 291.815 70.1288 291.021 71.2506C289.399 73.549 287.388 75.0481 286.32 77.7313L286.213 78.0133C285.757 79.2832 284.275 80.1791 283.013 79.7873C290.02 94.1798 293.691 110.194 296.214 125.889C297.471 133.719 298.441 141.577 299.228 149.463L299.999 157.317C300.679 164.297 301.283 171.302 301.287 178.306C301.297 194.151 296.765 209.392 287.041 222C277.844 233.919 264.829 242.557 250.125 245.96C234.946 249.467 217.138 248.085 203.526 240.056C199.512 237.695 203.029 232.015 207.111 233.915C214.843 237.514 222.699 240.187 231.268 240.784C239.621 241.371 247.995 240.327 255.917 237.593C269.023 233.066 280.174 223.584 287.343 211.774C290.873 205.956 293.429 199.639 294.792 192.965C296.487 184.648 296.23 176.05 295.607 167.624L295.564 167.051C294.335 150.818 292.711 134.487 290.091 118.417C287.773 104.206 284.209 90.2838 279.582 76.669C277.77 75.0731 275.742 73.7526 273.571 72.7494C257.686 72.0856 241.77 72.2796 225.904 73.3762C212.373 74.3175 198.906 75.9098 185.541 78.2306L184.11 78.4822C181.152 79.0093 177.866 79.3108 175.08 80.5022C172.688 81.5275 171.718 83.4973 171.116 85.919C169.599 92.0445 169.369 98.7487 169.112 105.03C168.86 111.17 169.428 117.362 168.936 123.482C168.52 128.603 167.207 133.844 163.415 137.548C161.432 139.487 158.99 140.547 156.698 142.019C155.217 142.97 154.589 143.949 154.779 145.709C155.193 149.558 158.291 154.406 154.81 157.704C154.197 158.282 153.139 158.356 152.535 157.704C151.099 156.142 149.114 154.948 147.411 153.688C146.698 153.165 147.29 152.15 148.101 152.511C149.163 152.989 150.25 153.553 151.36 154.045C148.909 152.026 145.421 151.035 142.518 150.448C141.058 150.155 139.52 150.069 137.998 150.207C136.873 150.742 135.722 151.242 134.572 151.729C133.11 152.342 131.634 152.899 130.147 153.427C124.988 157.633 122.526 164.473 123.601 171.162C124.189 174.854 125.892 178.87 129.102 181.026C132.904 183.578 137.998 182.482 142.107 184.377C145.954 186.15 148.296 189.733 150.048 193.442L150.78 194.986C152.407 198.405 154.078 201.733 156.304 204.843C158.874 208.448 162.024 211.684 165.46 214.463C167.127 215.809 168.903 217.017 170.738 218.12L171.242 218.417C173.099 219.509 174.431 220.548 174.557 222.854C174.597 223.658 174.091 224.392 173.437 224.808C170.624 226.594 167.826 224.361 165.486 222.804C162.959 221.125 160.543 219.238 158.305 217.176C154.057 213.267 150.381 208.624 147.551 203.583C145.397 199.743 144.17 194.341 140.766 191.367C138.686 189.553 135.748 189.538 133.15 189.206C130.734 188.894 128.449 188.392 126.299 187.201C117.554 182.341 115.082 170.579 117.157 161.487C117.508 159.956 118.001 158.463 118.608 157.024C115.353 157.569 111.697 154.202 113.018 150.804C113.118 150.547 113.234 150.307 113.344 150.06C111.199 148.648 109.506 146.508 108.703 143.709C108.291 142.261 108.23 140.799 108.447 139.386C107.407 138.689 106.548 137.728 105.995 136.547C104.267 135.748 102.735 134.553 101.821 132.844C100.555 130.487 100.716 128.316 101.68 126.361C101.545 126.116 101.414 125.864 101.288 125.608C97.7471 123.362 95.2756 119.492 95.5571 115.201C95.6474 113.778 95.9991 112.497 96.5414 111.342C96.4962 111.196 96.4511 111.045 96.4109 110.899C93.4472 109.391 90.9958 106.915 90.1218 103.608C89.2478 100.281 90.2775 96.9643 92.337 94.4114C89.3231 92.2059 87.5097 89.1255 88.6098 84.4667C89.0568 82.5727 89.9561 80.8484 91.1718 79.3961C91.1668 79.3514 91.1565 79.3063 91.1466 79.2606L90.8646 79.0419C87.144 76.1045 85.0051 72.3614 87.2888 67.758C88.3136 65.6881 89.7754 64.2453 91.4932 63.2957L91.5786 63.0244C90.3479 60.3861 89.9311 57.4564 90.7799 54.3759C91.473 51.8388 93.1157 49.8182 95.2154 48.477C95.0747 47.3407 95.0949 46.1303 95.321 44.8181C95.6976 42.6026 96.7977 40.6679 98.405 39.296C98.4654 39.004 98.5408 38.7182 98.6261 38.4312C99.1687 36.6779 100.183 34.7735 101.359 33.3607C102.328 32.1899 103.413 31.7629 104.739 31.7175C104.659 30.6375 104.714 29.5417 104.935 28.4311C105.613 25.0044 107.793 21.7827 111.023 20.3205C112.349 19.7225 113.746 19.547 115.092 19.6923C116.237 17.2802 118.473 15.5321 121.22 15.155C122.29 15.0043 123.285 15.0138 124.199 15.15C124.717 14.9085 125.254 14.6928 125.817 14.4964C126.188 14.3657 126.565 14.2451 126.942 14.125C128.213 12.547 129.886 11.2852 131.839 10.527C134.095 9.64746 136.391 9.73757 138.425 10.4763L139.073 10.3405C140.087 8.5818 141.705 7.21989 144.192 6.60171C147.014 5.90339 149.912 6.87822 152.133 8.65266C152.143 8.65266 152.152 8.65266 152.169 8.64695C153.329 6.04914 155.312 4.23999 158.643 4.36553C160.719 4.44613 162.592 5.4766 164.038 6.94408C164.842 6.84303 165.645 6.75245 166.454 6.66257C167.307 5.66206 168.258 4.72788 169.307 3.88881C171.026 2.51144 173.261 2.62248 174.526 4.56168C174.804 4.98371 175.058 5.41074 175.315 5.838L176.475 5.75764C177.843 3.9133 179.704 2.66717 182.258 2.56707C184.597 2.47102 186.267 3.61729 187.536 5.21982C188.571 5.19485 189.612 5.17511 190.651 5.15966C191.861 3.75756 193.288 2.52143 194.916 1.49619C196.162 0.712278 198 0.979047 199.011 2.0245C199.691 2.73494 200.326 3.47676 200.918 4.2445C202.439 2.53807 204.494 1.41392 206.688 0.984277ZM132.759 160.557C135.105 159.221 138.259 160.669 140.53 161.803C143.298 163.187 146.044 165.272 147.737 167.885C150.043 171.442 144.625 174.317 142.197 171.126C140.706 169.162 139.515 167.181 137.707 165.462C136.054 163.884 133.658 162.83 132.708 160.75C132.673 160.679 132.684 160.598 132.759 160.557ZM134.408 74.2L134.452 74.0745C135.119 72.2489 132.208 71.4619 131.546 73.2725C130.543 76.0168 131.699 79.0003 134.409 80.1853C135.16 80.5139 136.018 80.3997 136.47 79.6446C136.851 79.0088 136.674 77.9073 135.93 77.5822C134.405 76.9153 133.895 75.7381 134.408 74.2ZM109.323 69.0952C110.781 67.8089 108.642 65.6826 107.192 66.9637C105.839 68.1587 104.835 69.7817 105.096 71.6486C105.362 73.5512 106.796 74.8943 108.365 75.8435C110.029 76.8502 111.546 74.244 109.886 73.2399L109.7 73.126C109.004 72.6933 108.189 72.0982 108.071 71.247C107.946 70.3425 108.711 69.6364 109.323 69.0952ZM117.599 46.3956L117.702 46.3198C119.267 45.202 117.764 42.5862 116.18 43.7163C114.728 44.7529 113.564 46.0996 113.442 47.957C113.323 49.7619 114.241 51.3269 115.441 52.5968C116.777 54.0093 118.906 51.8747 117.573 50.465C116.274 49.0912 116.02 47.592 117.599 46.3956Z" fill="black"/>
<path fill-rule="evenodd" clip-rule="evenodd" d="M260.52 194.377C260.867 194.284 261.174 194.753 260.886 195.007C259.702 196.058 258.953 198.012 258.09 199.346C257.267 200.616 256.478 201.871 255.755 203.198C254.947 204.686 254.165 206.168 253.534 207.742L253.411 208.06C253.599 208.51 253.746 208.952 253.855 209.244L253.886 209.325C254.963 212.074 252.705 215.129 250.156 215.897C245.8 217.212 242.062 213.631 241.958 209.375C241.875 206.027 244.145 203.043 246.449 200.83C248.468 198.892 250.724 197.244 253.252 196.037C254.367 195.504 255.525 195.059 256.735 194.803C257.971 194.539 259.307 194.705 260.52 194.377ZM252.308 206.512C252.629 206.665 252.902 207.033 253.13 207.463C253.016 207.097 252.778 206.736 252.308 206.512ZM255.035 159.984C258.827 162.291 264.607 167.669 260.527 173.387C255.724 178.43 248.808 172.648 245.401 170.035C242.241 168.007 238.688 173.218 241.623 175.584C266.248 193.823 276.241 160.588 256.954 157.271C254.83 156.908 254.041 159.271 255.035 159.984ZM223.854 137.836L224.522 137.78C227.43 137.523 230.374 137.133 233.241 137.79C237.093 138.675 236.81 144.28 233.241 145.312C230.096 146.218 226.61 145.825 223.362 145.856C222.851 145.861 222.342 145.875 221.831 145.883C221.731 147.097 221.332 148.146 220.723 149.192C220.286 149.944 219.729 150.654 219.18 151.323C217.877 152.906 214.8 152.87 213.483 151.323C212.511 150.177 211.735 148.857 211.724 147.304C211.719 146.907 211.769 146.484 211.864 146.07L210.09 146.101C205.753 146.168 201.383 146.137 197.123 145.447C195.608 145.761 194.369 143.027 196.459 142.209C202.144 139.984 208.495 139.329 214.527 138.661C217.627 138.318 220.744 138.081 223.854 137.836ZM272.282 135.537L272.437 135.522C276.201 135.137 280.347 134.469 284.116 134.853C289.744 135.425 289.734 143.036 284.116 143.607C282.052 143.814 279.879 143.714 277.713 143.514C278.821 145.864 277.506 148.671 274.838 149.031C272.358 149.363 269.788 146.952 270.601 144.368L270.639 144.254C270.799 143.804 270.941 143.303 271.11 142.808L270.211 142.732C267.529 142.494 263.806 142.009 262.819 139.891C262.52 139.252 262.589 138.659 263.047 138.114C264.928 135.874 269.565 135.8 272.282 135.537ZM232.281 118.111C235.003 117.122 237.833 119.437 238.184 122.047C238.591 125.054 236.423 127.034 233.676 127.393L233.538 127.41C227.471 128.078 221.451 129.3 215.378 129.991C212.618 130.304 209.838 130.511 207.061 130.585L205.078 130.629C202.646 130.691 200.037 130.746 197.791 129.909L197.8 129.894C197.203 129.721 196.93 128.86 197.593 128.39C199.983 126.699 203.207 126.06 205.989 125.256C208.787 124.448 211.605 123.703 214.432 123.003C220.366 121.534 226.529 120.201 232.281 118.111ZM257.391 118.814C258.111 115.01 263.499 114.602 265.477 117.37C266.757 117.809 268.633 118.267 269.793 118.612C271.819 119.213 273.844 119.81 275.875 120.388C280.079 121.586 284.182 123.105 288.315 124.52C288.74 124.666 288.624 125.207 288.215 125.261C282.444 126.012 276.774 126.362 270.967 126.121L269.779 126.067C264.664 125.868 255.981 126.248 257.391 118.814Z" fill="black"/>
<path fill-rule="evenodd" clip-rule="evenodd" d="M265.673 216.236C260.996 212.068 255.751 203.687 249.032 210.318C247.37 212.191 246.694 216.393 244.153 217.218C240.779 218.312 237.434 214.74 236.283 211.997C231.575 196.751 251.034 192.569 262.116 195.032C267.532 197.258 271.519 206.212 271.762 210.886C271.916 214.025 269.261 218.644 265.673 216.236ZM300.967 192.74C300.921 192.538 300.857 192.355 300.779 192.188C298.71 191.406 297.074 192.203 296.061 193.693C296.095 194.064 296.206 194.44 296.275 194.806C295.496 196.451 294.792 198.487 293.734 199.909C293.525 199.925 293.308 199.904 293.099 199.842C275.561 201.675 284.123 183.32 266.336 178.759C252.586 176.491 227.735 179.09 221.249 193.406C216.132 216.276 190.121 200.341 181.58 188.448C172.467 177.623 166.575 164.398 160.895 151.564C159.694 148.846 155.947 150.789 156.353 153.395C151.104 163.935 151.277 176.591 149.977 188.137C147.765 211.169 145.609 243.469 167.003 257.533C194.874 289.051 264.474 300.171 296.623 271.214C307.75 247.278 306.378 218.081 300.967 192.74Z" fill="black"/>
</svg>
