<svg width="404" height="580" viewBox="0 0 404 580" fill="none" xmlns="http://www.w3.org/2000/svg">
<path fill-rule="evenodd" clip-rule="evenodd" d="M190.839 227.454C203.533 217.956 235.394 213.686 248.942 222.83C262.319 232.013 263.777 246.863 270.012 260.526C275.894 257.801 285.609 261.704 287.315 267.067C289.43 269.598 289.525 276.706 290.983 280.105C354.452 290.033 364.086 338.659 371.726 393.863C381.832 449.88 404.774 505.775 394.813 563.418C396.11 565.264 397.135 567.057 398.082 569.187C400.347 572.978 397.427 578.343 392.854 578.135C386.938 577.626 381.078 576.928 375.13 576.71C358.647 576.148 342.15 576.215 325.659 576.421L323.411 576.45C240.307 577.466 157.209 579.469 74.103 580C71.088 580.004 69.612 577.349 70.0145 574.726C70.8254 569.45 71.5776 564.169 72.3627 558.888C52.7058 563.992 31.8087 565.276 12.2076 559.426C10.8362 558.054 15.4025 558.797 16.1269 558.589C-1.91256 546.476 3.47477 520.956 5.07269 502.574C15.0092 439.593 18.5119 369.909 56.9028 316.168C73.5111 294.234 97.8608 276.871 125.84 272.962L126.616 272.859C134.797 271.786 143.915 271.441 151.068 267.067C159.114 260.755 162.541 249.094 171.005 248.984C173.799 248.948 177.602 252.424 181.693 254.784C181.998 249.594 184.845 245.214 185.473 241.19L185.524 240.846C186.179 236.156 185.281 231.934 190.839 227.454ZM327.236 395.527C309.4 383.349 263.327 389.469 262.273 390.15C259.949 391.652 258.949 391.783 257.693 393.734C256.454 393.894 255.213 394.062 253.977 394.236C251.492 395.032 253.332 398.035 256.201 396.964C254.476 404.277 259.555 409.479 261.577 416.708C262.232 419.056 261.599 423.277 261.577 425.675C261.772 428.735 265.213 432.347 264.639 435.415C262.602 446.323 251.538 456.964 256.201 467.542C259.292 473.516 268.586 476.564 274.765 478.594C287.566 483.423 309.872 478.412 317.31 467.542C321.279 461.745 325.874 447.119 328.239 442.582L328.765 435.386C330.057 417.494 331.208 398.238 327.236 395.527Z" fill="white"/>
<path fill-rule="evenodd" clip-rule="evenodd" d="M167.898 247.929C169.129 246.858 170.952 248.204 170.168 249.653C168.411 252.906 166.608 255.988 164.247 258.864C162.816 260.609 161.283 262.259 159.73 263.889C163.717 267.276 167.136 271.484 170.363 275.428C174.49 280.47 178.394 285.727 183.027 290.341C187.598 294.893 192.652 298.075 198.761 300.195L199.995 300.616C206.135 302.734 212.693 305.593 216.154 311.305C216.835 312.431 215.463 313.822 214.307 313.119C208.296 309.461 201.231 308.725 194.687 306.308C188.367 303.975 182.855 300.382 177.987 295.794C173.125 291.216 169.044 286.007 164.787 280.908C160.577 275.866 156.046 271.558 151.065 267.293C143.381 272.373 134.61 274.585 125.691 276.755L124.718 276.992C115.788 279.165 106.906 281.687 98.5283 285.472C91.1423 288.806 83.8772 292.789 77.8608 298.216C71.474 303.977 66.5033 311.333 61.9536 318.527C51.7764 334.623 44.6216 352.256 38.3228 370.104C31.7715 388.668 26.2917 407.604 21.8681 426.765C19.6182 436.511 17.7908 446.327 16.289 456.212C15.5663 460.972 14.924 465.744 14.3601 470.525C13.7581 475.632 13.6196 480.884 12.0258 485.792C11.3424 487.895 9.7292 488.77 8.11424 488.694L7.78619 492.727C7.3513 498.101 6.94586 503.478 6.80884 508.885C6.58154 517.879 6.68448 526.846 7.34278 535.818L7.43599 537.042C7.95337 543.592 9.1091 550.951 14.1204 555.746C19.3101 560.712 27.2915 562.275 34.2862 562.364C50.5781 562.572 66.2606 555.008 80.6772 548.371C95.5248 541.536 109.967 533.951 124.062 525.722C131.241 521.532 138.342 517.202 145.352 512.746C148.792 510.559 152.208 508.335 155.599 506.076C157.54 504.78 159.38 503.363 161.358 502.213C160.39 501.326 159.957 499.935 160.767 498.718C155.053 493.841 152.675 485.144 152.397 478.103C152.172 472.423 153.023 466.758 153.694 461.13C154.033 458.29 154.452 455.457 154.886 452.634C155.058 451.517 155.189 450.322 155.389 449.143C139.958 457.477 124.095 464.9 107.811 471.491C99.4645 474.871 91.0111 477.91 82.4408 480.695L80.7037 481.257C72.5832 483.87 64.2687 486.337 55.8737 487.829C55.4249 487.91 55.0604 487.257 55.5395 487.052C63.7207 483.504 72.1851 480.511 80.4891 477.243L81.8536 476.698C81.6969 476.688 81.5343 476.667 81.3647 476.628C76.4945 475.474 71.6628 473.693 66.8863 472.194C62.4532 470.802 57.4728 469.93 53.3293 467.831C53.0105 467.668 53.1889 467.233 53.4994 467.212C58.1567 466.894 63.2123 468.228 67.7782 469.014L69.4937 469.308C72.3673 469.806 75.3045 470.341 78.164 471.039C78.2674 470.1 78.8026 469.153 79.5641 468.598C87.943 462.5 87.0922 450.186 87.9883 441.104L88.6529 434.36C89.8218 422.56 91.0583 410.76 92.9371 399.048C93.0373 398.424 94.022 398.603 94.0261 399.194C94.123 413.712 93.0077 428.163 92.4487 442.658L92.362 445.036C92.0529 453.982 91.8108 463.27 86.0784 470.152C86.8798 469.691 87.9637 469.691 88.613 470.451C89.411 471.383 89.8717 472.43 89.8573 473.458C95.0373 471.326 100.195 469.136 105.327 466.901C121.827 459.717 137.982 451.677 153.709 442.98C155.402 442.043 157.01 442.78 157.847 444.013L157.968 443.996C157.988 443.994 158.01 443.992 158.029 443.992L158.151 443.987C158.151 443.987 158.158 443.987 158.163 443.987C160.378 442.791 163.393 443.643 165.294 445.385C165.35 445.438 165.396 445.495 165.447 445.55C167.851 444.489 170.098 443.057 172.135 441.242C176.306 437.527 179.839 432.935 182.918 428.328C188.591 419.844 193.407 410.41 201.07 403.427C207.293 397.754 215.01 394.221 223.107 392.005C223.073 391.773 223.165 391.525 223.328 391.36C223.745 390.941 224.041 390.795 224.577 391.051C224.621 391.07 224.645 391.099 224.664 391.13L225.453 389.803C225.884 389.084 226.327 388.357 226.48 388.168C227.4 387.03 228.346 385.902 229.308 384.797C230.936 382.925 232.79 381.08 234.939 379.782C239.643 376.942 244.589 378.548 249.427 380.102C252.349 381.039 255.26 382.007 258.178 382.961L258.48 383.057C260.655 383.743 263.201 384.345 264.172 386.609C264.556 387.506 264.617 388.436 264.437 389.337C285.099 384.176 308.045 386.547 328.208 392.607C328.982 392.842 329.753 393.466 329.916 394.288C332.226 405.93 333.255 417.869 332.209 429.708C331.308 439.93 329.004 449.944 324.662 459.301L324.414 459.829C320.333 468.5 313.864 479.191 303.986 481.909C298.021 483.549 291.426 482.583 285.342 482.282C279.431 481.988 273.386 481.948 267.53 481.034C262.315 480.219 257.745 477.922 254.523 473.755C251.741 470.159 250.278 465.813 249.079 461.491C248.529 461.663 247.983 461.847 247.446 462.053C245.18 462.923 243.26 464.326 241.525 465.978C237.86 469.466 235.017 473.702 231.182 477.03C227.709 480.045 223.754 482.387 219.51 484.19C210.717 487.924 201.285 489.416 191.986 491.393L191.336 491.532C184.334 493.042 177.189 494.895 171.008 498.479C170.886 499.533 170.399 500.525 169.616 501.175C170.704 502.182 171.166 503.774 170.21 505.268C167.533 509.442 162.923 511.816 158.786 514.484L158.518 514.659C154.448 517.31 150.342 519.908 146.204 522.454C137.79 527.632 129.2 532.524 120.489 537.2C106.478 544.723 92.1659 551.818 77.595 558.254C78.4694 562.483 78.1499 566.841 78.8072 571.099L78.9079 571.706C79.1888 573.286 78.8096 574.606 77.7023 575.639L77.585 575.744L77.5872 575.73L77.4833 575.825L77.4487 575.854L77.4602 575.844C77.3327 575.959 77.201 576.067 77.0667 576.157L76.8956 576.265C75.8292 576.901 74.4561 576.894 73.3644 576.332L73.2395 576.265L73.0298 576.148C71.5871 575.33 70.5923 573.31 71.1907 571.706C72.6616 567.762 73.2174 563.549 74.5759 559.578L73.4982 560.052L72.0777 560.661C56.7162 567.188 39.6526 572.686 22.9148 568.235C15.5195 566.27 8.60729 562.108 4.90696 555.328C1.26577 548.656 0.751062 540.908 0.557832 533.485C0.319336 524.324 0.81896 515.024 2.04818 505.94C2.87343 499.844 3.87145 493.633 5.41072 487.599C4.61906 486.913 4.03694 485.928 3.88338 484.709C3.15669 478.945 4.42827 472.954 5.20678 467.224C5.96705 461.625 6.80713 456.038 7.75747 450.47C9.67565 439.225 11.9044 428.001 14.4993 416.887C19.1174 397.104 25.2158 377.676 32.5578 358.708L33.2008 357.056C39.985 339.722 47.8405 322.758 58.7787 307.53C64.0112 300.243 69.5424 293.638 76.9357 288.386C83.8623 283.468 91.6752 279.925 99.7381 277.219C107.81 274.51 116.106 272.694 124.549 271.565C133.123 270.418 142.174 269.715 150.172 266.258C149.16 264.477 150.029 262.07 151.732 260.963C157.462 257.243 162.763 252.402 167.898 247.929ZM351.349 409.724C351.588 409.366 352.16 409.593 352.053 410.016C349.266 421.238 346.65 432.483 344.942 443.917C341.856 464.558 342.425 485.467 342.676 506.26L342.688 507.334C342.819 518.534 343 529.734 343.374 540.929C343.567 546.588 343.941 552.301 343.737 557.962C343.625 561.034 342.793 563.939 342.498 566.973C342.24 569.626 342.469 572.318 342.598 574.976C342.686 576.743 340.033 576.667 339.85 574.976L339.622 572.789C339.32 570.021 338.95 567.269 338.028 564.62C336.918 561.434 336.385 558.304 336 554.957C335.409 549.829 335.146 544.651 334.92 539.49L334.764 535.918C333.813 514.341 333.847 492.662 335.385 471.108L335.499 469.569C337.023 449.196 339.665 427.181 351.349 409.724ZM291.937 281.314C291.207 281.02 291.463 279.94 292.271 280.128L293.736 280.47C304.478 283 315.027 285.739 325.054 290.444C335.088 295.154 343.581 302.182 350.332 310.824C363.452 327.625 368.905 348.044 373.211 368.441C377.993 391.109 382.349 413.858 387.175 436.516L388.07 440.738C392.534 461.842 396.751 482.959 399.856 504.312L400.08 505.861C403.212 527.821 405.096 550.539 401.677 572.557C401.003 576.913 393.626 575.828 393.913 571.524C394.748 559.084 395.344 546.707 394.768 534.24C394.191 521.768 393.001 509.351 391.227 496.989C389.732 486.585 387.506 476.311 385.537 465.99L385.228 464.36C383.578 455.581 381.879 446.813 380.183 438.044L377.647 424.912C373.846 405.252 369.971 385.572 365.593 366.036L365.333 364.886C361.05 346.088 354.734 326.399 341.882 311.472C328.841 296.325 310.172 288.696 291.937 281.314ZM244.55 480.69C244.864 480.002 245.959 480.078 246.297 480.69C247.618 483.086 247.764 486.143 248.015 488.849L248.042 489.127C248.358 492.428 248.64 495.741 248.813 499.053C249.139 505.337 249.295 511.613 249.276 517.907C249.254 524.355 249.122 530.798 248.77 537.238L248.672 538.962C248.351 544.558 247.808 550.8 245.102 555.694C244.119 557.472 241.444 556.949 240.875 555.151C239.008 549.261 239.967 542.277 240.444 536.246L240.816 531.539C241.184 526.832 241.537 522.124 241.814 517.41C242.196 510.963 242.51 504.51 242.812 498.06C242.912 495.964 243.019 493.87 243.131 491.773L243.304 488.632C243.45 486.002 243.437 483.119 244.55 480.69ZM34.7011 489.036L35.5273 488.252C38.0637 485.813 41.2688 482.055 45.018 482.289C46.5132 482.383 47.466 483.602 47.1559 485.048C46.4937 488.137 43.286 489.741 40.977 491.627C38.4472 493.693 36.0632 495.902 33.6836 498.132C31.5727 500.109 29.5426 502.141 27.5611 504.24L26.8203 505.029C26.1102 505.789 21.0524 510.286 21.5992 511.453L21.6291 511.505C21.7812 511.728 21.5277 512.034 21.2753 511.957C19.0911 511.278 19.2274 509.44 20.0531 507.575C21.6399 503.994 24.4183 500.681 26.8446 497.623C29.2642 494.57 31.8832 491.73 34.7011 489.036ZM252.464 399.225C250.775 395.302 244.552 395.383 241.021 395.62C232.126 396.21 222.501 398.421 214.587 402.507C206.383 406.741 200.856 413.528 195.911 421.032L195.68 421.386C190.859 428.749 186.216 437.465 178.669 442.526C174.824 445.106 170.336 447.463 165.671 448.481C165.352 449.036 164.831 449.473 164.152 449.631L163.836 449.703C162.507 449.992 160.443 450.31 158.66 450.119C158.672 450.977 158.664 451.828 158.686 452.638C158.747 454.967 158.774 457.303 158.774 459.631C158.776 464.508 158.509 469.397 158.716 474.274C158.901 478.589 159.521 483.097 161.629 486.954C163.174 489.784 165.216 491.656 167.679 493.444C173.738 489.815 180.589 487.601 187.544 485.938C195.955 483.927 204.565 482.586 212.786 479.858C216.741 478.543 220.544 476.827 223.99 474.491C227.648 472.015 230.439 468.66 233.314 465.381L233.764 464.871C236.696 461.565 239.896 458.402 244.043 456.609C247.611 455.067 252.318 454.792 255.438 452.402C257.071 451.152 257.207 449.339 257.38 447.482C255.379 447.762 253.264 447.312 251.271 447.083L250.239 446.963C248.356 446.743 246.514 446.502 244.659 446.031C244.316 445.942 244.316 445.433 244.659 445.345C246.852 444.79 249.025 444.553 251.271 444.293L251.799 444.228C253.831 443.968 255.968 443.571 257.964 444.011C258.321 442.674 258.837 441.395 259.563 440.116C260.58 438.319 262.505 436.282 262.765 434.183C262.843 433.557 262.695 432.815 262.395 432.261L262.291 432.072C262.164 431.85 262.016 431.625 261.797 431.486C261.772 431.515 261.719 431.546 261.609 431.579C260.074 432.055 258.735 431.316 258.025 430.179C255.007 430.547 251.717 430.422 248.886 430.547L246.027 430.683C242.97 430.819 239.775 430.879 236.903 430.274C236.502 430.188 236.382 429.533 236.784 429.363C240.313 427.881 244.596 427.408 248.375 426.836C250.488 426.519 252.615 426.275 254.732 425.995C256.141 425.808 257.638 425.5 259.098 425.426C262.76 420.946 260.787 413.877 255.691 411.948C253.834 412.751 252.164 412.285 250.135 412.113C248.11 411.943 246.08 411.826 244.048 411.835C239.974 411.852 235.657 412.906 231.625 412.452C230.968 412.378 230.359 411.52 231.011 410.996C234.1 408.519 238.524 407.714 242.445 407.186L243.255 407.078C244.569 406.908 246.168 406.662 247.825 406.516C248.2 405.797 248.874 405.254 249.884 405.118C250.183 405.077 250.485 405.055 250.787 405.029L250.782 405C253.245 404.883 253.138 400.793 252.464 399.225ZM83.7879 475.734C83.7443 475.799 83.6966 475.863 83.646 475.923L83.5679 476.012L83.9728 475.852L83.7879 475.734ZM295.459 390.458C285.087 389.363 274.702 389.595 264.301 389.889C263.469 392.562 260.573 394.84 257.767 394.926C259.964 398.213 260.191 402.662 258.65 406.148C261.923 407.427 264.741 409.727 266.452 413.002C268.825 417.539 268.514 422.591 266.17 426.784C268.17 428.565 269.351 431.458 269.234 434.183C269.1 437.221 267.258 439.818 265.727 442.335C264.072 445.055 264.016 447.451 263.508 450.499C262.763 454.96 259.701 457.664 255.764 459.354L255.973 460.164C256.988 464.049 258.251 468.147 261.154 470.987C264.887 474.642 270.679 474.608 275.612 474.838L275.851 474.85C280.368 475.072 284.882 475.333 289.399 475.584L292.786 475.77C297.985 476.05 302.979 476.083 307.223 472.708C314.151 467.193 318.902 458.07 321.907 449.992C328.218 433.038 328.293 414.431 325.397 396.772C315.682 393.695 305.602 391.529 295.459 390.458ZM209.216 418.589L209.291 418.594C211.428 418.833 212.893 420.532 213.416 422.548C214.175 425.476 213.803 428.125 215.628 430.769C217.507 433.49 218.661 435.667 218.933 439.026C219.045 440.408 218.994 441.787 219.308 443.141L219.534 444.087C219.775 445.098 219.972 446.071 219.853 447.157C219.744 448.147 219.254 448.919 218.242 449.237C214.952 450.272 212.409 447.886 211.559 444.871C210.824 442.268 211.805 439.165 210.768 436.719C210.194 435.364 209.135 434.231 208.537 432.866C207.943 431.513 207.646 430.1 207.551 428.629C207.371 425.849 209.873 422.507 208.476 419.987C208.179 419.449 208.517 418.572 209.216 418.589ZM165.486 389.889C167.715 389.445 170.244 388.424 172.441 389.273C173.573 389.71 174.13 391.063 173.176 392.005C171.519 393.638 169.11 393.729 166.876 394.114L166.681 394.147C164.04 394.628 161.395 395.084 158.747 395.514C153.764 396.325 148.77 397.042 143.758 397.652C138.61 398.278 133.448 398.835 128.279 399.256L126.278 399.416C121.911 399.76 117.368 400.018 113.083 399.361C112.461 399.265 112.561 398.374 113.083 398.218C117.777 396.822 122.925 396.449 127.778 395.856C132.937 395.228 138.087 394.563 143.224 393.776C148.352 392.988 153.475 392.144 158.577 391.209C160.884 390.788 163.186 390.348 165.486 389.889ZM245.927 385.407C243.97 384.726 241.817 383.719 239.697 384.056C236.042 384.637 232.788 388.137 229.894 390.442L231.347 390.164C238.782 388.761 248.626 387.248 254.868 391.893C254.883 391.866 254.895 391.84 254.914 391.814C255.418 391.061 256.002 390.475 256.637 389.832C256.698 389.775 256.759 389.717 256.815 389.657L257.161 389.299L256.375 389.031C254.691 388.445 252.695 387.69 252.381 387.58L252.359 387.573C250.21 386.858 248.061 386.15 245.927 385.407ZM184.845 232.275C184.539 228.41 190.662 228.441 190.966 232.275C191.628 240.647 189.71 248.94 185.583 256.282C185.554 256.335 185.52 256.382 185.488 256.433C188.07 257.752 190.679 259.019 193.349 260.15C196.76 261.599 200.238 262.916 203.779 264.035C206.982 265.048 210.927 265.448 213.618 267.554C219.296 271.998 217.162 281.216 216.071 287.193L215.901 288.135C215.356 291.209 214.964 294.365 216.283 297.317C217.692 300.468 220.539 302.806 223.08 305.063L223.594 305.519C225.847 307.535 228.42 309.985 230.07 312.717C231.578 309.655 233.632 307.152 235.806 304.334C237.356 302.323 236.251 301.658 235.139 299.696C234.066 297.805 233.542 295.789 233.878 293.631C234.496 289.648 237.735 286.772 240.96 284.608C244.769 282.058 249.02 280.167 252.958 277.793C261.047 272.914 268.925 267.336 276.021 261.142C276.218 260.972 276.557 261.197 276.401 261.429C270.794 269.811 264.221 277.052 256.141 283.2C252.863 285.691 249.422 287.759 245.956 289.932L244.961 290.561C243.569 291.446 241.834 292.631 241.206 294.138C240.573 295.653 241.924 296.798 242.649 298.056C244.956 302.043 243.844 305.766 241.108 309.148L240.982 309.304C238.264 312.596 236.202 315.656 235.219 319.861C233.102 328.895 236.049 338.302 239.135 346.782L239.259 347.116C240.928 351.687 242.702 356.225 244.153 360.867L244.552 362.151C245.866 366.425 246.942 370.638 245.467 375.032C244.966 376.526 242.892 376.88 242.031 375.471C238.994 370.513 238.237 364.546 236.331 359.096C234.474 353.781 232.345 348.565 230.551 343.229C228.242 336.361 226.696 328.967 227.536 321.761C227.512 321.718 227.485 321.68 227.463 321.635L226.877 320.372C225.273 316.951 223.725 313.965 220.812 311.238C217.772 308.393 214.472 305.876 212.08 302.433C206.887 294.955 210.099 286.636 210.727 278.46L210.798 277.456C210.912 275.758 210.975 273.451 209.846 272.275C208.576 270.953 205.599 270.616 203.915 270.03C199.562 268.517 195.274 266.753 191.187 264.635C187.299 262.62 183.531 260.391 180.024 257.783L178.245 256.468C175.442 254.389 172.534 252.117 170.653 249.285C170.436 248.959 170.803 248.434 171.198 248.589C174.335 249.842 177.204 251.833 180.139 253.564C180.185 253.459 180.239 253.351 180.297 253.246C183.93 246.784 185.425 239.624 184.845 232.275ZM285.094 276.545C286.345 273.174 292.044 273.435 291.815 277.439C291.643 280.516 290.314 283.291 289.1 286.084L288.968 286.382C287.715 289.292 286.264 292.024 284.532 294.692C281.219 299.789 277.338 304.52 273.193 308.986C269.436 313.033 264.505 315.51 258.823 315.099C256.428 314.924 254.012 314.326 251.914 313.15C249.422 311.754 246.713 307.561 243.535 308.577C243.228 308.675 242.941 308.233 243.206 308.022C246.876 305.118 251.042 309.622 254.557 310.707C259.852 312.342 265.287 310.535 268.694 306.327C272.252 301.936 275.527 297.018 278.518 292.235C280.037 289.806 281.424 287.286 282.619 284.69C283.828 282.067 284.103 279.218 285.094 276.545ZM276.559 255.809C276.406 255.342 276.992 254.9 277.408 255.166C279.82 256.707 281.911 258.747 284.135 260.535C286.605 262.517 289.09 264.46 291.616 266.373C295.296 269.16 291.027 274.293 287.788 271.247C283.354 267.08 278.496 261.632 276.559 255.809ZM263.318 239.497C264.296 235.785 270.093 237.317 269.248 240.987L269.219 241.097C267.62 247.159 269.898 253.33 274.763 257.26L274.941 257.403C278.017 259.822 273.658 264.051 270.611 261.656C263.963 256.425 261.196 247.539 263.318 239.497Z" fill="black"/>
<path fill-rule="evenodd" clip-rule="evenodd" d="M313.653 121.295C311.745 106.328 305.751 90.4382 299.445 76.4856C285.267 46.9855 252.812 42.9238 223.716 36.8416C195.004 32.7338 164.598 29.0247 136.32 37.2205C120.422 41.0479 114.213 59.6544 116.722 74.3378C118.154 83.4875 122.392 92.1473 126.006 100.627C133.189 118.041 137.746 136.685 137.754 155.538C137.261 167.859 135.491 181.923 149.9 187.142C163.61 193.843 164.768 212.007 181.938 222.311C188.878 236.129 207.788 237.345 221.399 240.551C230.002 242.17 238.7 243.36 247.424 244.13C272.68 247.31 292.887 240.116 306.109 218.005C314.957 204.548 321.545 189.012 319.917 172.703C318.296 155.529 315.595 138.445 313.653 121.295Z" fill="white"/>
<path fill-rule="evenodd" clip-rule="evenodd" d="M223.933 0.989652C225.376 -0.616132 227.595 -0.0653275 228.944 1.20433C229.822 1.45846 230.671 1.83641 231.475 2.33653C233.29 2.10775 235.193 2.10775 236.975 2.17181C237.405 1.93395 237.868 1.72214 238.371 1.54022C241.971 0.247364 245.159 0.90407 247.787 2.63512C249.053 1.45798 250.652 0.719275 252.693 0.830917C254.516 0.930846 255.813 1.77378 256.928 2.88375C258.038 1.31095 259.831 0.188794 262.068 0.032686C265.192 -0.185578 268.196 1.04559 270.685 2.95188C272.136 1.31693 274.112 0.377177 276.317 0.368093C277.767 0.109427 279.295 0.211502 280.68 0.621734C282.685 1.21748 284.45 2.33367 285.852 3.78215C288.073 1.69226 290.792 0.188798 293.926 0.408018C297.983 0.696089 301.344 3.627 302.906 7.23445C305.654 8.31525 308.187 9.85697 310.307 12.0547C310.419 12.1704 310.526 12.2918 310.64 12.4135C311.782 12.8273 312.857 13.414 313.802 14.1864C316.8 16.6375 317.469 20.1845 316.476 23.66C316.615 24.2163 316.732 24.7821 316.841 25.3475C319.647 25.7671 322.198 27.359 323.648 29.9511C325.634 33.5082 325.242 38.1964 323.093 41.5923C322.169 43.053 320.996 44.2837 319.679 45.3599C321.168 48.6846 320.453 52.6518 318.053 55.3408C317.467 56.2679 316.749 57.1046 315.941 57.8622C316.832 61.2994 315.245 64.8457 312.079 66.6824L311.809 67.3487C311.762 67.4594 311.716 67.5696 311.667 67.6788C311.633 67.8203 311.59 67.9571 311.548 68.095C311.473 69.3147 311.064 70.5117 310.251 71.6396C308.591 73.9506 306.532 75.4579 305.44 78.1557L305.33 78.4393C304.863 79.7161 303.347 80.6169 302.055 80.2229C309.226 94.6941 312.984 110.796 315.566 126.576C316.853 134.449 317.846 142.35 318.652 150.279L319.44 158.176C320.136 165.194 320.755 172.237 320.759 179.28C320.769 195.211 316.131 210.535 306.177 223.213C296.764 235.197 283.442 243.882 268.393 247.303C252.856 250.829 234.629 249.44 220.696 241.367C216.588 238.993 220.187 233.282 224.366 235.192C232.28 238.811 240.321 241.498 249.092 242.098C257.641 242.689 266.212 241.639 274.321 238.89C287.735 234.339 299.149 224.805 306.486 212.93C310.1 207.081 312.716 200.729 314.111 194.018C315.846 185.656 315.583 177.011 314.946 168.539L314.902 167.963C313.644 151.642 311.981 135.221 309.299 119.064C306.927 104.775 303.279 90.7768 298.543 77.0876C296.688 75.483 294.613 74.1553 292.391 73.1467C276.132 72.4792 259.841 72.6743 243.601 73.7768C229.752 74.7233 215.967 76.3243 202.288 78.6578L200.823 78.9107C197.796 79.4407 194.432 79.7438 191.58 80.9418C189.132 81.9726 188.139 83.9533 187.523 86.3881C185.971 92.5471 185.735 99.2879 185.472 105.603C185.214 111.777 185.795 118.003 185.292 124.156C184.866 129.305 183.522 134.575 179.641 138.299C177.611 140.249 175.112 141.315 172.766 142.794C171.25 143.75 170.607 144.735 170.802 146.504C171.225 150.375 174.396 155.249 170.833 158.565C170.206 159.146 169.123 159.22 168.504 158.565C167.035 156.995 165.002 155.794 163.26 154.527C162.53 154.002 163.136 152.981 163.966 153.344C165.054 153.825 166.166 154.391 167.302 154.886C164.793 152.856 161.223 151.859 158.252 151.269C156.757 150.975 155.183 150.889 153.625 151.028C152.473 151.565 151.296 152.067 150.119 152.558C148.622 153.174 147.111 153.734 145.589 154.264C140.309 158.493 137.789 165.371 138.89 172.096C139.491 175.809 141.234 179.847 144.52 182.015C148.412 184.58 153.625 183.478 157.831 185.383C161.768 187.167 164.165 190.769 165.959 194.499L166.708 196.05C168.373 199.488 170.084 202.835 172.362 205.962C174.993 209.586 178.217 212.84 181.734 215.634C183.44 216.987 185.258 218.202 187.136 219.311L187.652 219.61C189.553 220.707 190.916 221.752 191.045 224.071C191.086 224.879 190.568 225.618 189.898 226.036C187.02 227.831 184.155 225.586 181.76 224.021C179.173 222.333 176.701 220.435 174.411 218.362C170.062 214.432 166.3 209.763 163.404 204.695C161.199 200.834 159.943 195.402 156.458 192.412C154.33 190.588 151.322 190.573 148.664 190.239C146.191 189.925 143.851 189.421 141.651 188.223C132.7 183.337 130.17 171.51 132.293 162.369C132.653 160.829 133.157 159.328 133.779 157.881C130.447 158.429 126.705 155.044 128.057 151.628C128.16 151.369 128.278 151.128 128.391 150.879C126.195 149.459 124.463 147.308 123.64 144.494C123.219 143.038 123.157 141.567 123.378 140.148C122.314 139.446 121.434 138.48 120.869 137.293C119.1 136.49 117.532 135.288 116.596 133.57C115.301 131.199 115.465 129.017 116.452 127.051C116.314 126.804 116.18 126.552 116.051 126.293C112.427 124.035 109.897 120.144 110.185 115.83C110.278 114.4 110.637 113.111 111.193 111.95C111.146 111.803 111.1 111.651 111.059 111.505C108.025 109.989 105.516 107.498 104.622 104.174C103.727 100.828 104.781 97.4938 106.889 94.9269C103.804 92.7094 101.948 89.6121 103.074 84.9279C103.532 83.0235 104.452 81.2899 105.696 79.8297C105.691 79.7847 105.681 79.7393 105.671 79.6934L105.382 79.4735C101.574 76.5201 99.3846 72.7565 101.722 68.128C102.771 66.0467 104.267 64.5961 106.025 63.6413L106.113 63.3685C104.853 60.7159 104.427 57.7701 105.295 54.6729C106.005 52.1218 107.686 50.0903 109.835 48.7417C109.691 47.5992 109.712 46.3822 109.943 45.0628C110.329 42.8352 111.455 40.8899 113.1 39.5105C113.162 39.217 113.239 38.9296 113.326 38.6411C113.882 36.8782 114.92 34.9633 116.123 33.5428C117.116 32.3657 118.226 31.9363 119.583 31.8907C119.501 30.8048 119.558 29.703 119.784 28.5863C120.478 25.141 122.709 21.9017 126.016 20.4314C127.373 19.8302 128.802 19.6538 130.18 19.7998C131.352 17.3745 133.64 15.6169 136.453 15.2378C137.548 15.0862 138.566 15.0958 139.501 15.2328C140.031 14.9899 140.581 14.7731 141.157 14.5756C141.537 14.4441 141.923 14.3229 142.309 14.2022C143.61 12.6155 145.322 11.3468 147.322 10.5844C149.63 9.70014 151.98 9.79074 154.062 10.5335L154.726 10.397C155.764 8.62866 157.419 7.25932 159.965 6.63775C162.854 5.93563 165.82 6.91578 168.093 8.6999C168.103 8.6999 168.113 8.6999 168.13 8.69417C169.317 6.08217 171.347 4.26314 174.756 4.38936C176.881 4.4704 178.799 5.5065 180.278 6.982C181.101 6.88039 181.923 6.78932 182.751 6.69895C183.625 5.69298 184.598 4.75369 185.671 3.91004C187.431 2.52515 189.718 2.6368 191.013 4.58659C191.298 5.01093 191.558 5.44028 191.821 5.86988L193.009 5.78908C194.408 3.93467 196.314 2.68174 198.927 2.58109C201.322 2.48451 203.03 3.63704 204.33 5.24832C205.389 5.22322 206.454 5.20337 207.518 5.18783C208.757 3.77808 210.217 2.5352 211.884 1.50436C213.159 0.716168 215.04 0.984392 216.075 2.03555C216.771 2.74987 217.42 3.49575 218.026 4.26768C219.584 2.55193 221.687 1.42164 223.933 0.989652ZM148.263 161.434C150.664 160.09 153.892 161.546 156.217 162.687C159.05 164.078 161.861 166.175 163.593 168.802C165.954 172.378 160.408 175.269 157.923 172.06C156.397 170.086 155.178 168.094 153.327 166.366C151.636 164.778 149.183 163.719 148.211 161.628C148.175 161.556 148.186 161.475 148.263 161.434ZM149.951 74.6052L149.996 74.479C150.678 72.6434 147.698 71.8521 147.021 73.6726C145.995 76.4319 147.178 79.4316 149.951 80.6231C150.72 80.9535 151.598 80.8387 152.061 80.0795C152.451 79.4402 152.27 78.3326 151.508 78.0058C149.948 77.3353 149.425 76.1517 149.951 74.6052ZM124.275 69.4725C125.767 68.1792 123.578 66.0412 122.094 67.3293C120.709 68.5308 119.682 70.1627 119.949 72.0398C120.22 73.9528 121.688 75.3032 123.295 76.2576C124.998 77.2698 126.55 74.6494 124.852 73.6398L124.661 73.5253C123.948 73.0902 123.114 72.4919 122.993 71.636C122.865 70.7266 123.648 70.0166 124.275 69.4725ZM132.745 46.649L132.851 46.5727C134.453 45.4489 132.914 42.8187 131.294 43.955C129.808 44.9973 128.616 46.3513 128.491 48.2189C128.369 50.0336 129.309 51.6071 130.537 52.8839C131.905 54.3042 134.083 52.1579 132.719 50.7405C131.389 49.3592 131.13 47.8519 132.745 46.649Z" fill="black"/>
<path fill-rule="evenodd" clip-rule="evenodd" d="M271.427 199.757C272.215 198.408 274.031 197.16 275.693 197.352C283.137 198.21 283.125 207.079 280.251 212.257C277.701 216.847 272.427 219.544 267.148 219.149C261.602 218.736 256.876 215.532 254.798 210.433C253.42 207.06 252.785 200.835 256.445 198.568C256.513 198.525 256.625 198.535 256.679 198.597C258.434 200.603 258.502 203.613 260.037 205.845C261.466 207.923 263.685 209.637 266.284 209.902C268.227 210.101 270.19 209.412 270.95 207.698C271.361 206.773 271.312 206.269 271.159 205.633L271.018 205.078C270.531 203.137 270.315 201.659 271.427 199.757ZM273.417 160.859C277.299 163.178 283.215 168.585 279.039 174.335C274.123 179.405 267.044 173.591 263.556 170.964C260.322 168.925 256.686 174.165 259.687 176.544C284.894 194.882 295.123 161.466 275.381 158.131C273.208 157.765 272.4 160.141 273.417 160.859ZM232.418 144.956C234.801 141.442 240.24 141.959 241.552 146.128C242.265 148.387 241.281 150.416 241.333 152.673C241.376 154.578 241.247 156.701 240.654 158.547C239.298 162.754 235.448 165.726 230.892 165.604C226.351 165.48 222.35 162.656 220.45 158.678C218.542 154.684 218.946 150.553 220.338 146.491C220.406 146.297 220.666 146.202 220.822 146.367C222.469 148.086 223.674 149.902 224.923 151.829L226.2 153.804C227.179 155.288 228.597 157.189 230.423 157.07L230.695 157.043C231.204 157 231.126 157.098 231.515 156.419C231.698 156.106 231.664 155.52 231.751 155.15L231.783 155.026L231.766 154.956C231.727 154.777 231.688 154.44 231.656 153.852L231.652 153.723C231.52 150.976 230.729 147.445 232.418 144.956ZM292.826 147.294C292.397 142.8 298.827 141.803 300.964 145.128C302.078 146.862 302.404 149.039 302.65 151.105L302.765 152.083C303.018 154.203 303.117 156.407 302.183 158.384C300.708 161.499 297.501 163.144 294.042 162.884C290.738 162.635 287.725 160.753 286.136 157.897C284.719 155.346 283.31 150.369 285.031 147.71C285.135 147.548 285.342 147.526 285.486 147.65C287.111 149.07 287.377 151.657 288.343 153.505C289.338 155.41 290.852 157.268 293.142 157.557C295.335 157.835 296.172 156.658 295.615 154.602C294.892 151.951 293.096 150.149 292.826 147.294ZM234.153 118.239L235.205 117.843C238.809 116.506 243.754 114.961 246.682 117.839C248.49 119.614 248.833 122.229 247.543 124.395C245.981 127.019 243.177 127.083 240.471 127.47C237.392 127.909 234.263 128.745 231.396 129.936C228.169 131.279 225.173 132.952 222.238 134.821C219.447 136.597 216.668 139.5 213.329 140.047C213.192 140.069 213.037 140.012 213.003 139.865C212.243 136.656 214.351 133.499 216.232 130.996C218.508 127.965 221.265 125.478 224.346 123.248C227.32 121.095 230.719 119.539 234.153 118.239ZM299.589 129.646L299.91 129.591C302.095 129.234 304.074 129.316 305.719 131.016C306.977 132.313 307.461 133.994 306.863 135.709C306.308 137.291 305.074 138.898 303.278 139.229C297.223 140.349 290.516 140.164 284.43 139.316C281.643 138.928 278.835 138.453 276.121 137.705L274.873 137.349C272.609 136.714 270.018 136.049 268.373 134.413C267.781 133.825 268.122 132.983 268.83 132.711C271.699 131.606 275.632 132.194 278.694 132.107C282.254 132.007 285.819 131.745 289.363 131.384C292.823 131.03 296.174 130.262 299.589 129.646Z" fill="black"/>
<path fill-rule="evenodd" clip-rule="evenodd" d="M227.612 212.813C231.774 203.229 240.861 196.186 251.321 193.612C259.001 191.725 267.064 191.785 274.893 192.533C278.996 192.923 283.396 193.241 287.263 194.74C290.565 196.019 293.255 198.436 295.279 201.274C297.686 204.637 299.324 208.486 300.475 212.431C300.638 212.992 300.791 213.557 300.935 214.126C300.434 217.102 299.373 219.636 296.567 221.508C293.829 223.334 290.563 224.083 287.307 224.348C286.988 224.197 286.679 224.042 286.394 223.884C281.32 221.027 277.75 214.281 271.345 215.194C265.628 216.009 261.866 223.078 258.466 227.221C247.556 228.472 236.653 225.249 227.775 219.12C227.323 217.021 227.298 214.903 227.612 212.813ZM308.35 205.543C307.477 203.136 306.377 200.805 305.075 198.608C300.767 191.345 294.153 185.558 286.302 182.249C267.731 174.436 243.701 179.944 228.703 192.761C223.58 197.143 218.399 203.581 216.831 210.506C216.364 210.597 215.921 210.836 215.559 211.173C204.722 204.467 193.563 198.018 184.832 188.725C178.49 181.972 174.08 173.98 171.379 165.199C171.157 164.477 169.972 164.582 170.008 165.383C170.018 165.57 170.028 165.756 170.038 165.942C169.926 165.598 169.393 165.775 169.351 166.11C167.898 176.777 166.081 188.087 167.755 198.811C168.755 205.209 171.712 209.892 175.667 214.95C179.903 220.372 184.698 225.414 189.602 230.25C192.714 233.32 195.963 236.86 199.774 239.112C204.206 241.728 209.231 243.714 213.96 245.732C218.771 247.793 223.655 249.693 228.63 251.343C238.576 254.651 248.855 256.937 259.315 257.939C267.689 258.737 277.261 259.607 285.287 256.511C291.437 254.14 296.401 249.851 300.341 244.692C304.627 239.072 308.017 232.67 309.891 225.921C311.838 218.909 308.759 206.672 308.35 205.543Z" fill="black"/>
</svg>
