<svg width="476" height="450" viewBox="0 0 476 450" fill="none" xmlns="http://www.w3.org/2000/svg">
<path fill-rule="evenodd" clip-rule="evenodd" d="M451.761 285.242C455.945 283.057 460.032 280.682 464.052 278.211C466.885 276.516 464.377 272.247 461.472 273.79C459.987 274.579 458.508 275.376 457.023 276.161C458.193 275.153 459.275 274.057 460.246 272.862L460.179 272.796C463.923 269.441 459.113 263.107 454.857 265.865C451.101 268.588 447.311 271.367 443 273.159C434.074 276.946 424.227 277.572 414.644 277.683C411.136 277.418 407.787 278.027 404.385 278.704C405.72 273.351 409.057 269.307 410.829 264.122C412.134 258.888 404.581 255.322 401.904 260.353C401.247 261.589 400.62 262.838 400.009 264.095C394.223 269.359 384.562 268.897 378.725 274.55C375.401 277.501 373.775 281.506 373.133 285.524C372.695 288.253 373.374 290.989 371.725 293.407C363.749 304.691 351.151 322.526 344.749 334.944C340.22 305.435 328.122 268.936 315.624 241.955C311.491 233.326 306.763 224.893 300.555 217.579C301.259 215.14 298.776 210.81 297.196 212.143C292.337 206.202 283.745 204.665 276.835 201.712C267.51 197.722 259.771 189.43 255.969 180.004C251.08 162.058 239.05 159.778 222.364 160.571C206.397 160.552 194.583 167.384 191.098 183.644C184.02 195.987 167.307 193.945 155.284 197.213C146.472 199.227 137.921 202.34 129.794 206.293C120.753 197.714 88.3723 233.719 85.429 242.986C87.1617 243.322 88.8838 243.726 90.5904 244.219C92.1102 244.658 91.4721 246.956 89.9391 246.588C88.0316 246.13 86.1118 245.813 84.183 245.594C84.124 245.78 84.0726 245.964 84.0343 246.144C83.8177 246.13 83.6015 246.111 83.3851 246.097C83.8651 246.347 84.3271 246.637 84.7775 247.01C85.8659 247.915 84.4489 249.659 83.2923 248.94C82.2028 248.124 80.7756 248.253 79.4687 247.979C79.391 250.667 69.8008 247.66 68.3112 246.768C61.6907 245.941 54.8795 246.828 48.699 243.635C40.4751 241.903 32.1894 239.986 24.0579 237.78C21.9052 238.619 19.882 241.624 21.5919 243.829C22.5536 244.83 21.3173 246.468 20.1063 245.757C16.0449 243.365 12.9039 239.632 10.2408 235.61C8.98751 234.345 6.76243 234.616 5.07844 234.092C4.85315 234.496 4.72049 234.947 4.72242 235.411C-2.42119 236.587 2.67487 244.392 6.26602 246.824C4.36099 248.064 4.28866 250.495 4.45536 252.523C4.05157 253.247 3.91678 254.142 4.26816 254.952C5.6116 258.05 8.51682 260.657 10.7258 263.167C13.165 265.936 15.3396 268.723 18.3075 270.97C29.6197 279.595 43.2709 284.418 57.2754 286.306C62.2478 287.069 69.4005 288.238 72.4794 292.444C71.7241 297.437 70.3369 302.225 69.0786 307.092C67.319 313.553 67.4387 320.318 67.4153 326.907C67.1695 326.709 66.697 326.75 66.6268 327.127C66.2174 329.858 65.9131 332.65 64.254 334.944C62.7994 339.212 61.8315 343.762 61.2877 348.245C59.1094 369.496 58.5892 391.373 63.501 412.294C65.3963 420.056 68.4789 427.432 72.6788 434.223C73.931 436.248 75.9445 436.842 77.7522 436.445C83.803 439.59 91.4255 440.597 97.9473 439.799C120.181 433.502 112.434 448.663 143.609 444.02C197.418 437.163 251.799 450.64 305.494 442.728C306.817 452.947 324.129 450.015 330.143 445.695C348.174 432.286 357.128 389.83 366.176 368.291C372.398 351.316 382.813 321.25 396.453 309.858C400.543 306.657 405.488 304.973 410.434 303.613C428.897 298.854 447.429 294.352 465.926 289.727C469.063 288.953 468.5 283.602 465.145 283.944C460.693 284.401 456.226 284.813 451.761 285.242Z" fill="white"/>
<path fill-rule="evenodd" clip-rule="evenodd" d="M40.7721 282.059C39.5219 281.904 38.2962 281.459 37.0787 281.107C35.2198 280.564 33.3976 279.93 31.6039 279.206C27.9026 277.723 24.3112 275.969 20.9448 273.825C15.5068 270.353 10.7022 265.907 7.07838 260.553L6.82949 260.179C4.76067 257.027 0.944428 250.027 5.22344 247.633C2.46559 245.327 -0.141038 241.187 0.00593384 237.992C0.214402 233.471 5.75447 233.533 8.61849 235.449C10.4937 236.704 11.8991 238.462 13.3086 240.191C14.8694 242.111 16.5362 243.943 18.2686 245.705C18.7282 246.171 19.1924 246.627 19.6648 247.076L20.1397 247.522C20.0663 247.346 20.0009 247.167 19.9436 246.983C18.9876 244.005 20.1276 240.125 23.1059 238.76C24.9285 237.925 26.8216 238.435 28.5877 239.145L28.8585 239.255C31.2361 240.239 33.6426 241.11 36.1185 241.81C46.2099 244.658 56.7425 245.132 67.0832 246.553C71.0665 247.107 75.1235 247.801 79.0865 248.822C80.5982 242.402 84.3037 236.246 88.3239 231.183C107.575 206.958 139.324 198.952 168.369 193.769C171.017 193.299 173.21 196.805 174.751 195.976C177.671 194.405 180.241 192.184 182.496 189.766C187.306 184.613 190.717 178.552 194.726 172.81C196.706 169.973 201.266 172.511 199.427 175.556L198.526 177.043C194.819 183.139 190.711 189.422 185.393 194.148C182.566 196.658 179.429 198.641 175.842 199.878C173.125 200.814 169.313 201.603 166.338 200.696L165.981 200.176C166.099 200.35 166.219 200.522 166.338 200.696C174.102 211.947 183.84 221.472 194.103 230.458C204.463 239.526 215.638 247.644 226.882 255.585L227.818 256.244C246.133 242.881 261.606 225.448 272.461 205.531C270.186 205.258 267.935 203.798 265.99 202.711C263.648 201.396 261.447 199.826 259.73 197.734C255.992 193.176 256.479 187.302 255.804 181.772C255.764 181.429 256.216 181.342 256.425 181.514C258.452 183.199 259.163 185.958 260.008 188.341C260.941 190.961 261.995 193.119 264.131 194.962C266.121 196.68 268.546 197.941 270.904 199.066C272.12 199.642 278.156 201.124 278.842 202.352C289.269 199.903 299.426 204.133 307.152 211.271C314.616 218.165 320.095 227.128 324.933 235.977C330.093 245.418 334.32 255.26 337.966 265.376C341.659 275.642 344.49 286.135 346.047 296.942C347.36 306.052 348.167 315.305 348.687 324.518L348.751 325.671C356.465 313.559 364.37 301.575 372.44 289.699C370.605 284.797 372.635 279.796 376.072 276.01C379.88 271.821 385.145 269.876 390.183 267.611L390.845 267.311C393.273 266.203 395.693 264.983 397.791 263.324C399.808 261.723 401.291 259.514 403.416 258.039C406.505 255.89 412.111 256.346 412.254 261.044C412.328 263.624 411.219 266.451 410.206 268.768C409.059 271.388 407.51 273.763 405.671 275.946C405.586 276.046 405.493 276.128 405.399 276.192L405.329 276.236C407.87 276.656 410.43 276.996 413.041 277.114C418.309 277.356 423.631 276.967 428.788 275.855C434.066 274.72 439.181 272.871 443.928 270.297C447.986 268.098 451.745 265.254 456.353 264.583C456.779 264.517 457.206 264.476 457.649 264.451C458.384 264.411 459.119 265.277 458.829 266.004C458.67 266.406 458.502 266.803 458.318 267.203C456.725 270.713 454.28 274.118 451.233 276.704L450.997 276.901C452.072 276.53 453.13 276.112 454.172 275.642C460.297 272.885 465.852 268.715 472.418 267.039C472.729 266.957 473.042 266.884 473.358 266.814C475.388 266.377 476.458 268.584 475.266 270.096C475.073 270.342 474.882 270.583 474.68 270.823C471.753 274.461 468.521 277.837 464.957 280.87C463.737 281.908 462.478 282.914 461.194 283.875C460.654 284.281 460.111 284.679 459.562 285.072L459.291 285.263C459.933 284.811 460.565 284.348 461.194 283.875C465.214 282.656 469.179 281.214 473.056 279.616C474.595 278.982 475.792 280.543 475.957 281.827C476.504 286.126 471.731 289.237 468.626 291.305C465.514 293.381 462.085 294.959 458.575 296.226C451.828 298.665 444.741 299.773 437.665 300.765L434.228 301.244C420.624 303.147 406.416 305.423 396.654 316.011C391.185 321.946 387.483 329.32 384.095 336.574C380.713 343.822 377.743 351.259 374.923 358.74C372.003 366.481 369.456 374.365 366.753 382.183C364.268 389.362 361.301 396.449 358.362 403.465L357.9 404.574C351.661 419.483 344.208 433.527 333.823 445.975C332.11 448.031 329.344 445.115 330.926 443.078C341.789 429.068 349.348 412.535 355.587 396.043C358.426 388.54 360.804 380.855 363.533 373.309L365.157 368.828C367.325 362.853 369.512 356.885 371.794 350.958C374.683 343.456 377.857 336.048 381.489 328.879L381.873 328.123C385.43 321.208 389.655 314.391 395.47 309.158C405.936 299.732 419.864 297.472 433.329 295.681L437.564 295.122C443.257 294.366 448.966 293.53 454.503 292.008C457.697 291.134 460.819 290.013 463.752 288.468C464.92 287.855 466.061 287.182 467.164 286.445C464.017 287.369 460.826 288.125 457.579 288.717C455.99 289.007 454.416 289.226 452.847 289.376C448.808 289.777 444.799 289.759 440.66 289.543C440.31 289.523 440.194 288.97 440.571 288.903C443.453 288.388 446.338 287.748 449.212 287.052L450.074 286.841C450.09 286.364 450.277 285.857 450.67 285.375C452.101 283.633 454.818 282.741 456.701 281.512C458.674 280.224 460.587 278.835 462.408 277.346C464.075 275.987 465.676 274.548 467.218 273.043L467.678 272.589C467.525 272.742 467.371 272.892 467.218 273.043C463.058 274.965 459.115 277.429 454.772 278.949C451.32 280.164 447.699 280.98 444.048 281.272L443.82 281.289L443.594 281.303C439.782 281.577 435.946 281.467 432.192 282.293C431.77 282.388 431.639 281.823 432.016 281.662C435.296 280.299 438.707 279.771 442.155 279.133C442.229 278.864 442.418 278.622 442.745 278.468L443.627 278.046C446.253 276.783 448.703 275.509 450.886 273.461C452.814 271.649 454.421 269.533 455.626 267.186C450.801 268.245 446.564 271.902 442.176 273.958C437.396 276.203 432.339 277.812 427.141 278.729L426.549 278.831C416.837 280.452 405.159 280.245 396.458 275.194C396.18 275.029 396.381 274.658 396.667 274.702C399.135 275.107 401.577 275.586 404.022 276.01C403.542 275.573 403.331 274.788 403.882 274.159C406.077 271.643 407.812 268.768 408.92 265.621L409.133 265.006C409.643 263.548 410.508 261.282 409.626 259.965C408.785 258.71 406.803 258.882 405.619 259.412C403.155 260.524 401.517 263.301 399.44 264.975C397.178 266.807 394.604 268.164 391.968 269.377L391.413 269.63C386.855 271.682 381.984 273.407 378.4 277.029C376.472 278.974 374.813 281.405 374.258 284.132C374.005 285.383 374.005 286.669 374.339 287.909C374.604 288.878 375.161 289.475 374.842 290.459C374.424 291.73 372.951 293.25 372.191 294.383C371.307 295.69 370.429 297.002 369.551 298.315C367.799 300.939 366.055 303.571 364.308 306.199C360.82 311.463 357.368 316.752 353.945 322.056C352.831 323.783 351.719 325.514 350.613 327.245L348.956 329.842L348.08 331.213L346.587 333.563C346.639 333.779 346.635 334.008 346.565 334.207C346.31 334.934 345.834 335.429 345.241 335.789L345.136 335.851C336.417 349.637 327.838 363.512 319.172 377.331C318.71 381.549 318.277 385.771 317.902 389.994C317.047 399.549 316.463 409.13 316.276 418.723C316.185 423.367 316.556 428.037 316.757 432.676C316.856 434.89 316.989 437.101 317.165 439.313L317.293 440.879C317.467 443.032 317.563 445.171 316.79 447.222C316.103 449.025 314.011 449.429 312.773 448.056C296.624 447.406 280.461 446.911 264.298 446.606C235.367 446.051 206.426 446.136 177.491 446.695C162.959 446.977 148.423 447.373 133.895 447.864C126.737 448.1 119.575 448.437 112.413 448.536C108.554 448.588 102.481 447.182 102.17 442.838L102.162 442.707C101.68 442.837 101.181 442.943 100.671 443.02C100.443 443.055 100.225 443.045 100.023 442.999L99.9231 442.972C94.1711 444.726 86.895 442.223 81.4294 440.765L80.9782 440.645C75.7609 439.286 71.5691 437.341 68.1495 433.015C62.1641 425.442 60.1213 415.273 59.0591 405.9C58.0622 397.082 58.0049 388.097 59.2184 379.294C58.5035 372.122 59.202 364.719 60.0152 357.587C60.4155 354.06 60.8854 350.536 61.4491 347.03C61.7638 345.071 62.1764 343.133 62.5972 341.202C62.7651 340.428 62.9051 339.596 63.118 338.794L63.2141 338.45C62.5603 338.537 61.8454 338.394 61.155 338.013C59.5126 337.109 59.0345 335.282 59.0059 333.534C58.916 328.26 59.5453 322.838 60.1008 317.597C60.6605 312.366 61.4286 307.114 62.4336 301.948L62.6937 300.616C63.4553 296.752 64.3267 292.763 65.8616 289.131C60.0968 288.15 54.3484 287.108 48.7554 285.333C46.0261 284.463 43.3379 283.38 40.7721 282.059ZM341.659 336.93C341.568 336.951 341.483 336.976 341.398 336.999C339.093 337.645 336.765 338.192 334.444 338.782C330.431 339.792 326.509 340.919 322.779 342.673C321.998 352.54 320.839 362.373 319.739 372.213L319.519 374.181C321.211 371.043 322.943 367.927 324.754 364.85C330.265 355.469 335.902 346.164 341.659 336.93ZM64.6193 337.908C64.6316 339.08 64.3864 340.298 64.2557 341.426C64.0432 343.257 63.8716 345.096 63.6551 346.928C63.2139 350.606 62.838 354.288 62.5642 357.983C62.3886 360.343 62.2741 362.708 62.172 365.075C64.4885 356.413 67.557 347.941 70.474 339.455C69.9865 339.405 69.4879 339.285 68.9737 339.148L68.1081 338.916C67.5978 338.784 65.942 338.376 64.6193 337.908ZM348.956 329.842L348.971 330.231C349.033 331.608 348.207 332.385 347.207 332.586C347.788 331.67 348.372 330.755 348.956 329.842ZM83.8832 264.563C86.3224 264.778 88.7124 265.298 90.9922 266.197L91.2121 266.283C92.8984 266.934 95.3637 267.752 95.9152 269.553C96.0705 270.063 95.6538 270.485 95.1757 270.525C93.3455 270.672 91.1883 268.711 89.4927 268.048C87.6051 267.313 85.6278 266.766 83.6258 266.474C79.1275 265.816 74.4374 266.315 70.2048 267.955C69.9555 268.054 69.8002 267.656 70.0249 267.538C74.2902 265.217 79.0336 264.134 83.8832 264.563ZM32.1967 276.251C31.9147 276.002 31.6328 275.741 31.3549 275.48C29.1644 273.407 27.2248 270.988 25.7885 268.329L25.4104 267.609C24.2408 265.343 22.8044 262.115 25.5533 260.483C27.1958 259.506 29.1733 259.752 31.0035 260.344C31.122 260.38 31.2406 260.423 31.3589 260.464C32.1762 260.75 32.9646 261.092 33.6674 261.419C36.7193 262.821 39.4116 264.861 42.2308 266.66C45.2853 268.609 48.3013 269.856 51.8267 270.585L52.1588 270.653C55.4679 271.307 59.0552 271.726 61.3635 274.449C61.9436 275.136 61.4126 276.424 60.4116 276.083C54.0299 273.931 47.2764 273.455 41.4176 269.92C38.9908 268.458 36.6948 266.778 34.2148 265.393C32.8992 264.656 31.5409 264.012 30.0936 263.571L29.3027 263.337C28.8395 263.202 28.2866 263.068 27.9149 263.202C27.2072 263.448 27.433 263.827 27.6519 264.488L27.6738 264.554C29.3938 269.876 34.2966 274.331 38.8396 277.278C39.8816 277.955 40.9479 278.578 42.0347 279.154C49.3908 283.076 57.622 284.902 65.7063 287.069C65.7063 287.069 70.3806 288.375 71.929 288.864C73.653 288.721 75.6182 289.33 76.9175 290.059C78.18 290.765 79.1972 291.714 79.9653 292.83C79.9653 292.83 80.7048 293.447 80.8396 294.403C81.2277 295.29 81.4891 296.245 81.6199 297.243C81.6935 297.827 81.5464 298.278 81.2687 298.597C82.1043 311.426 78.6398 324.186 74.734 336.379L74.3471 337.581L74.0984 338.343C69.8861 351.271 65.0528 364.106 62.8958 377.585C61.4536 386.589 61.4984 395.908 62.5566 404.953L62.6313 405.577C63.6738 414.129 65.6798 423.722 71.116 430.605C73.8886 434.117 77.1738 435.677 81.3737 436.809L81.6036 436.871C85.4032 437.87 89.3255 439.29 93.2434 439.719C96.8796 440.116 99.9274 438.762 103.2 437.495L103.204 437.491C110.096 431.388 113.226 422.504 115.538 413.535C121.532 390.329 120.788 366.239 117.389 342.692C115.616 330.391 113.206 318.195 110.803 306.002C109.602 299.908 108.307 293.826 107.232 287.711L106.594 284.114C106.242 282.115 105.902 280.113 105.611 278.104C105.218 275.403 105.1 272.745 104.965 270.026C101.664 264.554 96.8713 260.046 91.3191 256.813C87.3439 254.496 83.1356 252.889 78.7928 251.725C66.3766 248.377 52.841 248.615 40.3472 246.039C36.1502 245.175 32.1661 243.893 28.1841 242.355L27.6411 242.144C25.815 241.433 23.9519 241.036 23.045 243.191C22.3994 244.724 22.7835 246.318 23.7518 247.605C26.1254 250.76 30.8973 252.224 34.4887 253.359C36.6499 254.047 38.856 254.591 41.0867 254.995C43.3176 255.399 45.5564 255.501 47.6974 256.29C48.5225 256.592 48.686 257.905 47.6974 258.137C44.9844 258.771 42.2554 258.228 39.5588 257.7C36.5967 257.116 33.6797 256.286 30.8443 255.236C30.3212 255.043 29.7801 254.84 29.2288 254.623L28.8138 254.459C29.2427 254.77 29.6716 255.076 30.1048 255.383C30.2191 255.465 30.1497 255.681 29.9985 255.627C23.3317 253.14 17.2657 248.65 12.5662 243.339L12.3324 243.073C10.6778 241.175 6.90685 235.438 3.72819 237.035C0.743501 238.534 5.83144 244.312 7.76509 246.673L7.98961 246.952C10.1876 247.008 12.3162 248.377 14.0975 249.481C17.1902 251.398 20.4221 253.049 23.715 254.594C30.2601 257.671 37.2098 259.843 43.6852 263.074C43.7711 263.121 43.7057 263.229 43.6241 263.217C39.5018 262.56 35.4243 261.51 31.4409 260.206L31.2632 260.15L31.0855 260.09C28.5972 259.274 26.1418 258.35 23.7272 257.366C21.043 256.269 18.4202 255.039 15.8748 253.645C13.5705 252.388 11.013 250.119 8.34099 249.783C8.05497 249.746 7.80164 249.742 7.58099 249.764C4.51275 250.021 7.04995 255.105 7.908 256.625C9.30926 259.122 11.0008 261.427 12.9414 263.533C16.8758 267.808 21.6437 271.196 26.8038 273.832C28.5647 274.731 30.3663 275.524 32.1967 276.251Z" fill="black"/>
<path fill-rule="evenodd" clip-rule="evenodd" d="M227.073 12.5879C250.272 12.5879 280.217 27.1457 282.77 42.0554C285.779 59.6261 301.894 127.048 298.254 148.668C294.615 170.288 275.007 185.854 243.631 185.854C212.254 185.854 188.835 168.736 183.457 162.859C178.079 156.982 168.115 135.998 168.115 135.998C168.115 135.998 151.315 133.762 151.236 120.063C151.156 106.361 162.158 101.378 162.158 101.378C162.158 101.378 158.236 47.3131 168.115 33.2373C177.994 19.1612 203.875 12.5879 227.073 12.5879Z" fill="white"/>
<path fill-rule="evenodd" clip-rule="evenodd" d="M281.35 39.6492C281.333 39.3347 281.791 39.298 281.876 39.5759C286.881 56.1168 289.965 69.0074 293.214 85.9655L294.173 90.954C296.736 104.259 299.325 117.583 301.512 130.954L301.64 131.751C302.736 138.672 303.367 145.661 301.994 152.595C300.712 159.078 297.206 165.02 292.655 169.752C283.858 178.9 271.634 184.614 259.337 187.169C253.118 188.46 246.703 188.957 240.368 188.509C237.208 188.288 234.054 187.842 230.962 187.184L230.622 187.111C227.504 186.438 224.737 185.635 223.082 182.7C222.664 181.961 222.832 180.694 223.706 180.313C225.358 179.602 226.57 179.304 228.373 179.509C230.092 179.704 231.772 180.224 233.47 180.547C236.719 181.164 240.02 181.474 243.325 181.549C249.817 181.692 256.326 180.878 262.532 178.94C273.195 175.61 284.03 169.238 290.261 159.706C297.589 148.494 294.67 134.885 292.729 122.503L292.671 122.13C290.704 109.473 288.761 96.8159 286.873 84.1512L286.069 78.723C283.953 64.3811 281.955 54.1428 281.35 39.6492ZM173.086 4.54472C178.408 1.03557 185.022 0.173274 191.272 0.22162L192.055 0.231483C200.059 0.353509 240.351 1.3127 253.839 1.6078L257.049 1.67548C261.296 1.75574 269.863 1.83928 274.276 1.92011L274.531 1.92475C276.695 1.96575 278.861 1.982 281.027 2.05142L281.344 2.06303C282.967 2.13226 284.317 2.37496 285.587 3.51882C286.233 4.09859 286.484 4.98255 286.425 5.82473L286.415 5.93439L289.631 6.21634C291.814 6.40933 292.969 8.36832 292.102 10.3507L292.058 10.4466C290.518 13.7326 289.341 23.2966 288.515 26.8321C288.082 28.6918 287.736 30.58 287.531 32.4806C287.368 33.9768 287.351 35.4765 286.517 36.7925C284.74 39.6004 279.739 39.5759 279.65 35.5991C279.646 35.4725 279.65 35.3499 279.662 35.2313C267.078 34.6794 249.898 34.7326 237.332 35.4846C225.594 36.1876 213.909 37.7817 202.409 40.2218C199.494 40.8389 196.59 41.5132 193.706 42.2448C191.339 42.8416 188.435 43.1972 186.319 44.4764C183.95 45.9152 183.995 48.4942 184.252 50.9506C184.528 53.5541 184.989 52.2126 185.642 54.5854L185.681 54.7353C186.356 57.3102 187.189 59.8565 188.292 62.2761C188.922 63.6576 189.935 64.986 189.551 66.5758C189.334 67.471 188.626 68.4273 187.978 69.0527C185.02 71.8933 180.019 70.0826 178.009 73.9737C175.905 78.0423 175.853 83.554 175.675 88.056L175.664 88.3197C175.534 91.4218 175.569 94.5322 175.774 97.6262C175.958 100.446 176.71 103.238 175.745 105.947C175.043 107.918 172.747 108.102 171.545 106.5C171.407 106.315 171.282 106.127 171.164 105.938L171.048 105.748L171.04 105.752C171.154 105.932 171.26 106.116 171.361 106.303C171.471 106.512 171.198 106.74 171.03 106.56C168.204 103.484 164.073 104.097 160.874 106.251C157.634 108.44 156.355 112.602 156.188 116.334C156 120.472 156.368 125.326 158.092 129.151C158.819 130.77 159.856 132.257 161.577 132.874C162.358 133.153 163.101 133.116 163.914 133.18C164.759 133.245 165.777 133.671 166.597 133.615C167.665 133.537 168.623 134.756 168.32 135.777L168.298 135.844C168.282 135.895 168.265 135.943 168.249 135.988C168.289 136.024 168.33 136.071 168.359 136.136C171.463 142.483 175.722 148.132 180.427 153.371C182.786 155.991 185.401 158.399 188.133 160.627C189.481 161.725 190.902 162.825 192.403 163.711C192.9 164.001 193.358 164.198 193.919 164.357C194.18 164.431 194.478 164.467 194.731 164.554L194.994 164.643C195.012 164.649 195.029 164.655 195.047 164.661C195.797 164.746 196.431 165.245 196.681 166.026C197.33 168.06 196.149 169.859 194.13 170.42C191.945 171.031 189.883 169.957 188.151 168.724L188.034 168.641C184.501 166.096 181.245 163.237 178.425 159.903C172.848 153.319 169.355 145.695 167.738 137.264C167.337 138.126 166.798 138.879 165.863 139.401C164.408 140.219 162.672 140.219 161.078 139.944C157.871 139.401 155.138 137.444 153.312 134.794C151.415 132.048 150.709 128.712 150.28 125.464C149.855 122.211 149.647 118.945 150.072 115.684C150.681 110.998 152.646 106.369 156.466 103.803C153.606 97.5689 153.103 90.5798 153.308 83.7543C153.557 75.351 155.007 66.8537 156.122 58.5281L159.293 34.8593L159.423 33.9051C160.188 28.337 161.12 22.7395 163.203 17.493C165.258 12.3226 168.379 7.6468 173.086 4.54472ZM159.742 116.518C164.979 113.975 170.638 116.317 173.457 121.25C175.907 125.539 168.62 128.374 167.404 123.953L167.369 123.816C166.569 120.469 163.308 117.575 159.905 117.127C159.623 117.086 159.414 116.676 159.742 116.518Z" fill="black"/>
<path fill-rule="evenodd" clip-rule="evenodd" d="M253.035 156.32C250.289 155.199 247.839 153.329 246.046 150.94C245.423 150.111 245.263 149.235 245.392 148.432C245.539 147.531 246.073 146.713 246.8 146.166C247.529 145.615 248.442 145.344 249.324 145.483C250.092 145.603 250.854 146.023 251.459 146.893L251.585 147.067C252.65 148.51 254.037 149.691 255.619 150.453C257.142 151.188 258.848 151.532 260.612 151.333C263.973 150.952 266.288 149.134 268.749 146.667C269.055 146.355 269.36 146.032 269.666 145.707C269.859 145.41 270.13 145.22 270.428 145.12C270.759 145.009 271.134 145.015 271.478 145.135C271.809 145.251 272.105 145.47 272.304 145.762C272.491 146.04 272.6 146.382 272.565 146.775C272.339 149.333 271.002 151.617 269.103 153.41C266.993 155.4 264.197 156.779 261.565 157.26C258.666 157.794 255.711 157.413 253.035 156.32ZM262.934 116.855C266.019 118.73 270.72 123.105 267.401 127.756C263.493 131.857 257.87 127.154 255.098 125.029C252.528 123.381 249.639 127.618 252.024 129.542C272.052 144.377 280.182 117.346 264.495 114.648C262.766 114.352 262.126 116.274 262.934 116.855ZM227.042 99.5981C227.383 95.3653 233.826 94.4042 234.468 98.5927C235.041 102.345 234.366 105.791 232.675 109.169C231.063 112.397 227.005 110.891 226.698 107.953C226.286 104.014 226.829 102.231 227.042 99.5981ZM276.094 97.7242C276.993 96.5471 278.291 95.7435 279.844 96.1976C284.7 97.617 283.269 104.513 281.563 107.87C280.637 109.694 277.641 110.156 276.287 108.551C274.081 105.932 273.025 100.706 275.829 98.1276C275.906 97.9943 275.992 97.8599 276.094 97.7242ZM232.608 81.0767L233.375 80.9425C235.748 80.5319 238.697 80.1374 240.376 82.0458C241.268 83.0577 241.573 84.9388 240.376 85.9074C238.272 87.6117 235.944 86.9513 233.422 87.0956C231.343 87.2149 229.345 87.5589 227.344 88.1316C222.95 89.3876 219.371 91.6805 215.619 94.1982C215.128 94.5285 214.625 93.8987 214.859 93.438C217.025 89.1942 221.221 85.7083 225.425 83.5834C227.671 82.4492 230.125 81.5083 232.608 81.0767ZM271.668 79.1757L272.255 79.2958C278.645 80.6319 286.945 83.3004 289.969 89.5783C290.085 90.4659 289.964 90.6562 289.865 90.7803L289.832 90.8217C289.749 90.9279 289.685 91.0743 289.3 91.1951C289.194 91.1696 289.086 91.1427 288.977 91.1141C287.589 90.7506 286.492 90.2497 285.431 89.7301L284.278 89.1623C282.942 88.5069 281.594 87.8753 280.165 87.4091C277.117 86.4143 273.98 85.7135 270.797 85.3393C270.107 85.2582 269.442 85.0252 268.918 84.6259C268.421 84.2469 268.04 83.722 267.866 83.0243C267.641 82.1214 267.707 81.4378 268.19 80.6232C268.554 80.0115 269.076 79.5876 269.674 79.3442C270.283 79.0959 270.977 79.0375 271.668 79.1757Z" fill="black"/>
</svg>
