<svg width="669" height="669" viewBox="0 0 669 669" fill="none" xmlns="http://www.w3.org/2000/svg">
<g clip-path="url(#clip0_87_837)">
<mask id="mask0_87_837" style="mask-type:luminance" maskUnits="userSpaceOnUse" x="0" y="0" width="669" height="669">
<path d="M669 0H0V669H669V0Z" fill="white"/>
</mask>
<g mask="url(#mask0_87_837)">
<path d="M669 0H0V669H669V0Z" fill="white"/>
<path fill-rule="evenodd" clip-rule="evenodd" d="M217.336 577.476C216.496 577.978 215.446 577.812 214.816 577.084C211.038 573.739 206.734 571.039 202.745 567.822C200.645 566.078 198.443 564.508 196.133 563.128C194.349 562.135 193.089 560.587 191.409 559.456L190.989 559.158C188.89 557.927 187.315 556.151 185.321 554.768C183.746 553.603 182.487 551.873 180.912 550.624C178.499 548.779 176.294 546.816 174.089 544.741C172.515 543.581 171.149 542.147 170.205 540.51C169.89 540.041 169.47 539.941 169.155 539.653C167.79 538.453 166.532 537.172 165.272 535.813C162.857 532.87 160.023 530.167 157.608 527.19C155.824 525.027 153.935 522.983 152.151 520.879C150.366 518.853 148.686 516.793 147.007 514.698C143.018 509.81 139.343 504.694 136.089 499.379C133.465 495.186 131.157 490.851 129.058 486.395C127.273 482.853 125.593 479.192 124.334 475.437C123.284 472.406 121.92 469.497 121.185 466.434C120.555 463.544 119.715 460.669 119.085 457.817C117.406 451.209 116.042 444.556 114.887 437.857C114.257 433.913 113.627 429.931 112.892 426.012C112.052 421.413 111.737 416.755 110.897 412.156C110.477 409.463 110.267 406.612 109.952 403.848C109.742 401.173 109.742 398.47 109.322 395.815C108.903 393.15 108.693 390.468 108.588 387.779C108.378 385.282 107.537 382.659 108.378 380.098C107.118 378.306 107.957 376.229 107.748 374.307C107.538 372.386 107.538 370.43 107.223 368.561C106.908 366.635 106.593 364.663 106.278 362.749C105.753 358.862 104.81 355.051 104.285 351.189C103.97 348.831 102.919 346.749 102.395 344.486C101.345 340.158 99.8768 335.944 97.9867 331.908C97.1473 330.302 96.6228 328.586 96.4123 326.818C96.2027 325.471 94.9423 324.898 94.5222 323.672C93.9977 321.685 93.053 319.802 92.318 317.864C92.1084 317.206 91.6874 316.671 91.0576 316.463L91.5821 314.761C91.2673 314.068 90.9542 314.892 90.6393 314.671C90.2192 313.903 89.5894 313.175 89.6938 312.129C89.799 311.145 88.7482 310.855 88.4332 309.939C87.9083 307.952 85.7044 306.599 86.2292 304.192C84.6548 302.826 84.2345 300.846 83.1848 299.182C82.6599 298.405 82.3458 297.462 82.4508 296.524V296.307C82.6607 295.388 80.8758 295.282 81.5056 294.111C79.1964 291.59 79.0922 288.13 78.1475 285.114C76.5729 280.274 74.6831 275.522 74.0533 270.392C73.6334 267.825 72.5829 265.261 72.163 262.652C71.2183 256.789 69.8553 250.979 69.6454 245.005C69.5405 242.536 68.9094 240.088 68.9094 237.619L68.8048 234.763C68.6998 230.479 68.5948 226.193 68.8048 221.909C68.6998 220.916 68.9098 219.913 69.3297 219.015C69.9594 218.019 68.9089 217.118 69.0139 216.021C69.1189 214.718 69.8549 213.596 69.7499 212.172C69.645 211.387 70.0641 210.219 69.9591 209.308C69.7491 206.35 71.2191 203.603 70.9042 200.652C70.9042 199.544 71.2199 198.463 71.7448 197.489C72.8995 194.134 72.4783 190.422 74.1578 187.23C74.8926 185.652 75.3121 183.915 75.3121 182.159V181.479C75.3121 180.976 75.3129 180.492 75.6278 180.206C76.8874 179.014 76.8871 177.33 77.3069 175.893C77.9367 174.354 77.9376 172.641 78.6723 171.109C79.617 169.641 80.2472 168.019 80.6672 166.318C80.8771 163.374 82.3463 160.941 83.3959 158.354C83.9207 157.059 84.0249 155.416 85.7044 154.675C86.5442 154.299 84.8651 152.997 86.1247 152.442L86.2292 152.385C87.0691 152.078 87.1744 151.351 87.1744 150.449C87.0694 149.624 88.5386 149.32 88.3286 148.444C88.0138 147.567 88.1199 146.36 88.5398 146.293C89.799 146.118 88.8539 144.659 89.799 144.592C89.9034 144.557 90.0077 144.476 90.0077 144.373C90.9524 141.399 93.2636 139.254 94.3134 136.31C95.0476 134.566 95.9913 132.966 97.2508 131.596C98.4059 130.249 99.3515 128.813 100.191 127.303C101.765 124.784 104.075 122.849 105.544 120.336C105.964 119.657 107.853 120.233 107.118 118.567C108.273 118.373 108.168 117.171 108.693 116.536C109.323 116.083 109.953 115.722 110.688 115.467C111.318 113.934 112.368 112.586 113.732 111.53C116.147 109.081 118.665 106.784 121.289 104.654L123.598 102.907C126.537 100.579 129.583 98.3248 133.152 96.994C134.097 96.6514 133.885 95.6551 134.619 95.2733C139.133 93.0255 143.439 90.3263 148.372 88.8901C150.367 88.2875 152.359 86.9111 154.459 86.2781C158.658 85.0062 162.753 83.1729 167.267 82.5058C169.891 82.1122 172.619 81.2809 175.244 80.8099C180.912 79.6741 186.579 79.2159 192.352 79.445L195.818 79.6695C198.966 79.8696 202.011 80.0973 205.16 80.5565C206.63 80.7741 207.994 81.4845 209.359 81.5528C210.619 81.6178 211.983 81.9574 213.138 82.5506C214.082 83.0044 215.028 82.296 216.078 82.9453C216.812 83.6051 217.756 83.8619 218.806 83.6421L218.911 83.5918C219.54 83.387 220.38 84.1073 221.115 84.4185C222.269 84.7749 223.318 85.2447 224.368 85.8203C225.103 86.351 226.364 85.3028 226.679 86.7175C227.939 86.0869 228.779 86.963 229.723 87.3439L229.932 87.3925C230.877 87.724 231.821 88.1902 232.766 88.597L236.021 89.9525C236.861 90.4895 237.805 90.8802 238.855 91.1121C240.744 91.2218 242.214 92.3823 244.103 92.7347C246.098 93.2815 247.987 94.0745 249.876 95.0967C251.451 95.8781 253.341 95.4972 255.021 96.4534C256.49 97.4989 258.273 98.2133 260.058 98.5523C261.947 98.7369 263.522 99.9394 265.202 100.042L265.518 100.047C267.722 100.003 269.086 101.531 270.975 101.736C275.068 102.183 278.849 103.908 282.838 104.432C287.876 105.093 292.808 106.376 297.846 106.795C301.206 107.068 304.565 107.237 307.819 107.511C311.177 107.656 314.537 107.519 317.791 107.101C321.884 106.692 325.979 105.949 330.073 104.881C334.063 103.853 337.945 102.222 341.934 101.134C343.718 100.638 345.504 99.8163 347.288 99.372C349.283 98.8939 351.172 97.6344 353.166 97.1492C358.205 95.9334 362.718 93.3707 367.967 92.7142C373.95 90.1149 380.459 89.6608 386.652 87.9163C389.486 87.1022 392.53 87.0428 395.575 86.671L396.204 86.5862C401.557 85.8441 406.909 85.6418 412.263 85.3889C417.196 85.1967 422.131 85.3285 427.065 85.7834C430.634 86.0813 434.098 86.5504 437.667 86.782C439.031 86.877 440.292 88.1118 441.761 87.5025C444.7 88.889 448.163 88.4385 451.102 89.9329C453.201 89.6876 454.986 90.7803 456.875 91.6678C458.24 92.3484 459.709 91.7008 461.073 92.5857C462.228 93.5089 463.698 94.0994 465.168 94.2975C467.687 94.3537 469.682 95.6426 471.886 96.5194C476.924 98.5594 481.964 100.687 486.898 102.901C488.577 103.628 490.466 103.8 491.725 105.361C492.775 106.731 494.979 106.37 495.925 107.942C496.344 108.515 497.078 107.666 497.708 108.159C498.967 109.122 500.752 108.949 501.802 110.479C502.537 111.611 504.427 111.268 505.267 112.618L505.372 112.814C505.791 113.769 507.787 112.055 507.891 114.027C509.781 114.513 511.249 115.843 512.824 116.864C514.083 117.708 515.868 117.668 516.918 119.13C517.863 120.377 520.067 119.965 520.697 121.711C523.006 122.138 524.37 124.171 526.575 125.014C528.149 125.749 529.62 126.694 530.985 127.823C533.084 129.464 535.287 131.04 537.596 132.558C538.331 133.117 539.173 133.72 539.907 134.363C540.222 134.714 540.327 135.33 540.957 135.592C544.946 137.248 547.989 140.293 551.138 143.044C553.027 144.45 554.707 146.001 556.282 147.683L556.807 148.247C557.331 148.805 558.38 149.229 558.695 149.954C559.745 151.974 561.531 153.196 563.105 154.586L563.418 154.819C564.363 155.589 565.099 156.486 565.729 157.48C565.834 157.67 565.833 158.035 566.042 158.103C568.877 159.357 570.242 162.117 572.132 164.228C574.021 166.27 575.596 168.664 577.485 170.651C581.474 174.657 621.048 237.421 624.932 247.739L626.086 250.693C627.241 253.65 628.291 256.624 629.235 259.63L630.074 262.188C630.914 264.751 631.65 267.328 632.28 269.921L633.222 273.383C634.902 280.309 636.583 287.256 637.842 294.305C638.892 300.596 639.627 306.919 640.257 313.25C640.782 317.313 640.991 321.363 641.095 325.444C641.306 331.965 641.412 338.484 641.307 345.007C641.201 351.144 639.731 357.142 639.941 363.269C638.472 366.748 639.416 370.696 637.842 374.152C638.157 376.063 637.211 377.811 636.897 379.562C636.477 381.369 636.583 383.347 635.534 385.063C635.008 385.842 635.638 386.985 635.008 387.934C634.378 388.705 634.169 389.706 634.379 390.665C633.015 391.016 634.377 392.15 633.748 392.868C633.013 393.649 632.593 394.644 632.489 395.693C632.489 398.067 630.703 399.966 630.599 402.095C630.494 404.272 629.13 405.895 628.711 407.809V408.172C628.396 410.715 626.295 412.289 625.875 414.656C625.77 414.863 625.247 414.968 624.932 415.128C624.932 415.677 625.56 415.66 625.875 416.149C625.14 416.612 624.406 417.179 623.775 417.835C623.251 418.787 622.831 419.793 622.517 420.836L623.775 423.33C622.936 424.476 622.937 425.657 621.992 426.494C621.572 426.86 621.468 428.211 621.258 429.111C621.048 430.293 619.367 430.734 619.577 431.741C619.682 432.874 619.368 434.007 618.738 434.95C614.854 444.231 610.864 453.494 606.876 462.742C606.456 463.734 606.457 465.072 605.092 465.453C606.247 467.133 603.937 467.251 603.727 468.382C603.412 469.415 602.783 470.355 602.048 471.134C600.893 472.643 600.368 474.69 599.528 476.475C599.213 477.774 598.478 478.946 597.533 479.855C596.484 480.583 596.378 482.132 595.434 483.25C594.279 484.58 593.336 486.06 592.601 487.648C592.181 488.825 591.551 489.878 590.606 490.688C589.766 491.313 590.083 492.954 588.718 493.284C587.878 495.382 586.303 496.89 585.044 498.616L584.832 498.943C581.578 503.404 578.114 507.669 574.44 511.715C571.291 515.125 568.248 518.588 565.099 521.968C564.155 523.057 563.105 524.133 561.951 525.147C558.171 528.906 554.182 532.452 549.984 535.769C546.1 538.607 542.426 541.624 538.542 544.303C536.442 545.73 534.552 547.608 532.452 549.152C527.624 552.795 522.691 556.301 517.548 559.552C513.139 562.589 508.415 565.195 503.586 567.331C502.221 567.846 501.067 568.736 499.808 569.337C498.233 569.861 496.764 570.492 495.295 571.227C493.615 572.359 491.619 572.926 489.94 573.953C488.576 574.75 486.792 573.852 485.637 575.507C484.797 576.712 482.594 575.833 481.649 577.229C479.445 576.93 478.184 578.786 476.189 579.118L475.875 579.153C473.776 579.347 471.781 580.662 469.787 581.486C467.792 582.429 465.692 583.238 463.593 583.908C459.71 584.899 456.142 586.83 452.258 587.888C448.689 588.896 445.224 590.706 441.341 590.951C440.5 591.009 440.5 591.803 439.871 592.025C439.136 592.257 438.506 591.91 437.876 592.206C435.356 593.313 432.628 594.21 429.898 594.891C426.12 595.983 422.236 596.97 418.352 598.09C412.474 599.733 406.386 601.061 400.298 602.073C396.414 602.792 392.424 603.372 388.435 603.993L382.872 604.865C380.142 605.298 377.415 605.72 374.581 606.094C371.116 606.566 367.546 606.802 363.978 607.234C361.248 607.57 358.415 608.025 355.686 608.479C351.803 609.108 347.919 609.6 344.139 610.203C338.681 611.027 333.221 611.547 327.658 611.76C324.929 611.95 322.095 611.961 319.365 611.797C317.791 611.662 316.216 611.624 314.642 611.685L313.908 611.723C310.339 611.966 306.875 611.235 303.306 610.933C302.256 610.837 301.207 610.509 300.262 610.312L299.737 610.237C298.897 610.105 298.057 609.912 297.218 609.729L296.588 609.594C293.543 608.982 290.71 607.844 287.561 607.627L287.036 607.598C286.721 607.597 286.51 607.544 286.3 607.444C283.361 605.736 279.792 605.607 276.644 604.172L276.119 603.903C273.18 602.394 269.715 602.414 266.881 600.685C264.677 601.043 262.997 599.393 261.108 599.04C256.069 598.128 251.66 595.632 246.936 593.727L246.412 593.483C241.478 591.567 236.756 589.426 231.928 587.413C228.673 585.798 225.524 583.92 222.585 581.793C221.955 581.2 221.22 580.691 220.485 580.277C219.12 579.822 217.966 578.804 217.336 577.476Z" fill="url(#paint0_linear_87_837)"/>
<path fill-rule="evenodd" clip-rule="evenodd" d="M287.902 306.314C284.471 320.227 276.15 331.074 263.15 339.852C266.478 330.151 270.742 318.8 274.07 309.101C270.847 315.718 265.128 322.209 258.68 325.738C262.736 311.137 271.263 299.529 271.263 281.022C271.263 274.368 264.086 269.228 264.294 266.522C264.606 263.784 266.063 261.335 267.206 258.827C273.447 244.789 290.19 312.07 287.902 306.314Z" fill="white"/>
<path fill-rule="evenodd" clip-rule="evenodd" d="M546.802 184.437C546.697 184.422 546.489 184.402 546.384 184.382C546.489 184.163 546.697 184.177 546.802 184.437ZM444.14 394.013C443.51 394.567 442.878 395.118 442.248 395.667C441.618 395.667 439.518 392.081 436.575 387.096C433.948 382.504 430.479 376.725 427.011 371.466C423.964 366.871 420.603 362.73 418.187 359.76C415.98 357.06 414.507 355.329 414.823 355.105C421.653 350.225 428.693 345.694 435.734 341.164C447.187 333.848 458.536 326.54 468.729 317.789C495.84 294.418 514.649 265.06 525.998 239.869C535.455 218.621 540.603 201.826 543.546 192.459C544.911 187.853 545.753 185.043 546.384 184.382C540.394 183.567 535.139 179.006 533.563 173.233C531.882 167.312 534.194 160.496 539.133 156.809C544.703 152.689 546.488 145.278 547.014 138.43C547.119 137.018 547.223 135.594 547.223 134.168C547.538 128.674 547.855 123.148 550.166 118.187C551.007 116.246 552.582 114.225 554.683 114.177C558.046 114.1 559.307 118.602 559.412 122.005L560.044 137.257C561.515 134.702 565.719 135.337 567.399 137.708C569.186 140.078 569.081 143.256 568.976 146.184C569.817 139.683 572.443 133.413 576.436 128.248C577.698 126.628 579.589 124.962 581.586 125.583C583.687 126.239 584.108 128.897 584.213 131.069C584.843 149.915 579.168 168.914 568.45 184.369C566.349 187.351 565.193 190.806 564.457 194.392C564.667 196.905 564.877 199.615 564.561 201.875C561.094 227.671 555.209 253.153 547.223 277.92C542.495 292.656 536.82 307.389 527.258 319.576C522.214 326.002 516.226 331.587 510.131 337.112C491.742 354.044 469.359 373.212 449.498 390.178C446.872 392.475 444.245 394.733 441.618 396.94C441.512 396.94 442.354 395.92 444.14 394.013Z" fill="white"/>
<path d="M243.435 478.962C245.002 483.388 248.868 489.043 248.868 489.043C248.868 489.043 221.697 527.507 211.352 549.48C201.738 569.903 192.126 617.19 162.344 588.799C176.451 548.565 190.766 508.116 211.352 470.787C220.757 453.81 229.013 447.784 229.013 447.784C229.013 447.784 238.001 463.48 243.435 478.962Z" fill="white"/>
<path fill-rule="evenodd" clip-rule="evenodd" d="M274.072 250.403C271.978 252.133 273.757 255.515 275.955 256.991C278.153 258.467 280.981 259.586 281.819 262.134C278.364 262.341 275.328 259.488 271.978 259.865C268.315 260.282 266.116 264.71 266.848 268.374C267.581 272.04 270.303 274.953 273.13 277.391C277.526 281.19 282.447 284.382 287.681 286.849C289.669 287.752 291.763 290.482 289.879 291.437C288.099 290.422 286.32 289.408 284.54 288.393C287.471 297.604 290.506 306.998 296.264 314.755C302.126 322.513 311.129 328.471 320.76 327.914C322.644 327.807 325.364 328.207 325.156 330.064C323.899 330.354 322.644 330.644 321.387 330.936C325.26 334.228 330.809 335.034 335.834 334.187C340.754 333.338 345.36 331.026 349.861 328.646C358.864 323.872 367.865 318.551 374.356 310.738C378.857 305.376 381.998 299.032 384.615 292.544C392.78 272.013 395.815 249.381 393.094 227.415C392.99 226.312 392.257 224.851 391.211 225.194C365.668 233.501 336.88 231.214 312.908 218.978C307.779 216.332 302.65 213.051 299.615 208.053C310.711 214.9 322.749 220.12 335.31 223.494C347.663 226.801 360.643 228.331 373.204 226.428C385.87 224.523 398.119 219 406.913 209.722C418.951 197.076 423.243 178.541 421.568 161.192C419.893 143.844 412.67 127.488 403.981 112.392C401.469 122.698 392.57 130.569 382.73 134.328C372.785 138.086 362.005 138.31 351.432 137.791C340.859 137.273 330.181 136.058 319.713 137.106C313.222 137.757 306.313 139.52 301.917 144.4C295.217 151.83 296.684 163.261 298.568 173.079C295.637 171.526 294.067 167.831 294.904 164.616C283.18 166.781 274.7 177.714 271.663 189.267C268.628 200.821 270.093 213.005 271.559 224.851C272.188 229.878 272.817 234.906 273.445 239.933C273.863 243.004 274.385 246.294 276.478 248.552C283.074 255.658 287.785 264.616 289.774 274.146C296.893 261.88 301.813 248.341 304.326 234.355C304.954 231.205 305.371 227.911 307.255 225.272C309.034 222.636 312.594 220.912 315.526 222.345C304.115 239.759 303.591 263.366 289.564 278.683C287.261 272.865 284.958 267.048 282.655 261.232C280.876 256.792 278.574 251.842 274.072 250.403Z" fill="white"/>
<path fill-rule="evenodd" clip-rule="evenodd" d="M442.492 422.484C433.318 428.951 423.933 435.031 414.337 440.704C412.228 455.341 407.377 483.472 403.58 507.18C401.893 517.964 401.893 527.139 400.417 534.68C397.359 550.015 384.81 558.167 369.731 557.425C281.257 553.079 279.99 599.735 276.616 569.597C273.241 539.459 271.662 509.116 271.977 478.792C265.123 483.799 258.374 488.804 251.519 493.811C249.305 490.532 230.112 459.718 231.061 448.489C232.116 436.248 245.826 418.472 261.432 404.476C271.134 395.758 282.416 389.408 289.27 384.02C292.012 381.842 306.354 368.938 309.623 356.339C313.103 343.151 305.722 330.255 312.154 328.53C317.321 327.166 320.591 331.208 326.39 333.782C330.819 335.759 338.2 332.244 339.887 335.04C341.574 337.836 339.361 348.885 343.684 353.132C351.699 361.003 368.36 362.321 369.731 362.179C387.657 360.276 406.533 352.121 412.016 354.15C430.681 361.122 444.811 396.138 447.87 408.151C448.608 410.893 449.137 413.852 448.082 416.486C447.133 419.08 444.707 420.865 442.492 422.484Z" fill="white"/>
<path fill-rule="evenodd" clip-rule="evenodd" d="M420.274 360.314C419.752 359.598 419.125 358.969 418.707 358.415C416.2 355.735 414.423 354.81 414.84 354.511C432.496 341.839 452.138 331.53 468.436 317.463C495.39 294.26 514.091 265.113 525.374 240.104C533.941 220.964 521.717 264.873 493.3 307.119C469.794 341.863 421.214 361.546 420.274 360.314Z" fill="#E7EAEE"/>
<path fill-rule="evenodd" clip-rule="evenodd" d="M441.735 422.911C443.939 421.291 446.354 419.507 447.298 416.912C448.348 414.277 447.822 411.318 447.087 408.576C441.945 387.972 430.4 368.992 414.551 354.825C480.463 322.146 530.423 258.868 546.691 187.216C532.522 227.977 513.315 267.719 484.558 299.944C455.8 332.167 416.546 356.433 373.514 360.996C363.963 362.011 353.258 361.709 346.121 355.318C338.984 348.928 339.193 334.614 348.325 331.622C365.537 325.995 379.183 312.069 386.949 295.751C394.716 279.432 397.024 260.907 395.975 242.869C395.555 234.657 395.031 224.895 401.643 219.934C418.226 207.383 426.203 185.544 425.258 164.752C424.313 143.961 415.391 124.19 403.635 107.04C399.647 119.202 389.467 129.171 377.292 132.918C367.006 136.058 356.195 134.947 345.385 133.833C340.137 133.289 334.89 132.744 329.642 132.692C313.688 132.529 294.692 140.382 292.907 156.23C292.382 161.419 287.661 164.416 283.043 167.375C281.574 168.337 279.998 169.296 278.634 170.325C266.354 179.673 265.304 197.635 267.193 212.942C267.508 215.15 267.823 217.376 268.138 219.614C269.923 232.89 271.917 246.524 266.459 258.557C266.249 259.089 265.935 259.621 265.725 260.152C264.78 262.123 263.835 264.104 263.52 266.264C262.89 272.465 267.823 276.617 272.965 280.89C275.695 283.158 278.425 285.461 280.419 288.121C285.247 294.693 285.141 303.925 282.203 311.546C279.264 319.166 273.806 325.543 268.453 331.761C274.121 320.586 277.059 308.028 276.955 295.502L261.841 320.852C267.089 308.166 270.133 294.524 270.553 280.788L258.378 324.66C264.78 321.125 270.132 315.54 273.386 308.911L263.31 338.059C274.751 330.642 283.357 319.121 287.346 306.121C289.654 311.887 293.537 317.012 298.471 320.778C315.579 333.839 314.213 364.223 296.055 375.765C259.951 398.694 232.348 433.149 211.566 470.533C190.89 507.918 176.513 548.427 162.344 588.72C182.81 541.318 205.061 494.676 229.095 448.917C234.658 464.891 242.214 480.158 251.661 494.243L272.022 479.223C271.707 509.549 273.28 539.895 276.639 570.035C280.627 570.459 281.574 564.587 280.944 560.61C274.856 522.525 274.015 483.627 278.214 445.302C274.225 447.87 274.12 453.223 274.015 458.233C274.015 459.182 274.015 460.118 274.015 461.02C273.491 473.441 264.15 484.984 252.185 488.211C245.993 480.371 239.695 472.366 236.126 463.016C232.558 453.667 232.244 442.586 237.596 434.14C251.87 411.455 272.546 392.8 296.581 380.826C307.286 391.211 319.986 399.545 333.735 405.245C338.144 407.056 343.181 408.593 347.484 406.633C350.528 405.278 352.522 402.49 354.307 399.741C361.023 389.328 365.957 377.739 368.791 365.659C381.701 363.826 394.505 361.095 406.995 357.49C412.033 356.032 416.965 360.146 420.429 364.155C431.029 376.588 438.902 391.369 443.205 407.128C444.15 410.341 444.883 413.871 443.518 416.92C442.469 419.371 440.162 421.079 437.957 422.628C429.771 428.424 421.165 433.556 412.139 437.955C413.083 428.172 410.562 418.088 405.209 409.877C413.711 432.758 409.199 457.03 404.581 481.55C401.117 500.282 397.653 519.157 399.857 537.673L413.713 441.132C423.264 435.458 432.604 429.377 441.735 422.911ZM273.701 250.182C278.215 251.622 280.523 256.568 282.307 261.001L289.233 278.436C297.105 269.901 300.674 258.787 304.347 247.609C307.287 238.747 310.226 229.843 315.264 222.151C312.325 220.72 308.756 222.442 306.972 225.078C305.292 227.536 304.663 230.565 304.139 233.516C304.139 233.727 304.139 233.939 304.034 234.15C301.515 248.124 296.582 261.649 289.445 273.904C287.45 264.383 282.726 255.432 276.114 248.334C274.015 246.078 273.492 242.791 273.072 239.723L271.182 224.655C269.713 212.821 268.243 200.647 271.286 189.105C274.33 177.562 282.833 166.64 294.588 164.477C293.749 167.689 295.323 171.381 298.261 172.932C296.372 163.124 294.902 151.702 301.619 144.28C306.027 139.405 312.954 137.643 319.462 136.994C327.543 136.192 335.625 136.714 343.706 137.236C346.225 137.397 348.745 137.557 351.264 137.678C361.865 138.198 372.674 137.972 382.645 134.217C392.51 130.462 401.432 122.598 403.951 112.302C412.662 127.385 419.905 143.725 421.585 161.057C423.264 178.388 418.961 196.906 406.891 209.54C398.074 218.809 385.793 224.328 373.094 226.23C360.499 228.132 347.485 226.604 335.101 223.301C322.506 219.93 310.436 214.715 299.311 207.874C302.355 212.868 307.497 216.143 312.64 218.789C336.674 231.012 365.538 233.297 391.147 224.997C392.197 224.656 392.93 226.116 393.035 227.217C395.764 249.161 392.721 271.773 384.535 292.284C381.91 298.767 378.761 305.105 374.248 310.462C367.74 318.266 358.716 323.584 349.69 328.352C345.177 330.73 340.558 333.04 335.625 333.887C330.587 334.734 325.024 333.93 321.14 330.639L324.919 329.768C325.128 327.914 322.401 327.513 320.511 327.62C310.855 328.178 301.828 322.224 295.951 314.476C290.179 306.726 287.135 297.338 284.197 288.138L289.549 291.178C291.438 290.224 289.34 287.497 287.346 286.594C282.098 284.13 277.165 280.941 272.756 277.145C269.923 274.71 267.194 271.799 266.459 268.138C265.725 264.475 267.929 260.052 271.602 259.635C273.386 259.443 275.065 260.097 276.639 260.755C278.214 261.378 279.789 262.004 281.469 261.904C280.839 259.914 278.949 258.797 277.059 257.699C276.534 257.392 276.114 257.088 275.589 256.766C273.385 255.291 271.602 251.911 273.701 250.182ZM319.462 333.027C324.29 336.668 330.797 338.036 336.674 336.662C333.946 343.681 337.409 351.979 343.182 356.801C348.954 361.623 356.616 363.614 364.068 364.803C363.858 378.024 359.031 391.13 350.739 401.409C348.326 404.43 343.602 403.774 339.823 402.618C325.13 398.04 311.485 389.975 300.465 379.276C301.41 377.888 302.983 377.107 304.452 376.323C305.922 375.601 307.287 374.876 308.232 373.677C309.177 372.588 309.596 371.212 310.016 369.863C313.794 356.625 314.529 342.501 312.011 328.947C314.424 328.984 316.312 330.515 318.097 332.011C318.621 332.358 319.042 332.703 319.462 333.027ZM544.696 160.058C540.918 162.204 536.616 165.123 536.511 169.494C536.406 173.229 539.345 175.731 542.284 178.313C544.383 180.135 546.481 181.995 547.74 184.355C541.548 183.724 536.091 179.081 534.412 173.165C532.838 167.25 535.145 160.442 540.078 156.76C545.535 152.644 547.32 145.242 547.845 138.402C547.95 136.993 548.056 135.57 548.161 134.147V134.144C548.475 128.657 548.789 123.138 550.993 118.182C551.938 116.244 553.408 114.225 555.612 114.177C558.971 114.1 560.23 118.597 560.335 121.995L560.964 137.231C562.329 134.678 566.632 135.312 568.312 137.68C569.99 140.048 569.99 143.222 569.886 146.147C570.725 139.653 573.244 133.39 577.337 128.232C578.596 126.613 580.487 124.95 582.376 125.57C584.475 126.225 584.999 128.88 585.104 131.049C585.734 149.873 580.066 168.851 569.256 184.287C565.793 189.206 564.952 195.411 564.217 201.37L564.113 201.774C560.649 227.539 554.876 252.991 546.9 277.73C542.072 292.448 536.405 307.165 526.854 319.337C521.816 325.755 515.834 331.334 509.852 336.852C488.966 356.056 467.658 374.9 446.142 393.373C444.358 393.372 445.199 390.4 446.563 389.201C451.18 385.154 455.904 381.137 460.628 377.118C480.464 360.238 500.196 343.343 517.828 324.174C522.866 318.587 527.798 312.78 531.682 306.269C535.46 300.002 538.084 293.176 540.603 286.324C551.518 256.204 559.181 224.882 563.275 193.105C563.589 190.824 563.798 188.354 562.643 186.361C577.022 170.907 584.161 149.019 581.642 128.081C576.079 130.653 574.818 136.894 573.664 143.322C572.614 148.706 571.46 154.222 567.786 157.818L567.262 142.605C567.156 141.145 566.947 139.404 565.687 138.76C563.483 137.699 561.595 140.753 561.384 143.154C561.175 145.556 560.755 148.713 558.341 149.11C559.18 138.042 558.551 126.873 556.453 115.972C551.1 120.931 550.994 129.026 550.889 136.402C550.889 136.858 550.889 137.31 550.889 137.76C550.679 145.482 548.685 154.698 541.443 157.381C543.228 158.739 545.117 157.374 547.216 155.978C548.055 155.375 548.895 154.767 549.735 154.37C554.563 152.171 560.125 158.25 558.761 163.377C557.396 168.503 551.728 171.42 546.376 171.399C547.53 169.546 549.631 168.424 551.729 167.345C554.459 165.924 557.082 164.578 556.977 161.732C556.767 159.258 554.142 157.558 551.623 157.575C549.209 157.591 546.9 158.841 544.696 160.058ZM315.684 248.992C315.788 248.082 317.152 247.948 318.097 247.987C320.931 248.103 323.871 247.243 326.599 246.346L327.018 246.22C329.642 245.361 332.371 244.492 335.101 244.413C338.039 244.33 341.188 245.272 342.972 247.52C343.182 247.816 343.392 248.167 343.392 248.534C343.288 249.161 342.447 249.462 341.818 249.303C341.293 249.181 340.873 248.878 340.453 248.576C340.348 248.49 340.242 248.405 340.137 248.324C336.883 246.11 332.372 247.064 328.699 248.401L328.488 248.46L328.383 248.5C328.173 248.567 327.963 248.637 327.858 248.707L327.754 248.708C324.29 249.971 320.617 251.309 317.154 250.294C316.419 250.102 315.684 249.661 315.684 248.992ZM348.849 292.527C351.159 292.633 353.572 292.687 355.356 291.387C357.875 289.574 358.19 285.934 357.875 282.818C357.77 280.975 357.456 279.142 357.141 277.309C356.721 274.791 356.405 272.276 356.301 269.729C356.196 265.332 357.141 260.63 360.29 257.56C360.5 256.492 359.031 255.728 358.086 256.1C357.037 256.471 356.407 257.502 355.987 258.489C353.048 265.229 353.783 272.86 354.517 280.302V280.304V280.307C354.622 281.438 354.726 282.563 354.831 283.681C354.936 285.49 354.937 287.62 353.468 288.722C352.418 289.541 351.053 289.451 349.583 289.362C349.163 289.333 348.744 289.304 348.325 289.308C347.38 289.314 346.226 289.661 346.016 290.574C345.807 291.863 347.59 292.465 348.849 292.527ZM343.286 256.909C344.336 256.76 345.176 257.904 345.176 258.982C345.071 260.06 344.441 261.004 343.706 261.765C340.977 264.521 336.989 265.794 333.211 265.816C329.327 265.838 325.654 264.711 322.086 263.214C321.351 262.89 320.511 262.533 319.987 261.918C319.357 261.302 319.042 260.358 319.462 259.591C319.776 258.823 320.932 258.48 321.456 259.089C324.08 261.851 328.174 262.566 331.952 262.631C335.311 262.689 339.193 262.065 341.082 259.172C341.187 259.01 341.293 258.838 341.398 258.665C341.923 257.867 342.341 257.033 343.286 256.909ZM388.628 261.12C384.429 264.802 377.817 265.951 372.464 263.952C370.995 263.4 369.526 262.574 368.687 261.278C368.372 260.77 368.16 260.15 368.475 259.604C368.79 258.721 370.05 258.489 370.994 258.831C371.729 259.089 372.36 259.567 372.884 260.043C373.095 260.198 373.304 260.353 373.514 260.502C376.872 263.103 382.224 263.179 385.688 260.673C385.688 260.619 385.794 260.566 385.899 260.51C386.424 260.101 387.053 259.672 387.683 259.662C388.523 259.65 389.258 260.619 388.628 261.12ZM246.622 488.816C244.943 489.772 243.789 491.327 242.74 492.849C231.509 508.46 221.644 525.002 213.248 542.246C204.746 559.668 197.714 577.767 190.682 595.84C190.157 597.373 189.527 599.147 190.366 600.589C191.416 602.584 194.564 602.488 196.243 600.981C198.027 599.473 198.658 597.134 199.182 594.94C209.049 558.334 225.315 523.549 246.202 491.948C246.937 490.984 247.462 489.553 246.622 488.816ZM334.5 311.458C334.5 313.266 334.5 311.458 334.5 311.5C334.5 311.458 335.939 313.166 334.89 311.515C333.841 309.863 332.216 311.481 334 310.807L318.621 305.419C317.571 305.014 316.522 304.602 315.368 304.79C315.159 304.834 314.844 304.909 314.634 304.985C314.215 305.111 313.793 305.237 313.374 305.21C312.639 305.167 311.904 304.439 312.219 303.805C312.325 303.566 312.534 303.414 312.849 303.271L317.363 300.336C317.887 300.003 318.517 299.656 319.041 299.72C319.671 299.783 320.302 300.487 319.987 301.032C319.042 302.647 321.246 304.148 323.03 304.614C329.013 306.182 334.89 307.758 340.977 308.1C347.17 308.443 353.468 307.471 358.716 304.251C360.29 303.263 362.285 302.045 363.859 303.056C363.229 304.851 361.445 305.846 359.66 306.82C357.771 307.909 359.66 306.82 355.5 309.5C351 310.5 353.099 310.397 351 310.5C347.5 312.015 351 310.5 347.5 311.515C347.395 311.173 345.42 311.56 345 311.5C343.531 311.227 344 311 341.398 311.117C340 311.5 334.395 309.857 334.5 311.458ZM336.464 310.807C337.198 310.017 335.834 309.943 336.464 310.807C336.36 309.701 335.624 311.595 336.464 310.807C335.729 311.486 337.409 311.329 336.464 310.807C336.779 311.819 337.303 310.126 336.464 310.807ZM378.657 251.624C379.287 251.774 379.811 251.925 380.44 252.035C383.484 252.605 386.842 252.034 389.467 250.483C390.096 250.071 389.467 248.994 388.628 248.914C387.998 248.852 387.472 249.116 386.842 249.377C386.633 249.453 386.527 249.528 386.318 249.597C384.114 250.467 381.596 249.967 379.077 249.467C376.453 248.947 373.933 248.428 371.624 249.474C370.889 249.852 370.051 250.536 370.157 251.355C370.157 252.175 371.414 252.806 372.044 252.186C372.989 251.19 374.668 250.936 376.137 251.099C376.978 251.194 377.818 251.409 378.657 251.624Z" fill="#00160A"/>
<path fill-rule="evenodd" clip-rule="evenodd" d="M337.109 336.284C335.304 336.693 333.498 336.862 331.693 336.804C327.444 336.664 322.453 351.703 331.693 368.858C340.826 385.715 357.924 392.458 360.155 387.123C363.129 380.07 364.722 372.471 364.828 364.834C357.287 363.627 349.534 361.608 343.693 356.715C337.851 351.823 334.347 343.404 337.109 336.284Z" fill="#E7EAEE"/>
<path d="M304.619 298.82C307.329 298.82 309.524 296.424 309.524 293.468C309.524 290.512 307.329 288.116 304.619 288.116C301.909 288.116 299.712 290.512 299.712 293.468C299.712 296.424 301.909 298.82 304.619 298.82Z" fill="black"/>
<path d="M371.964 300.604C374.92 300.604 377.316 298.208 377.316 295.252C377.316 292.296 374.92 289.9 371.964 289.9C369.009 289.9 366.612 292.296 366.612 295.252C366.612 298.208 369.009 300.604 371.964 300.604Z" fill="black"/>
<path fill-rule="evenodd" clip-rule="evenodd" d="M314.36 487.147C316.243 484.917 320.113 486 323.043 486.782C330.889 488.866 340.411 486.53 346.27 481.091C352.128 475.619 362.903 482.15 370.645 478.778C375.248 476.747 379.015 471.188 383.723 472.62C389.476 474.378 396.592 472.98 401.3 469.236V468.123V465.668C396.592 469.795 389.163 471.402 383.199 469.567C378.491 468.133 374.725 473.693 370.017 475.724C362.38 479.096 351.606 472.565 345.643 478.037C339.993 483.367 330.68 485.717 322.938 483.848L321.369 483.445C318.649 482.736 315.407 482.126 313.733 484.094C308.397 490.299 297.829 492.868 290.087 489.85L291.029 493.042L291.448 493.202C299.19 495.737 309.129 493.135 314.36 487.147ZM307.037 452.236C309.025 450.14 312.895 451.27 315.72 452.089C323.461 454.272 333.087 452.252 339.155 447.167C345.328 442.049 355.686 448.571 363.532 445.513C368.24 443.67 372.32 438.421 376.818 439.905C382.468 441.726 403.184 430.838 403.184 430.838C397.953 430.692 382.677 438.795 376.818 437.086L376.4 436.959C371.796 435.474 367.821 440.724 363.113 442.567C355.266 445.625 344.908 439.102 338.736 444.221C332.773 449.204 323.358 451.244 315.826 449.269L314.256 448.847C311.536 448.103 308.396 447.441 306.618 449.29C300.969 455.124 285.589 452.585 282.764 454.268C282.764 454.268 301.596 457.865 307.037 452.236Z" fill="black"/>
<path fill-rule="evenodd" clip-rule="evenodd" d="M313.364 553.948C315.352 551.687 319.222 552.785 322.151 553.578C329.997 555.691 339.519 553.323 345.378 547.807C351.237 542.257 362.011 548.881 369.754 545.462C374.356 543.401 378.123 537.764 382.831 539.217C388.585 540.999 395.7 539.581 400.408 535.783V534.656V532.166C395.7 536.351 388.272 537.982 382.203 536.12C377.495 534.666 373.834 540.305 369.126 542.364C361.384 545.783 350.61 539.16 344.751 544.71C338.997 550.115 329.789 552.498 322.047 550.602L320.478 550.194C317.757 549.475 314.516 548.856 312.841 550.85C307.505 557.144 296.937 559.75 289.195 556.689L290.137 559.927L290.557 560.088C298.194 562.658 308.238 560.02 313.364 553.948ZM306.145 518.545C308.133 516.42 311.899 517.564 314.828 518.396C322.57 520.609 332.091 518.561 338.263 513.403C344.331 508.214 354.794 514.828 362.64 511.728C367.348 509.859 371.323 504.536 375.926 506.04C381.576 507.888 402.292 496.846 402.292 496.846C397.061 496.699 381.681 504.916 375.926 503.182L375.508 503.053C370.904 501.547 366.93 506.871 362.117 508.74C354.27 511.84 343.912 505.227 337.844 510.417C331.776 515.471 322.465 517.539 314.828 515.537L313.364 515.109C310.644 514.354 307.505 513.682 305.727 515.558C300.077 521.473 284.697 518.899 281.872 520.606C281.872 520.606 300.705 524.254 306.145 518.545Z" fill="black"/>
<path fill-rule="evenodd" clip-rule="evenodd" d="M296.944 176.17C302.069 179.35 320.893 144.404 349.027 144.404C408.431 144.404 412.929 127.49 404.249 112.392C401.739 122.699 392.848 130.571 383.016 134.329C373.081 138.088 362.31 138.313 351.747 137.794C341.184 137.276 330.516 136.06 320.057 137.109C313.572 137.759 306.67 139.523 302.278 144.404C295.584 151.833 297.049 163.267 298.932 173.086C296.004 171.532 294.434 167.837 295.271 164.622C283.557 166.788 275.085 177.721 272.052 189.275C269.019 200.831 270.483 213.016 271.948 224.863C272.575 229.89 273.203 234.919 273.831 239.948C273.831 239.948 276.55 199.44 280.106 189.275C285.021 175.437 298.094 178.09 296.944 176.17Z" fill="#E7EAEE"/>
</g>
</g>
<defs>
<linearGradient id="paint0_linear_87_837" x1="69" y1="79" x2="641" y2="612" gradientUnits="userSpaceOnUse">
<stop stop-color="#09F7E8"/>
<stop offset="0.520833" stop-color="#6DAAE7"/>
<stop offset="1" stop-color="#9D89E5"/>
</linearGradient>
<clipPath id="clip0_87_837">
<rect width="669" height="669" fill="white"/>
</clipPath>
</defs>
</svg>
